<svg class="main-svg" xmlns="http://www.w3.org/2000/svg" xmlns:xlink="http://www.w3.org/1999/xlink" width="1113" height="450" style="" viewBox="0 0 1113 450"><rect x="0" y="0" width="1113" height="450" style="fill: rgb(255, 255, 255); fill-opacity: 1;"/><defs id="defs-9519ce"><g class="clips"><clipPath id="clip9519cexyplot" class="plotclip"><rect width="890" height="270"/></clipPath><clipPath class="axesclip" id="clip9519cex"><rect x="80" y="0" width="890" height="450"/></clipPath><clipPath class="axesclip" id="clip9519cey"><rect x="0" y="100" width="1113" height="270"/></clipPath><clipPath class="axesclip" id="clip9519cexy"><rect x="80" y="100" width="890" height="270"/></clipPath></g><g class="gradients"/><g class="patterns"/></defs><g class="bglayer"/><g class="layer-below"><g class="imagelayer"/><g class="shapelayer"/></g><g class="cartesianlayer"><g class="subplot xy"><g class="layer-subplot"><g class="shapelayer"/><g class="imagelayer"/></g><g class="gridlayer"><g class="x"><path class="xgrid crisp" transform="translate(169,0)" d="M0,100v270" style="stroke: rgb(238, 238, 238); stroke-opacity: 1; stroke-width: 1px;"/><path class="xgrid crisp" transform="translate(258,0)" d="M0,100v270" style="stroke: rgb(238, 238, 238); stroke-opacity: 1; stroke-width: 1px;"/><path class="xgrid crisp" transform="translate(347,0)" d="M0,100v270" style="stroke: rgb(238, 238, 238); stroke-opacity: 1; stroke-width: 1px;"/><path class="xgrid crisp" transform="translate(436,0)" d="M0,100v270" style="stroke: rgb(238, 238, 238); stroke-opacity: 1; stroke-width: 1px;"/><path class="xgrid crisp" transform="translate(525,0)" d="M0,100v270" style="stroke: rgb(238, 238, 238); stroke-opacity: 1; stroke-width: 1px;"/><path class="xgrid crisp" transform="translate(614,0)" d="M0,100v270" style="stroke: rgb(238, 238, 238); stroke-opacity: 1; stroke-width: 1px;"/><path class="xgrid crisp" transform="translate(703,0)" d="M0,100v270" style="stroke: rgb(238, 238, 238); stroke-opacity: 1; stroke-width: 1px;"/><path class="xgrid crisp" transform="translate(792,0)" d="M0,100v270" style="stroke: rgb(238, 238, 238); stroke-opacity: 1; stroke-width: 1px;"/><path class="xgrid crisp" transform="translate(881,0)" d="M0,100v270" style="stroke: rgb(238, 238, 238); stroke-opacity: 1; stroke-width: 1px;"/></g><g class="y"><path class="ygrid crisp" transform="translate(0,333.46000000000004)" d="M80,0h890" style="stroke: rgb(238, 238, 238); stroke-opacity: 1; stroke-width: 1px;"/><path class="ygrid crisp" transform="translate(0,277.56)" d="M80,0h890" style="stroke: rgb(238, 238, 238); stroke-opacity: 1; stroke-width: 1px;"/><path class="ygrid crisp" transform="translate(0,221.65)" d="M80,0h890" style="stroke: rgb(238, 238, 238); stroke-opacity: 1; stroke-width: 1px;"/><path class="ygrid crisp" transform="translate(0,165.74)" d="M80,0h890" style="stroke: rgb(238, 238, 238); stroke-opacity: 1; stroke-width: 1px;"/><path class="ygrid crisp" transform="translate(0,109.84)" d="M80,0h890" style="stroke: rgb(238, 238, 238); stroke-opacity: 1; stroke-width: 1px;"/></g></g><g class="zerolinelayer"><path class="xzl zl crisp" transform="translate(80,0)" d="M0,100v270" style="stroke: rgb(68, 68, 68); stroke-opacity: 1; stroke-width: 1px;"/></g><path class="xlines-below"/><path class="ylines-below"/><g class="overlines-below"/><g class="xaxislayer-below"/><g class="yaxislayer-below"/><g class="overaxes-below"/><g class="plot" transform="translate(80,100)" clip-path="url(#clip9519cexyplot)"><g class="scatterlayer mlayer"><g class="trace scatter trace283f16" style="stroke-miterlimit: 2; opacity: 1;"><g class="fills"/><g class="errorbars"/><g class="lines"><path class="js-line" d="M0,15.67Q14.83,16.92 22.25,17.56C29.67,18.21 37.08,18.87 44.5,19.54C51.92,20.22 59.33,20.9 66.75,21.61C74.17,22.32 81.58,23.05 89,23.79C96.42,24.54 103.83,25.3 111.25,26.08C118.67,26.86 126.08,27.66 133.5,28.48C140.92,29.3 148.33,30.14 155.75,31C163.17,31.86 170.58,32.75 178,33.65C185.42,34.56 192.83,35.48 200.25,36.43C207.67,37.38 215.08,38.35 222.5,39.35C229.92,40.35 237.34,41.37 244.75,42.42C252.17,43.47 259.59,44.55 267,45.65C274.42,46.76 281.84,47.89 289.25,49.05C296.67,50.21 304.09,51.4 311.5,52.62C318.92,53.84 326.34,55.09 333.75,56.37C341.17,57.65 348.59,58.97 356,60.32C363.42,61.67 370.84,63.07 378.25,64.49C385.67,65.92 393.09,67.37 400.5,68.87C407.92,70.37 415.34,71.9 422.75,73.48C430.17,75.06 437.59,76.67 445,78.33C452.42,79.99 459.84,81.7 467.25,83.45C474.67,85.2 482.09,87 489.5,88.84C496.92,90.69 504.34,92.58 511.75,94.52C519.17,96.47 526.59,98.46 534,100.51C541.42,102.56 548.84,104.67 556.25,106.83C563.67,108.99 571.09,111.2 578.5,113.48C585.93,115.76 593.34,118.11 600.75,120.51C608.18,122.92 615.59,125.38 623,127.91C630.43,130.45 637.84,133.06 645.25,135.73C652.68,138.41 660.1,141.15 667.5,143.97C674.93,146.8 682.35,149.69 689.75,152.67C697.18,155.66 704.6,158.72 712,161.86C719.43,165.01 726.85,168.24 734.25,171.55C741.68,174.88 749.1,178.29 756.5,181.79C763.94,185.31 771.35,188.91 778.75,192.6C786.19,196.31 793.61,200.12 801,204.02C808.44,207.94 815.86,211.96 823.25,216.08C830.69,220.23 838.11,224.47 845.5,228.82C852.94,233.2 860.36,237.69 867.75,242.28Q875.2,246.91 890,256.5" style="vector-effect: non-scaling-stroke; fill: none; stroke: rgb(31, 119, 180); stroke-opacity: 1; stroke-width: 2px; opacity: 1;"/></g><g class="points"/><g class="text"/></g><g class="trace scatter traceb5820c" style="stroke-miterlimit: 2; opacity: 1;"><g class="fills"/><g class="errorbars"/><g class="lines"><path class="js-line" d="M0,13.5Q14.97,12.06 22.25,13.5C29.82,15 36.93,21.3 44.5,22.65C51.78,23.95 59.33,22.04 66.75,21.84C74.17,21.64 81.61,20.88 89,21.44C96.44,22.01 103.81,24.3 111.25,25.25C118.65,26.2 126.17,25.64 133.5,27.16C141.01,28.72 148.23,33.52 155.75,34.64C163.07,35.73 170.59,33.75 178,33.98C185.42,34.21 192.83,35.81 200.25,36.03C207.66,36.25 215.2,34.15 222.5,35.33C230.04,36.55 237.3,41.02 244.75,43.5C252.13,45.96 259.5,49.06 267,50.16C274.34,51.23 281.87,49.47 289.25,50.16C296.7,50.85 304.05,53.64 311.5,54.33C318.88,55.02 326.54,52.59 333.75,54.33C341.4,56.18 348.5,62.37 356,65.74C363.33,69.04 370.83,74.4 378.25,74.4C385.67,74.4 393,66.24 400.5,65.74C407.84,65.25 415.33,71.16 422.75,71.16C430.17,71.16 437.58,65.74 445,65.74C452.42,65.74 460.16,67.8 467.25,71.16C475.07,74.87 481.81,87.1 489.5,87.99C496.68,88.82 504.33,78.15 511.75,78.15C519.17,78.15 526.82,88.82 534,87.99C541.69,87.1 549.32,67.71 556.25,71.16C654.39,119.98 403.67,5517.37 556.2939426162104,5670C569.89,5683.59 587.12,5683.59 600.7062439679196,5670C752.98,5517.73 490.33,205.4 600.75,94.98C607.73,88 616.24,91.82 623,94.98C631.44,98.93 636.81,117.7 645.25,121.65C652.01,124.81 660.52,114.68 667.5,121.65C777.64,231.79 359,5361.46 667.543547119932,5669.999999999999Q729.33,5731.78 890,5670" style="vector-effect: non-scaling-stroke; fill: none; stroke: rgb(255, 127, 14); stroke-opacity: 1; stroke-width: 2px; opacity: 1;"/></g><g class="points"/><g class="text"/></g></g></g><g class="overplot"/><path class="xlines-above crisp" d="M0,0" style="fill: none;"/><path class="ylines-above crisp" d="M0,0" style="fill: none;"/><g class="overlines-above"/><g class="xaxislayer-above"><g class="xtick"><text text-anchor="middle" x="0" y="383" transform="translate(80,0)" style="font-family: 'Open Sans', verdana, arial, sans-serif; font-size: 12px; fill: rgb(68, 68, 68); fill-opacity: 1; white-space: pre; opacity: 1;">0</text></g><g class="xtick"><text text-anchor="middle" x="0" y="383" style="font-family: 'Open Sans', verdana, arial, sans-serif; font-size: 12px; fill: rgb(68, 68, 68); fill-opacity: 1; white-space: pre; opacity: 1;" transform="translate(169,0)">1</text></g><g class="xtick"><text text-anchor="middle" x="0" y="383" style="font-family: 'Open Sans', verdana, arial, sans-serif; font-size: 12px; fill: rgb(68, 68, 68); fill-opacity: 1; white-space: pre; opacity: 1;" transform="translate(258,0)">2</text></g><g class="xtick"><text text-anchor="middle" x="0" y="383" style="font-family: 'Open Sans', verdana, arial, sans-serif; font-size: 12px; fill: rgb(68, 68, 68); fill-opacity: 1; white-space: pre; opacity: 1;" transform="translate(347,0)">3</text></g><g class="xtick"><text text-anchor="middle" x="0" y="383" style="font-family: 'Open Sans', verdana, arial, sans-serif; font-size: 12px; fill: rgb(68, 68, 68); fill-opacity: 1; white-space: pre; opacity: 1;" transform="translate(436,0)">4</text></g><g class="xtick"><text text-anchor="middle" x="0" y="383" style="font-family: 'Open Sans', verdana, arial, sans-serif; font-size: 12px; fill: rgb(68, 68, 68); fill-opacity: 1; white-space: pre; opacity: 1;" transform="translate(525,0)">5</text></g><g class="xtick"><text text-anchor="middle" x="0" y="383" style="font-family: 'Open Sans', verdana, arial, sans-serif; font-size: 12px; fill: rgb(68, 68, 68); fill-opacity: 1; white-space: pre; opacity: 1;" transform="translate(614,0)">6</text></g><g class="xtick"><text text-anchor="middle" x="0" y="383" style="font-family: 'Open Sans', verdana, arial, sans-serif; font-size: 12px; fill: rgb(68, 68, 68); fill-opacity: 1; white-space: pre; opacity: 1;" transform="translate(703,0)">7</text></g><g class="xtick"><text text-anchor="middle" x="0" y="383" style="font-family: 'Open Sans', verdana, arial, sans-serif; font-size: 12px; fill: rgb(68, 68, 68); fill-opacity: 1; white-space: pre; opacity: 1;" transform="translate(792,0)">8</text></g><g class="xtick"><text text-anchor="middle" x="0" y="383" style="font-family: 'Open Sans', verdana, arial, sans-serif; font-size: 12px; fill: rgb(68, 68, 68); fill-opacity: 1; white-space: pre; opacity: 1;" transform="translate(881,0)">9</text></g><g class="xtick"><text text-anchor="middle" x="0" y="383" style="font-family: 'Open Sans', verdana, arial, sans-serif; font-size: 12px; fill: rgb(68, 68, 68); fill-opacity: 1; white-space: pre; opacity: 1;" transform="translate(970,0)">10</text></g></g><g class="yaxislayer-above"><g class="ytick"><text text-anchor="end" x="79" y="5.25" transform="translate(0,333.46000000000004)" style="font-family: 'Open Sans', verdana, arial, sans-serif; font-size: 15px; fill: rgb(68, 68, 68); fill-opacity: 1; white-space: pre; opacity: 1;">10​<tspan style="font-size:70%" dy="-0.6em">−5</tspan><tspan dy="0.42em">​</tspan></text></g><g class="ytick"><text text-anchor="end" x="79" y="5.25" style="font-family: 'Open Sans', verdana, arial, sans-serif; font-size: 15px; fill: rgb(68, 68, 68); fill-opacity: 1; white-space: pre; opacity: 1;" transform="translate(0,277.56)">10​<tspan style="font-size:70%" dy="-0.6em">−4</tspan><tspan dy="0.42em">​</tspan></text></g><g class="ytick"><text text-anchor="end" x="79" y="5.25" style="font-family: 'Open Sans', verdana, arial, sans-serif; font-size: 15px; fill: rgb(68, 68, 68); fill-opacity: 1; white-space: pre; opacity: 1;" transform="translate(0,221.65)">10​<tspan style="font-size:70%" dy="-0.6em">−3</tspan><tspan dy="0.42em">​</tspan></text></g><g class="ytick"><text text-anchor="end" x="79" y="5.25" style="font-family: 'Open Sans', verdana, arial, sans-serif; font-size: 15px; fill: rgb(68, 68, 68); fill-opacity: 1; white-space: pre; opacity: 1;" transform="translate(0,165.74)">10​<tspan style="font-size:70%" dy="-0.6em">−2</tspan><tspan dy="0.42em">​</tspan></text></g><g class="ytick"><text text-anchor="end" x="79" y="5.25" style="font-family: 'Open Sans', verdana, arial, sans-serif; font-size: 15px; fill: rgb(68, 68, 68); fill-opacity: 1; white-space: pre; opacity: 1;" transform="translate(0,109.84)">10​<tspan style="font-size:70%" dy="-0.6em">−1</tspan><tspan dy="0.42em">​</tspan></text></g></g><g class="overaxes-above"/></g></g><g class="polarlayer"/><g class="ternarylayer"/><g class="geolayer"/><g class="funnelarealayer"/><g class="pielayer"/><g class="iciclelayer"/><g class="treemaplayer"/><g class="sunburstlayer"/><g class="glimages"/><defs id="topdefs-9519ce"><g class="clips"/><clipPath id="legend9519ce"><rect width="113" height="48" x="0" y="0"/></clipPath></defs><g class="layer-above"><g class="imagelayer"/><g class="shapelayer"/></g><g class="infolayer"><g class="legend" pointer-events="all" transform="translate(987.8000000000001,100)"><rect class="bg" shape-rendering="crispEdges" width="113" height="48" x="0" y="0" style="stroke: rgb(68, 68, 68); stroke-opacity: 1; fill: rgb(255, 255, 255); fill-opacity: 1; stroke-width: 0px;"/><g class="scrollbox" transform="" clip-path="url(#legend9519ce)"><g class="groups"><g class="traces" transform="translate(0,14.5)" style="opacity: 1;"><text class="legendtext" text-anchor="start" x="40" y="4.680000000000001" style="font-family: 'Open Sans', verdana, arial, sans-serif; font-size: 12px; fill: rgb(68, 68, 68); fill-opacity: 1; white-space: pre;">Theoretical</text><g class="layers" style="opacity: 1;"><g class="legendfill"/><g class="legendlines"><path class="js-line" d="M5,0h30" style="fill: none; stroke: rgb(31, 119, 180); stroke-opacity: 1; stroke-width: 2px;"/></g><g class="legendsymbols"><g class="legendpoints"/></g></g><rect class="legendtoggle" x="0" y="-9.5" width="107.140625" height="19" style="fill: rgb(0, 0, 0); fill-opacity: 0;"/></g><g class="traces" transform="translate(0,33.5)" style="opacity: 1;"><text class="legendtext" text-anchor="start" x="40" y="4.680000000000001" style="font-family: 'Open Sans', verdana, arial, sans-serif; font-size: 12px; fill: rgb(68, 68, 68); fill-opacity: 1; white-space: pre;">Simulation</text><g class="layers" style="opacity: 1;"><g class="legendfill"/><g class="legendlines"><path class="js-line" d="M5,0h30" style="fill: none; stroke: rgb(255, 127, 14); stroke-opacity: 1; stroke-width: 2px;"/></g><g class="legendsymbols"><g class="legendpoints"/></g></g><rect class="legendtoggle" x="0" y="-9.5" width="107.140625" height="19" style="fill: rgb(0, 0, 0); fill-opacity: 0;"/></g></g></g><rect class="scrollbar" rx="20" ry="3" width="0" height="0" x="0" y="0" style="fill: rgb(128, 139, 164); fill-opacity: 1;"/></g><g class="g-gtitle"/><g class="g-xtitle"><text class="xtitle" x="525" y="440" text-anchor="middle" style="font-family: 'Open Sans', verdana, arial, sans-serif; font-size: 20px; fill: rgb(68, 68, 68); opacity: 1; font-weight: normal; white-space: pre;">Es/N0(dB)</text></g><g class="g-ytitle"><text class="ytitle" transform="rotate(-90,30,235)" x="30" y="235" text-anchor="middle" style="font-family: 'Open Sans', verdana, arial, sans-serif; font-size: 20px; fill: rgb(68, 68, 68); opacity: 1; font-weight: normal; white-space: pre;">SER</text></g></g></svg>