<svg class="main-svg" xmlns="http://www.w3.org/2000/svg" xmlns:xlink="http://www.w3.org/1999/xlink" width="1113" height="450" style="" viewBox="0 0 1113 450"><rect x="0" y="0" width="1113" height="450" style="fill: rgb(255, 255, 255); fill-opacity: 1;"/><defs id="defs-3d8874"><g class="clips"><clipPath id="clip3d8874xyplot" class="plotclip"><rect width="890" height="270"/></clipPath><clipPath class="axesclip" id="clip3d8874x"><rect x="80" y="0" width="890" height="450"/></clipPath><clipPath class="axesclip" id="clip3d8874y"><rect x="0" y="100" width="1113" height="270"/></clipPath><clipPath class="axesclip" id="clip3d8874xy"><rect x="80" y="100" width="890" height="270"/></clipPath></g><g class="gradients"/><g class="patterns"/></defs><g class="bglayer"/><g class="layer-below"><g class="imagelayer"/><g class="shapelayer"/></g><g class="cartesianlayer"><g class="subplot xy"><g class="layer-subplot"><g class="shapelayer"/><g class="imagelayer"/></g><g class="gridlayer"><g class="x"><path class="xgrid crisp" transform="translate(169,0)" d="M0,100v270" style="stroke: rgb(238, 238, 238); stroke-opacity: 1; stroke-width: 1px;"/><path class="xgrid crisp" transform="translate(258,0)" d="M0,100v270" style="stroke: rgb(238, 238, 238); stroke-opacity: 1; stroke-width: 1px;"/><path class="xgrid crisp" transform="translate(347,0)" d="M0,100v270" style="stroke: rgb(238, 238, 238); stroke-opacity: 1; stroke-width: 1px;"/><path class="xgrid crisp" transform="translate(436,0)" d="M0,100v270" style="stroke: rgb(238, 238, 238); stroke-opacity: 1; stroke-width: 1px;"/><path class="xgrid crisp" transform="translate(525,0)" d="M0,100v270" style="stroke: rgb(238, 238, 238); stroke-opacity: 1; stroke-width: 1px;"/><path class="xgrid crisp" transform="translate(614,0)" d="M0,100v270" style="stroke: rgb(238, 238, 238); stroke-opacity: 1; stroke-width: 1px;"/><path class="xgrid crisp" transform="translate(703,0)" d="M0,100v270" style="stroke: rgb(238, 238, 238); stroke-opacity: 1; stroke-width: 1px;"/><path class="xgrid crisp" transform="translate(792,0)" d="M0,100v270" style="stroke: rgb(238, 238, 238); stroke-opacity: 1; stroke-width: 1px;"/><path class="xgrid crisp" transform="translate(881,0)" d="M0,100v270" style="stroke: rgb(238, 238, 238); stroke-opacity: 1; stroke-width: 1px;"/></g><g class="y"><path class="ygrid crisp" transform="translate(0,333.28999999999996)" d="M80,0h890" style="stroke: rgb(238, 238, 238); stroke-opacity: 1; stroke-width: 1px;"/><path class="ygrid crisp" transform="translate(0,276.97)" d="M80,0h890" style="stroke: rgb(238, 238, 238); stroke-opacity: 1; stroke-width: 1px;"/><path class="ygrid crisp" transform="translate(0,220.65)" d="M80,0h890" style="stroke: rgb(238, 238, 238); stroke-opacity: 1; stroke-width: 1px;"/><path class="ygrid crisp" transform="translate(0,164.32999999999998)" d="M80,0h890" style="stroke: rgb(238, 238, 238); stroke-opacity: 1; stroke-width: 1px;"/><path class="ygrid crisp" transform="translate(0,108.01)" d="M80,0h890" style="stroke: rgb(238, 238, 238); stroke-opacity: 1; stroke-width: 1px;"/></g></g><g class="zerolinelayer"><path class="xzl zl crisp" transform="translate(80,0)" d="M0,100v270" style="stroke: rgb(68, 68, 68); stroke-opacity: 1; stroke-width: 1px;"/></g><path class="xlines-below"/><path class="ylines-below"/><g class="overlines-below"/><g class="xaxislayer-below"/><g class="yaxislayer-below"/><g class="overaxes-below"/><g class="plot" transform="translate(80,100)" clip-path="url(#clip3d8874xyplot)"><g class="scatterlayer mlayer"><g class="trace scatter trace7e461f" style="stroke-miterlimit: 2; opacity: 1;"><g class="fills"/><g class="errorbars"/><g class="lines"><path class="js-line" d="M0,13.89Q14.83,15.14 22.25,15.79C29.67,16.44 37.08,17.1 44.5,17.78C51.92,18.46 59.33,19.17 66.75,19.88C74.17,20.6 81.58,21.32 89,22.07C96.42,22.82 103.83,23.58 111.25,24.37C118.67,25.16 126.08,25.96 133.5,26.79C140.92,27.62 148.33,28.46 155.75,29.33C163.17,30.2 170.58,31.09 178,32C185.42,32.91 192.83,33.84 200.25,34.8C207.67,35.76 215.09,36.73 222.5,37.74C229.92,38.75 237.34,39.78 244.75,40.84C252.17,41.9 259.59,42.98 267,44.09C274.42,45.2 281.84,46.34 289.25,47.51C296.67,48.68 304.09,49.88 311.5,51.11C318.92,52.34 326.34,53.6 333.75,54.89C341.17,56.18 348.59,57.51 356,58.87C363.42,60.23 370.84,61.63 378.25,63.06C385.67,64.5 393.09,65.97 400.5,67.48C407.92,68.99 415.34,70.53 422.75,72.12C430.17,73.71 437.59,75.35 445,77.02C452.42,78.7 459.84,80.41 467.25,82.17C474.67,83.93 482.09,85.74 489.5,87.6C496.92,89.46 504.34,91.37 511.75,93.33C519.17,95.29 526.59,97.3 534,99.36C541.42,101.43 548.84,103.54 556.25,105.72C563.67,107.9 571.09,110.14 578.5,112.43C585.93,114.73 593.34,117.08 600.75,119.5C608.18,121.92 615.59,124.41 623,126.96C630.43,129.52 637.85,132.14 645.25,134.83C652.68,137.53 660.1,140.3 667.5,143.14C674.93,145.99 682.35,148.9 689.75,151.9C697.18,154.91 704.6,158 712,161.16C719.43,164.34 726.85,167.58 734.25,170.92C741.68,174.27 749.1,177.71 756.5,181.24C763.94,184.78 771.35,188.41 778.75,192.13C786.19,195.87 793.61,199.7 801,203.63C808.44,207.58 815.86,211.63 823.25,215.78C830.69,219.96 838.11,224.23 845.5,228.61C852.94,233.02 860.36,237.54 867.75,242.17Q875.2,246.84 890,256.5" style="vector-effect: non-scaling-stroke; fill: none; stroke: rgb(31, 119, 180); stroke-opacity: 1; stroke-width: 2px; opacity: 1;"/></g><g class="points"/><g class="text"/></g><g class="trace scatter traced86a65" style="stroke-miterlimit: 2; opacity: 1;"><g class="fills"/><g class="errorbars"/><g class="lines"><path class="js-line" d="M0,13.5Q14.82,15.85 22.25,16.53C29.65,17.21 37.09,17.13 44.5,17.59C51.92,18.05 59.34,18.59 66.75,19.31C74.17,20.03 81.59,20.91 89,21.89C96.42,22.87 103.81,24.67 111.25,25.21C118.65,25.75 126.11,24.56 133.5,25.16C140.94,25.76 148.32,27.72 155.75,28.83C163.16,29.94 170.57,31.15 178,31.81C185.4,32.47 192.85,32.12 200.25,32.8C207.68,33.48 215.13,34.38 222.5,35.88C229.97,37.4 237.29,40.28 244.75,41.92C252.13,43.55 259.56,44.81 267,45.72C274.4,46.63 281.84,46.65 289.25,47.38C296.68,48.11 304.13,48.71 311.5,50.09C318.96,51.49 326.29,54.35 333.75,55.75C341.12,57.14 348.66,56.84 356,58.49C363.5,60.18 370.8,63.64 378.25,65.85C385.63,68.04 393.06,70 400.5,71.7C407.89,73.39 415.3,75.24 422.75,76.02C430.13,76.8 437.6,75.78 445,76.42C452.44,77.06 459.9,78.16 467.25,79.86C474.73,81.59 482.09,84.42 489.5,86.74C496.92,89.06 504.25,92.33 511.75,93.78C519.09,95.2 526.73,93.7 534,95.47C541.57,97.32 549.23,100.33 556.25,104.95C564.16,110.15 571.03,125.99 578.5,126.11C585.86,126.23 593.75,105.49 600.75,106.28C608.7,107.18 614.26,133.1 623,137.61C629.65,141.04 637.83,137.61 645.25,137.61C652.67,137.61 661,133.82 667.5,137.61C676.77,143.02 681.21,175.21 689.75,176.97C696.47,178.35 704.58,160.02 712,160.02C719.42,160.02 727.33,162.99 734.25,176.97C831.26,372.83 470.44,5406.15 734.2931137733137,5670Q778.72,5714.42 890,5670" style="vector-effect: non-scaling-stroke; fill: none; stroke: rgb(255, 127, 14); stroke-opacity: 1; stroke-width: 2px; opacity: 1;"/></g><g class="points"/><g class="text"/></g></g></g><g class="overplot"/><path class="xlines-above crisp" d="M0,0" style="fill: none;"/><path class="ylines-above crisp" d="M0,0" style="fill: none;"/><g class="overlines-above"/><g class="xaxislayer-above"><g class="xtick"><text text-anchor="middle" x="0" y="383" transform="translate(80,0)" style="font-family: 'Open Sans', verdana, arial, sans-serif; font-size: 12px; fill: rgb(68, 68, 68); fill-opacity: 1; white-space: pre; opacity: 1;">0</text></g><g class="xtick"><text text-anchor="middle" x="0" y="383" style="font-family: 'Open Sans', verdana, arial, sans-serif; font-size: 12px; fill: rgb(68, 68, 68); fill-opacity: 1; white-space: pre; opacity: 1;" transform="translate(169,0)">1</text></g><g class="xtick"><text text-anchor="middle" x="0" y="383" style="font-family: 'Open Sans', verdana, arial, sans-serif; font-size: 12px; fill: rgb(68, 68, 68); fill-opacity: 1; white-space: pre; opacity: 1;" transform="translate(258,0)">2</text></g><g class="xtick"><text text-anchor="middle" x="0" y="383" style="font-family: 'Open Sans', verdana, arial, sans-serif; font-size: 12px; fill: rgb(68, 68, 68); fill-opacity: 1; white-space: pre; opacity: 1;" transform="translate(347,0)">3</text></g><g class="xtick"><text text-anchor="middle" x="0" y="383" style="font-family: 'Open Sans', verdana, arial, sans-serif; font-size: 12px; fill: rgb(68, 68, 68); fill-opacity: 1; white-space: pre; opacity: 1;" transform="translate(436,0)">4</text></g><g class="xtick"><text text-anchor="middle" x="0" y="383" style="font-family: 'Open Sans', verdana, arial, sans-serif; font-size: 12px; fill: rgb(68, 68, 68); fill-opacity: 1; white-space: pre; opacity: 1;" transform="translate(525,0)">5</text></g><g class="xtick"><text text-anchor="middle" x="0" y="383" style="font-family: 'Open Sans', verdana, arial, sans-serif; font-size: 12px; fill: rgb(68, 68, 68); fill-opacity: 1; white-space: pre; opacity: 1;" transform="translate(614,0)">6</text></g><g class="xtick"><text text-anchor="middle" x="0" y="383" style="font-family: 'Open Sans', verdana, arial, sans-serif; font-size: 12px; fill: rgb(68, 68, 68); fill-opacity: 1; white-space: pre; opacity: 1;" transform="translate(703,0)">7</text></g><g class="xtick"><text text-anchor="middle" x="0" y="383" style="font-family: 'Open Sans', verdana, arial, sans-serif; font-size: 12px; fill: rgb(68, 68, 68); fill-opacity: 1; white-space: pre; opacity: 1;" transform="translate(792,0)">8</text></g><g class="xtick"><text text-anchor="middle" x="0" y="383" style="font-family: 'Open Sans', verdana, arial, sans-serif; font-size: 12px; fill: rgb(68, 68, 68); fill-opacity: 1; white-space: pre; opacity: 1;" transform="translate(881,0)">9</text></g><g class="xtick"><text text-anchor="middle" x="0" y="383" style="font-family: 'Open Sans', verdana, arial, sans-serif; font-size: 12px; fill: rgb(68, 68, 68); fill-opacity: 1; white-space: pre; opacity: 1;" transform="translate(970,0)">10</text></g></g><g class="yaxislayer-above"><g class="ytick"><text text-anchor="end" x="79" y="5.25" transform="translate(0,333.28999999999996)" style="font-family: 'Open Sans', verdana, arial, sans-serif; font-size: 15px; fill: rgb(68, 68, 68); fill-opacity: 1; white-space: pre; opacity: 1;">10​<tspan style="font-size:70%" dy="-0.6em">−5</tspan><tspan dy="0.42em">​</tspan></text></g><g class="ytick"><text text-anchor="end" x="79" y="5.25" style="font-family: 'Open Sans', verdana, arial, sans-serif; font-size: 15px; fill: rgb(68, 68, 68); fill-opacity: 1; white-space: pre; opacity: 1;" transform="translate(0,276.97)">10​<tspan style="font-size:70%" dy="-0.6em">−4</tspan><tspan dy="0.42em">​</tspan></text></g><g class="ytick"><text text-anchor="end" x="79" y="5.25" style="font-family: 'Open Sans', verdana, arial, sans-serif; font-size: 15px; fill: rgb(68, 68, 68); fill-opacity: 1; white-space: pre; opacity: 1;" transform="translate(0,220.65)">10​<tspan style="font-size:70%" dy="-0.6em">−3</tspan><tspan dy="0.42em">​</tspan></text></g><g class="ytick"><text text-anchor="end" x="79" y="5.25" style="font-family: 'Open Sans', verdana, arial, sans-serif; font-size: 15px; fill: rgb(68, 68, 68); fill-opacity: 1; white-space: pre; opacity: 1;" transform="translate(0,164.32999999999998)">10​<tspan style="font-size:70%" dy="-0.6em">−2</tspan><tspan dy="0.42em">​</tspan></text></g><g class="ytick"><text text-anchor="end" x="79" y="5.25" style="font-family: 'Open Sans', verdana, arial, sans-serif; font-size: 15px; fill: rgb(68, 68, 68); fill-opacity: 1; white-space: pre; opacity: 1;" transform="translate(0,108.01)">10​<tspan style="font-size:70%" dy="-0.6em">−1</tspan><tspan dy="0.42em">​</tspan></text></g></g><g class="overaxes-above"/></g></g><g class="polarlayer"/><g class="ternarylayer"/><g class="geolayer"/><g class="funnelarealayer"/><g class="pielayer"/><g class="iciclelayer"/><g class="treemaplayer"/><g class="sunburstlayer"/><g class="glimages"/><defs id="topdefs-3d8874"><g class="clips"/><clipPath id="legend3d8874"><rect width="113" height="48" x="0" y="0"/></clipPath></defs><g class="layer-above"><g class="imagelayer"/><g class="shapelayer"/></g><g class="infolayer"><g class="legend" pointer-events="all" transform="translate(987.8000000000001,100)"><rect class="bg" shape-rendering="crispEdges" width="113" height="48" x="0" y="0" style="stroke: rgb(68, 68, 68); stroke-opacity: 1; fill: rgb(255, 255, 255); fill-opacity: 1; stroke-width: 0px;"/><g class="scrollbox" transform="" clip-path="url(#legend3d8874)"><g class="groups"><g class="traces" transform="translate(0,14.5)" style="opacity: 1;"><text class="legendtext" text-anchor="start" x="40" y="4.680000000000001" style="font-family: 'Open Sans', verdana, arial, sans-serif; font-size: 12px; fill: rgb(68, 68, 68); fill-opacity: 1; white-space: pre;">Theoretical</text><g class="layers" style="opacity: 1;"><g class="legendfill"/><g class="legendlines"><path class="js-line" d="M5,0h30" style="fill: none; stroke: rgb(31, 119, 180); stroke-opacity: 1; stroke-width: 2px;"/></g><g class="legendsymbols"><g class="legendpoints"/></g></g><rect class="legendtoggle" x="0" y="-9.5" width="107.140625" height="19" style="fill: rgb(0, 0, 0); fill-opacity: 0;"/></g><g class="traces" transform="translate(0,33.5)" style="opacity: 1;"><text class="legendtext" text-anchor="start" x="40" y="4.680000000000001" style="font-family: 'Open Sans', verdana, arial, sans-serif; font-size: 12px; fill: rgb(68, 68, 68); fill-opacity: 1; white-space: pre;">Simulation</text><g class="layers" style="opacity: 1;"><g class="legendfill"/><g class="legendlines"><path class="js-line" d="M5,0h30" style="fill: none; stroke: rgb(255, 127, 14); stroke-opacity: 1; stroke-width: 2px;"/></g><g class="legendsymbols"><g class="legendpoints"/></g></g><rect class="legendtoggle" x="0" y="-9.5" width="107.140625" height="19" style="fill: rgb(0, 0, 0); fill-opacity: 0;"/></g></g></g><rect class="scrollbar" rx="20" ry="3" width="0" height="0" x="0" y="0" style="fill: rgb(128, 139, 164); fill-opacity: 1;"/></g><g class="g-gtitle"/><g class="g-xtitle"><text class="xtitle" x="525" y="440" text-anchor="middle" style="font-family: 'Open Sans', verdana, arial, sans-serif; font-size: 20px; fill: rgb(68, 68, 68); opacity: 1; font-weight: normal; white-space: pre;">Es/N0(dB)</text></g><g class="g-ytitle"><text class="ytitle" transform="rotate(-90,30,235)" x="30" y="235" text-anchor="middle" style="font-family: 'Open Sans', verdana, arial, sans-serif; font-size: 20px; fill: rgb(68, 68, 68); opacity: 1; font-weight: normal; white-space: pre;">SER</text></g></g></svg>