<svg class="main-svg" xmlns="http://www.w3.org/2000/svg" xmlns:xlink="http://www.w3.org/1999/xlink" width="1113" height="450" style="" viewBox="0 0 1113 450"><rect x="0" y="0" width="1113" height="450" style="fill: rgb(255, 255, 255); fill-opacity: 1;"/><defs id="defs-a2b02b"><g class="clips"><clipPath id="clipa2b02bxyplot" class="plotclip"><rect width="890" height="270"/></clipPath><clipPath class="axesclip" id="clipa2b02bx"><rect x="80" y="0" width="890" height="450"/></clipPath><clipPath class="axesclip" id="clipa2b02by"><rect x="0" y="100" width="1113" height="270"/></clipPath><clipPath class="axesclip" id="clipa2b02bxy"><rect x="80" y="100" width="890" height="270"/></clipPath></g><g class="gradients"/><g class="patterns"/></defs><g class="bglayer"/><g class="layer-below"><g class="imagelayer"/><g class="shapelayer"/></g><g class="cartesianlayer"><g class="subplot xy"><g class="layer-subplot"><g class="shapelayer"/><g class="imagelayer"/></g><g class="gridlayer"><g class="x"><path class="xgrid crisp" transform="translate(169,0)" d="M0,100v270" style="stroke: rgb(238, 238, 238); stroke-opacity: 1; stroke-width: 1px;"/><path class="xgrid crisp" transform="translate(258,0)" d="M0,100v270" style="stroke: rgb(238, 238, 238); stroke-opacity: 1; stroke-width: 1px;"/><path class="xgrid crisp" transform="translate(347,0)" d="M0,100v270" style="stroke: rgb(238, 238, 238); stroke-opacity: 1; stroke-width: 1px;"/><path class="xgrid crisp" transform="translate(436,0)" d="M0,100v270" style="stroke: rgb(238, 238, 238); stroke-opacity: 1; stroke-width: 1px;"/><path class="xgrid crisp" transform="translate(525,0)" d="M0,100v270" style="stroke: rgb(238, 238, 238); stroke-opacity: 1; stroke-width: 1px;"/><path class="xgrid crisp" transform="translate(614,0)" d="M0,100v270" style="stroke: rgb(238, 238, 238); stroke-opacity: 1; stroke-width: 1px;"/><path class="xgrid crisp" transform="translate(703,0)" d="M0,100v270" style="stroke: rgb(238, 238, 238); stroke-opacity: 1; stroke-width: 1px;"/><path class="xgrid crisp" transform="translate(792,0)" d="M0,100v270" style="stroke: rgb(238, 238, 238); stroke-opacity: 1; stroke-width: 1px;"/><path class="xgrid crisp" transform="translate(881,0)" d="M0,100v270" style="stroke: rgb(238, 238, 238); stroke-opacity: 1; stroke-width: 1px;"/></g><g class="y"/></g><g class="zerolinelayer"><path class="xzl zl crisp" transform="translate(80,0)" d="M0,100v270" style="stroke: rgb(68, 68, 68); stroke-opacity: 1; stroke-width: 1px;"/></g><path class="xlines-below"/><path class="ylines-below"/><g class="overlines-below"/><g class="xaxislayer-below"/><g class="yaxislayer-below"/><g class="overaxes-below"/><g class="plot" transform="translate(80,100)" clip-path="url(#clipa2b02bxyplot)"><g class="scatterlayer mlayer"><g class="trace scatter trace4027da" style="stroke-miterlimit: 2; opacity: 1;"><g class="fills"/><g class="errorbars"/><g class="lines"><path class="js-line" d="M0,13.5Q14.83,15.42 22.25,16.4C29.67,17.38 37.08,18.37 44.5,19.38C51.92,20.39 59.33,21.42 66.75,22.47C74.17,23.52 81.58,24.58 89,25.66C96.42,26.74 103.83,27.84 111.25,28.95C118.67,30.06 126.08,31.19 133.5,32.34C140.92,33.49 148.33,34.66 155.75,35.85C163.17,37.04 170.58,38.25 178,39.48C185.42,40.71 192.84,41.95 200.25,43.22C207.67,44.49 215.09,45.78 222.5,47.09C229.92,48.4 237.34,49.74 244.75,51.09C252.17,52.45 259.59,53.82 267,55.22C274.42,56.62 281.84,58.04 289.25,59.49C296.67,60.94 304.09,62.41 311.5,63.9C318.92,65.4 326.34,66.91 333.75,68.46C341.17,70.01 348.59,71.58 356,73.18C363.42,74.78 370.84,76.4 378.25,78.05C385.67,79.7 393.09,81.38 400.5,83.09C407.92,84.8 415.34,86.54 422.75,88.31C430.17,90.08 437.59,91.87 445,93.7C452.42,95.53 459.84,97.39 467.25,99.28C474.67,101.17 482.09,103.09 489.5,105.05C496.92,107.01 504.34,109 511.75,111.02C519.17,113.05 526.59,115.11 534,117.2C541.42,119.3 548.84,121.42 556.25,123.59C563.67,125.76 571.09,127.97 578.5,130.21C585.92,132.46 593.34,134.74 600.75,137.06C608.17,139.39 615.59,141.75 623,144.16C630.42,146.57 637.84,149.02 645.25,151.51C652.67,154.01 660.09,156.54 667.5,159.12C674.92,161.7 682.34,164.33 689.75,167C697.17,169.68 704.59,172.4 712,175.17C719.42,177.95 726.84,180.77 734.25,183.64C741.68,186.52 749.09,189.45 756.5,192.42C763.93,195.4 771.34,198.43 778.75,201.51C786.18,204.6 793.59,207.74 801,210.94C808.43,214.15 815.84,217.4 823.25,220.72C830.68,224.05 838.1,227.43 845.5,230.87C852.93,234.32 860.35,237.82 867.75,241.39Q875.18,244.97 890,252.31" style="vector-effect: non-scaling-stroke; fill: none; stroke: rgb(31, 119, 180); stroke-opacity: 1; stroke-width: 2px; opacity: 1;"/></g><g class="points"/><g class="text"/></g><g class="trace scatter tracea9bce7" style="stroke-miterlimit: 2; opacity: 1;"><g class="fills"/><g class="errorbars"/><g class="lines"><path class="js-line" d="M0,15.62Q14.85,17.19 22.25,18.24C29.68,19.29 37.06,21.04 44.5,21.91C51.9,22.78 59.35,22.62 66.75,23.46C74.19,24.31 81.59,25.72 89,26.99C96.42,28.26 103.8,30.42 111.25,31.07C118.64,31.71 126.18,29.72 133.5,30.88C141.02,32.07 148.24,36.75 155.75,38.3C163.08,39.81 170.59,39.4 178,40.21C185.43,41.02 192.85,41.98 200.25,43.18C207.68,44.39 215.07,46.14 222.5,47.45C229.91,48.75 237.33,49.92 244.75,51.01C252.16,52.1 259.64,52.41 267,53.97C274.48,55.55 281.78,58.8 289.25,60.5C296.62,62.17 304.11,62.65 311.5,64.12C318.94,65.6 326.32,67.76 333.75,69.38C341.15,71 348.61,72.11 356,73.84C363.44,75.58 370.78,78.45 378.25,79.78C385.61,81.09 393.18,80.21 400.5,81.81C408.02,83.46 415.25,87.71 422.75,89.68C430.09,91.61 437.63,91.88 445,93.61C452.47,95.36 459.82,98.08 467.25,100.15C474.65,102.21 482.03,104.57 489.5,105.99C496.87,107.39 504.44,106.86 511.75,108.65C519.28,110.5 526.59,114.22 534,117.09C541.43,119.97 548.72,123.82 556.25,125.89C563.56,127.9 571.23,127.26 578.5,129.47C586.08,131.77 593.17,137.36 600.75,139.66C608.02,141.87 615.68,141.3 623,143.26C630.52,145.27 637.82,148.94 645.25,151.69C652.66,154.44 660.08,157.09 667.5,159.76C674.91,162.43 682.27,165.51 689.75,167.7C697.1,169.85 704.74,170.21 712,172.84C719.59,175.59 726.77,180.64 734.25,184.08C741.6,187.46 749.1,190.16 756.5,193.31C763.93,196.48 771.24,200.33 778.75,203.05C786.08,205.71 793.65,206.96 801,209.53C808.49,212.15 815.83,215.66 823.25,218.67C830.66,221.68 838.23,223.94 845.5,227.59C853.08,231.4 860.39,236.47 867.75,241.24Q875.23,246.09 890,256.5" style="vector-effect: non-scaling-stroke; fill: none; stroke: rgb(255, 127, 14); stroke-opacity: 1; stroke-width: 2px; opacity: 1;"/></g><g class="points"/><g class="text"/></g></g></g><g class="overplot"/><path class="xlines-above crisp" d="M0,0" style="fill: none;"/><path class="ylines-above crisp" d="M0,0" style="fill: none;"/><g class="overlines-above"/><g class="xaxislayer-above"><g class="xtick"><text text-anchor="middle" x="0" y="383" transform="translate(80,0)" style="font-family: 'Open Sans', verdana, arial, sans-serif; font-size: 12px; fill: rgb(68, 68, 68); fill-opacity: 1; white-space: pre; opacity: 1;">0</text></g><g class="xtick"><text text-anchor="middle" x="0" y="383" style="font-family: 'Open Sans', verdana, arial, sans-serif; font-size: 12px; fill: rgb(68, 68, 68); fill-opacity: 1; white-space: pre; opacity: 1;" transform="translate(169,0)">1</text></g><g class="xtick"><text text-anchor="middle" x="0" y="383" style="font-family: 'Open Sans', verdana, arial, sans-serif; font-size: 12px; fill: rgb(68, 68, 68); fill-opacity: 1; white-space: pre; opacity: 1;" transform="translate(258,0)">2</text></g><g class="xtick"><text text-anchor="middle" x="0" y="383" style="font-family: 'Open Sans', verdana, arial, sans-serif; font-size: 12px; fill: rgb(68, 68, 68); fill-opacity: 1; white-space: pre; opacity: 1;" transform="translate(347,0)">3</text></g><g class="xtick"><text text-anchor="middle" x="0" y="383" style="font-family: 'Open Sans', verdana, arial, sans-serif; font-size: 12px; fill: rgb(68, 68, 68); fill-opacity: 1; white-space: pre; opacity: 1;" transform="translate(436,0)">4</text></g><g class="xtick"><text text-anchor="middle" x="0" y="383" style="font-family: 'Open Sans', verdana, arial, sans-serif; font-size: 12px; fill: rgb(68, 68, 68); fill-opacity: 1; white-space: pre; opacity: 1;" transform="translate(525,0)">5</text></g><g class="xtick"><text text-anchor="middle" x="0" y="383" style="font-family: 'Open Sans', verdana, arial, sans-serif; font-size: 12px; fill: rgb(68, 68, 68); fill-opacity: 1; white-space: pre; opacity: 1;" transform="translate(614,0)">6</text></g><g class="xtick"><text text-anchor="middle" x="0" y="383" style="font-family: 'Open Sans', verdana, arial, sans-serif; font-size: 12px; fill: rgb(68, 68, 68); fill-opacity: 1; white-space: pre; opacity: 1;" transform="translate(703,0)">7</text></g><g class="xtick"><text text-anchor="middle" x="0" y="383" style="font-family: 'Open Sans', verdana, arial, sans-serif; font-size: 12px; fill: rgb(68, 68, 68); fill-opacity: 1; white-space: pre; opacity: 1;" transform="translate(792,0)">8</text></g><g class="xtick"><text text-anchor="middle" x="0" y="383" style="font-family: 'Open Sans', verdana, arial, sans-serif; font-size: 12px; fill: rgb(68, 68, 68); fill-opacity: 1; white-space: pre; opacity: 1;" transform="translate(881,0)">9</text></g><g class="xtick"><text text-anchor="middle" x="0" y="383" style="font-family: 'Open Sans', verdana, arial, sans-serif; font-size: 12px; fill: rgb(68, 68, 68); fill-opacity: 1; white-space: pre; opacity: 1;" transform="translate(970,0)">10</text></g></g><g class="yaxislayer-above"/><g class="overaxes-above"/></g></g><g class="polarlayer"/><g class="ternarylayer"/><g class="geolayer"/><g class="funnelarealayer"/><g class="pielayer"/><g class="iciclelayer"/><g class="treemaplayer"/><g class="sunburstlayer"/><g class="glimages"/><defs id="topdefs-a2b02b"><g class="clips"/><clipPath id="legenda2b02b"><rect width="113" height="48" x="0" y="0"/></clipPath></defs><g class="layer-above"><g class="imagelayer"/><g class="shapelayer"/></g><g class="infolayer"><g class="legend" pointer-events="all" transform="translate(987.8000000000001,100)"><rect class="bg" shape-rendering="crispEdges" width="113" height="48" x="0" y="0" style="stroke: rgb(68, 68, 68); stroke-opacity: 1; fill: rgb(255, 255, 255); fill-opacity: 1; stroke-width: 0px;"/><g class="scrollbox" transform="" clip-path="url(#legenda2b02b)"><g class="groups"><g class="traces" transform="translate(0,14.5)" style="opacity: 1;"><text class="legendtext" text-anchor="start" x="40" y="4.680000000000001" style="font-family: 'Open Sans', verdana, arial, sans-serif; font-size: 12px; fill: rgb(68, 68, 68); fill-opacity: 1; white-space: pre;">Theoretical</text><g class="layers" style="opacity: 1;"><g class="legendfill"/><g class="legendlines"><path class="js-line" d="M5,0h30" style="fill: none; stroke: rgb(31, 119, 180); stroke-opacity: 1; stroke-width: 2px;"/></g><g class="legendsymbols"><g class="legendpoints"/></g></g><rect class="legendtoggle" x="0" y="-9.5" width="107.140625" height="19" style="fill: rgb(0, 0, 0); fill-opacity: 0;"/></g><g class="traces" transform="translate(0,33.5)" style="opacity: 1;"><text class="legendtext" text-anchor="start" x="40" y="4.680000000000001" style="font-family: 'Open Sans', verdana, arial, sans-serif; font-size: 12px; fill: rgb(68, 68, 68); fill-opacity: 1; white-space: pre;">Simulation</text><g class="layers" style="opacity: 1;"><g class="legendfill"/><g class="legendlines"><path class="js-line" d="M5,0h30" style="fill: none; stroke: rgb(255, 127, 14); stroke-opacity: 1; stroke-width: 2px;"/></g><g class="legendsymbols"><g class="legendpoints"/></g></g><rect class="legendtoggle" x="0" y="-9.5" width="107.140625" height="19" style="fill: rgb(0, 0, 0); fill-opacity: 0;"/></g></g></g><rect class="scrollbar" rx="20" ry="3" width="0" height="0" x="0" y="0" style="fill: rgb(128, 139, 164); fill-opacity: 1;"/></g><g class="g-gtitle"/><g class="g-xtitle"><text class="xtitle" x="525" y="440" text-anchor="middle" style="font-family: 'Open Sans', verdana, arial, sans-serif; font-size: 20px; fill: rgb(68, 68, 68); opacity: 1; font-weight: normal; white-space: pre;">Es/N0(dB)</text></g><g class="g-ytitle"><text class="ytitle" transform="rotate(-90,30,235)" x="30" y="235" text-anchor="middle" style="font-family: 'Open Sans', verdana, arial, sans-serif; font-size: 20px; fill: rgb(68, 68, 68); opacity: 1; font-weight: normal; white-space: pre;">SER</text></g></g></svg>