<svg class="main-svg" xmlns="http://www.w3.org/2000/svg" xmlns:xlink="http://www.w3.org/1999/xlink" width="1113" height="450" style="" viewBox="0 0 1113 450"><rect x="0" y="0" width="1113" height="450" style="fill: rgb(255, 255, 255); fill-opacity: 1;"/><defs id="defs-9b98a8"><g class="clips"><clipPath id="clip9b98a8xyplot" class="plotclip"><rect width="890" height="270"/></clipPath><clipPath class="axesclip" id="clip9b98a8x"><rect x="80" y="0" width="890" height="450"/></clipPath><clipPath class="axesclip" id="clip9b98a8y"><rect x="0" y="100" width="1113" height="270"/></clipPath><clipPath class="axesclip" id="clip9b98a8xy"><rect x="80" y="100" width="890" height="270"/></clipPath></g><g class="gradients"/><g class="patterns"/></defs><g class="bglayer"/><g class="layer-below"><g class="imagelayer"/><g class="shapelayer"/></g><g class="cartesianlayer"><g class="subplot xy"><g class="layer-subplot"><g class="shapelayer"/><g class="imagelayer"/></g><g class="gridlayer"><g class="x"><path class="xgrid crisp" transform="translate(169,0)" d="M0,100v270" style="stroke: rgb(238, 238, 238); stroke-opacity: 1; stroke-width: 1px;"/><path class="xgrid crisp" transform="translate(258,0)" d="M0,100v270" style="stroke: rgb(238, 238, 238); stroke-opacity: 1; stroke-width: 1px;"/><path class="xgrid crisp" transform="translate(347,0)" d="M0,100v270" style="stroke: rgb(238, 238, 238); stroke-opacity: 1; stroke-width: 1px;"/><path class="xgrid crisp" transform="translate(436,0)" d="M0,100v270" style="stroke: rgb(238, 238, 238); stroke-opacity: 1; stroke-width: 1px;"/><path class="xgrid crisp" transform="translate(525,0)" d="M0,100v270" style="stroke: rgb(238, 238, 238); stroke-opacity: 1; stroke-width: 1px;"/><path class="xgrid crisp" transform="translate(614,0)" d="M0,100v270" style="stroke: rgb(238, 238, 238); stroke-opacity: 1; stroke-width: 1px;"/><path class="xgrid crisp" transform="translate(703,0)" d="M0,100v270" style="stroke: rgb(238, 238, 238); stroke-opacity: 1; stroke-width: 1px;"/><path class="xgrid crisp" transform="translate(792,0)" d="M0,100v270" style="stroke: rgb(238, 238, 238); stroke-opacity: 1; stroke-width: 1px;"/><path class="xgrid crisp" transform="translate(881,0)" d="M0,100v270" style="stroke: rgb(238, 238, 238); stroke-opacity: 1; stroke-width: 1px;"/></g><g class="y"><path class="ygrid crisp" transform="translate(0,338.8)" d="M80,0h890" style="stroke: rgb(238, 238, 238); stroke-opacity: 1; stroke-width: 1px;"/></g></g><g class="zerolinelayer"><path class="xzl zl crisp" transform="translate(80,0)" d="M0,100v270" style="stroke: rgb(68, 68, 68); stroke-opacity: 1; stroke-width: 1px;"/></g><path class="xlines-below"/><path class="ylines-below"/><g class="overlines-below"/><g class="xaxislayer-below"/><g class="yaxislayer-below"/><g class="overaxes-below"/><g class="plot" transform="translate(80,100)" clip-path="url(#clip9b98a8xyplot)"><g class="scatterlayer mlayer"><g class="trace scatter tracec7cf50" style="stroke-miterlimit: 2; opacity: 1;"><g class="fills"/><g class="errorbars"/><g class="lines"><path class="js-line" d="M0,13.5Q14.83,15.07 22.25,15.87C29.67,16.67 37.08,17.49 44.5,18.32C51.92,19.16 59.33,20.01 66.75,20.88C74.17,21.75 81.58,22.64 89,23.54C96.42,24.45 103.83,25.37 111.25,26.31C118.67,27.25 126.08,28.2 133.5,29.18C140.92,30.16 148.33,31.16 155.75,32.18C163.17,33.2 170.58,34.24 178,35.3C185.42,36.36 192.83,37.45 200.25,38.55C207.67,39.66 215.09,40.78 222.5,41.93C229.92,43.08 237.34,44.25 244.75,45.45C252.17,46.65 259.59,47.87 267,49.12C274.42,50.37 281.84,51.65 289.25,52.95C296.67,54.25 304.09,55.58 311.5,56.94C318.92,58.3 326.34,59.68 333.75,61.1C341.17,62.52 348.59,63.96 356,65.44C363.42,66.92 370.84,68.43 378.25,69.97C385.67,71.51 393.09,73.09 400.5,74.7C407.92,76.31 415.34,77.95 422.75,79.63C430.17,81.31 437.59,83.03 445,84.78C452.42,86.54 459.84,88.33 467.25,90.16C474.67,92 482.09,93.87 489.5,95.79C496.92,97.71 504.34,99.66 511.75,101.66C519.17,103.66 526.59,105.72 534,107.81C541.42,109.91 548.84,112.04 556.25,114.23C563.67,116.42 571.09,118.66 578.5,120.95C585.92,123.24 593.34,125.58 600.75,127.97C608.17,130.37 615.59,132.82 623,135.33C630.43,137.84 637.84,140.41 645.25,143.03C652.68,145.66 660.09,148.34 667.5,151.09C674.93,153.84 682.34,156.65 689.75,159.53C697.18,162.42 704.6,165.37 712,168.38C719.43,171.4 726.85,174.49 734.25,177.65C741.68,180.82 749.1,184.05 756.5,187.36C763.93,190.68 771.35,194.08 778.75,197.55C786.18,201.04 793.6,204.59 801,208.23C808.43,211.89 815.85,215.62 823.25,219.44C830.69,223.28 838.1,227.19 845.5,231.2C852.94,235.23 860.36,239.34 867.75,243.54Q875.19,247.77 890,256.5" style="vector-effect: non-scaling-stroke; fill: none; stroke: rgb(31, 119, 180); stroke-opacity: 1; stroke-width: 2px; opacity: 1;"/></g><g class="points"/><g class="text"/></g><g class="trace scatter trace9d93bf" style="stroke-miterlimit: 2; opacity: 1;"><g class="fills"/><g class="errorbars"/><g class="lines"><path class="js-line" d="M0,15.99Q14.84,17.23 22.25,18.04C29.67,18.85 37.08,20.03 44.5,20.84C51.91,21.65 59.34,22.16 66.75,22.92C74.17,23.68 81.58,24.54 89,25.38C96.42,26.23 103.83,27.22 111.25,27.99C118.66,28.76 126.1,29.06 133.5,29.98C140.93,30.9 148.33,32.38 155.75,33.51C163.16,34.63 170.58,35.65 178,36.73C185.42,37.81 192.83,38.93 200.25,40.01C207.67,41.09 215.08,42.18 222.5,43.19C229.91,44.19 237.35,44.85 244.75,46.04C252.19,47.24 259.57,49.05 267,50.38C274.41,51.7 281.83,52.82 289.25,53.99C296.66,55.16 304.1,56.02 311.5,57.38C318.94,58.75 326.32,60.68 333.75,62.19C341.16,63.69 348.58,65.03 356,66.4C363.41,67.76 370.83,69.04 378.25,70.38C385.67,71.72 393.11,72.85 400.5,74.46C407.94,76.08 415.31,78.37 422.75,80.07C430.15,81.76 437.6,82.93 445,84.61C452.44,86.3 459.81,88.56 467.25,90.17C474.64,91.77 482.15,92.33 489.5,94.25C496.99,96.21 504.28,99.7 511.75,101.88C519.12,104.04 526.61,105.3 534,107.3C541.44,109.31 548.83,111.71 556.25,113.91C563.67,116.11 571.09,118.27 578.5,120.52C585.92,122.77 593.37,124.9 600.75,127.41C608.2,129.94 615.59,132.88 623,135.66C630.42,138.45 637.82,141.38 645.25,144.13C652.65,146.87 660.07,149.55 667.5,152.15C674.91,154.75 682.33,157.2 689.75,159.73C697.17,162.26 704.65,164.46 712,167.33C719.48,170.25 726.88,173.67 734.25,177.16C741.71,180.69 749,185.07 756.5,188.39C763.83,191.63 771.41,193.68 778.75,196.89C786.25,200.17 793.59,204.2 801,207.93C808.43,211.67 815.84,215.49 823.25,219.29C830.67,223.1 838.11,226.83 845.5,230.75C852.94,234.7 860.34,238.81 867.75,242.91Q875.18,247.02 890,255.4" style="vector-effect: non-scaling-stroke; fill: none; stroke: rgb(255, 127, 14); stroke-opacity: 1; stroke-width: 2px; opacity: 1;"/></g><g class="points"/><g class="text"/></g></g></g><g class="overplot"/><path class="xlines-above crisp" d="M0,0" style="fill: none;"/><path class="ylines-above crisp" d="M0,0" style="fill: none;"/><g class="overlines-above"/><g class="xaxislayer-above"><g class="xtick"><text text-anchor="middle" x="0" y="383" transform="translate(80,0)" style="font-family: 'Open Sans', verdana, arial, sans-serif; font-size: 12px; fill: rgb(68, 68, 68); fill-opacity: 1; white-space: pre; opacity: 1;">0</text></g><g class="xtick"><text text-anchor="middle" x="0" y="383" style="font-family: 'Open Sans', verdana, arial, sans-serif; font-size: 12px; fill: rgb(68, 68, 68); fill-opacity: 1; white-space: pre; opacity: 1;" transform="translate(169,0)">1</text></g><g class="xtick"><text text-anchor="middle" x="0" y="383" style="font-family: 'Open Sans', verdana, arial, sans-serif; font-size: 12px; fill: rgb(68, 68, 68); fill-opacity: 1; white-space: pre; opacity: 1;" transform="translate(258,0)">2</text></g><g class="xtick"><text text-anchor="middle" x="0" y="383" style="font-family: 'Open Sans', verdana, arial, sans-serif; font-size: 12px; fill: rgb(68, 68, 68); fill-opacity: 1; white-space: pre; opacity: 1;" transform="translate(347,0)">3</text></g><g class="xtick"><text text-anchor="middle" x="0" y="383" style="font-family: 'Open Sans', verdana, arial, sans-serif; font-size: 12px; fill: rgb(68, 68, 68); fill-opacity: 1; white-space: pre; opacity: 1;" transform="translate(436,0)">4</text></g><g class="xtick"><text text-anchor="middle" x="0" y="383" style="font-family: 'Open Sans', verdana, arial, sans-serif; font-size: 12px; fill: rgb(68, 68, 68); fill-opacity: 1; white-space: pre; opacity: 1;" transform="translate(525,0)">5</text></g><g class="xtick"><text text-anchor="middle" x="0" y="383" style="font-family: 'Open Sans', verdana, arial, sans-serif; font-size: 12px; fill: rgb(68, 68, 68); fill-opacity: 1; white-space: pre; opacity: 1;" transform="translate(614,0)">6</text></g><g class="xtick"><text text-anchor="middle" x="0" y="383" style="font-family: 'Open Sans', verdana, arial, sans-serif; font-size: 12px; fill: rgb(68, 68, 68); fill-opacity: 1; white-space: pre; opacity: 1;" transform="translate(703,0)">7</text></g><g class="xtick"><text text-anchor="middle" x="0" y="383" style="font-family: 'Open Sans', verdana, arial, sans-serif; font-size: 12px; fill: rgb(68, 68, 68); fill-opacity: 1; white-space: pre; opacity: 1;" transform="translate(792,0)">8</text></g><g class="xtick"><text text-anchor="middle" x="0" y="383" style="font-family: 'Open Sans', verdana, arial, sans-serif; font-size: 12px; fill: rgb(68, 68, 68); fill-opacity: 1; white-space: pre; opacity: 1;" transform="translate(881,0)">9</text></g><g class="xtick"><text text-anchor="middle" x="0" y="383" style="font-family: 'Open Sans', verdana, arial, sans-serif; font-size: 12px; fill: rgb(68, 68, 68); fill-opacity: 1; white-space: pre; opacity: 1;" transform="translate(970,0)">10</text></g></g><g class="yaxislayer-above"><g class="ytick"><text text-anchor="end" x="79" y="5.25" transform="translate(0,338.8)" style="font-family: 'Open Sans', verdana, arial, sans-serif; font-size: 15px; fill: rgb(68, 68, 68); fill-opacity: 1; white-space: pre; opacity: 1;">10​<tspan style="font-size:70%" dy="-0.6em">−1</tspan><tspan dy="0.42em">​</tspan></text></g></g><g class="overaxes-above"/></g></g><g class="polarlayer"/><g class="ternarylayer"/><g class="geolayer"/><g class="funnelarealayer"/><g class="pielayer"/><g class="iciclelayer"/><g class="treemaplayer"/><g class="sunburstlayer"/><g class="glimages"/><defs id="topdefs-9b98a8"><g class="clips"/><clipPath id="legend9b98a8"><rect width="113" height="48" x="0" y="0"/></clipPath></defs><g class="layer-above"><g class="imagelayer"/><g class="shapelayer"/></g><g class="infolayer"><g class="legend" pointer-events="all" transform="translate(987.8000000000001,100)"><rect class="bg" shape-rendering="crispEdges" width="113" height="48" x="0" y="0" style="stroke: rgb(68, 68, 68); stroke-opacity: 1; fill: rgb(255, 255, 255); fill-opacity: 1; stroke-width: 0px;"/><g class="scrollbox" transform="" clip-path="url(#legend9b98a8)"><g class="groups"><g class="traces" transform="translate(0,14.5)" style="opacity: 1;"><text class="legendtext" text-anchor="start" x="40" y="4.680000000000001" style="font-family: 'Open Sans', verdana, arial, sans-serif; font-size: 12px; fill: rgb(68, 68, 68); fill-opacity: 1; white-space: pre;">Theoretical</text><g class="layers" style="opacity: 1;"><g class="legendfill"/><g class="legendlines"><path class="js-line" d="M5,0h30" style="fill: none; stroke: rgb(31, 119, 180); stroke-opacity: 1; stroke-width: 2px;"/></g><g class="legendsymbols"><g class="legendpoints"/></g></g><rect class="legendtoggle" x="0" y="-9.5" width="107.140625" height="19" style="fill: rgb(0, 0, 0); fill-opacity: 0;"/></g><g class="traces" transform="translate(0,33.5)" style="opacity: 1;"><text class="legendtext" text-anchor="start" x="40" y="4.680000000000001" style="font-family: 'Open Sans', verdana, arial, sans-serif; font-size: 12px; fill: rgb(68, 68, 68); fill-opacity: 1; white-space: pre;">Simulation</text><g class="layers" style="opacity: 1;"><g class="legendfill"/><g class="legendlines"><path class="js-line" d="M5,0h30" style="fill: none; stroke: rgb(255, 127, 14); stroke-opacity: 1; stroke-width: 2px;"/></g><g class="legendsymbols"><g class="legendpoints"/></g></g><rect class="legendtoggle" x="0" y="-9.5" width="107.140625" height="19" style="fill: rgb(0, 0, 0); fill-opacity: 0;"/></g></g></g><rect class="scrollbar" rx="20" ry="3" width="0" height="0" x="0" y="0" style="fill: rgb(128, 139, 164); fill-opacity: 1;"/></g><g class="g-gtitle"/><g class="g-xtitle"><text class="xtitle" x="525" y="440" text-anchor="middle" style="font-family: 'Open Sans', verdana, arial, sans-serif; font-size: 20px; fill: rgb(68, 68, 68); opacity: 1; font-weight: normal; white-space: pre;">Es/N0(dB)</text></g><g class="g-ytitle"><text class="ytitle" transform="rotate(-90,30,235)" x="30" y="235" text-anchor="middle" style="font-family: 'Open Sans', verdana, arial, sans-serif; font-size: 20px; fill: rgb(68, 68, 68); opacity: 1; font-weight: normal; white-space: pre;">SER</text></g></g></svg>