<svg class="main-svg" xmlns="http://www.w3.org/2000/svg" xmlns:xlink="http://www.w3.org/1999/xlink" width="1113" height="450" style="" viewBox="0 0 1113 450"><rect x="0" y="0" width="1113" height="450" style="fill: rgb(255, 255, 255); fill-opacity: 1;"/><defs id="defs-08584f"><g class="clips"><clipPath id="clip08584fxyplot" class="plotclip"><rect width="890" height="270"/></clipPath><clipPath class="axesclip" id="clip08584fx"><rect x="80" y="0" width="890" height="450"/></clipPath><clipPath class="axesclip" id="clip08584fy"><rect x="0" y="100" width="1113" height="270"/></clipPath><clipPath class="axesclip" id="clip08584fxy"><rect x="80" y="100" width="890" height="270"/></clipPath></g><g class="gradients"/><g class="patterns"/></defs><g class="bglayer"/><g class="layer-below"><g class="imagelayer"/><g class="shapelayer"/></g><g class="cartesianlayer"><g class="subplot xy"><g class="layer-subplot"><g class="shapelayer"/><g class="imagelayer"/></g><g class="gridlayer"><g class="x"><path class="xgrid crisp" transform="translate(169,0)" d="M0,100v270" style="stroke: rgb(238, 238, 238); stroke-opacity: 1; stroke-width: 1px;"/><path class="xgrid crisp" transform="translate(258,0)" d="M0,100v270" style="stroke: rgb(238, 238, 238); stroke-opacity: 1; stroke-width: 1px;"/><path class="xgrid crisp" transform="translate(347,0)" d="M0,100v270" style="stroke: rgb(238, 238, 238); stroke-opacity: 1; stroke-width: 1px;"/><path class="xgrid crisp" transform="translate(436,0)" d="M0,100v270" style="stroke: rgb(238, 238, 238); stroke-opacity: 1; stroke-width: 1px;"/><path class="xgrid crisp" transform="translate(525,0)" d="M0,100v270" style="stroke: rgb(238, 238, 238); stroke-opacity: 1; stroke-width: 1px;"/><path class="xgrid crisp" transform="translate(614,0)" d="M0,100v270" style="stroke: rgb(238, 238, 238); stroke-opacity: 1; stroke-width: 1px;"/><path class="xgrid crisp" transform="translate(703,0)" d="M0,100v270" style="stroke: rgb(238, 238, 238); stroke-opacity: 1; stroke-width: 1px;"/><path class="xgrid crisp" transform="translate(792,0)" d="M0,100v270" style="stroke: rgb(238, 238, 238); stroke-opacity: 1; stroke-width: 1px;"/><path class="xgrid crisp" transform="translate(881,0)" d="M0,100v270" style="stroke: rgb(238, 238, 238); stroke-opacity: 1; stroke-width: 1px;"/></g><g class="y"><path class="ygrid crisp" transform="translate(0,345.49)" d="M80,0h890" style="stroke: rgb(238, 238, 238); stroke-opacity: 1; stroke-width: 1px;"/><path class="ygrid crisp" transform="translate(0,242.07)" d="M80,0h890" style="stroke: rgb(238, 238, 238); stroke-opacity: 1; stroke-width: 1px;"/><path class="ygrid crisp" transform="translate(0,138.64)" d="M80,0h890" style="stroke: rgb(238, 238, 238); stroke-opacity: 1; stroke-width: 1px;"/></g></g><g class="zerolinelayer"><path class="xzl zl crisp" transform="translate(80,0)" d="M0,100v270" style="stroke: rgb(68, 68, 68); stroke-opacity: 1; stroke-width: 1px;"/></g><path class="xlines-below"/><path class="ylines-below"/><g class="overlines-below"/><g class="xaxislayer-below"/><g class="yaxislayer-below"/><g class="overaxes-below"/><g class="plot" transform="translate(80,100)" clip-path="url(#clip08584fxyplot)"><g class="scatterlayer mlayer"><g class="trace scatter trace24a874" style="stroke-miterlimit: 2; opacity: 1;"><g class="fills"/><g class="errorbars"/><g class="lines"><path class="js-line" d="M0,17.9Q14.83,19.23 22.25,19.92C29.67,20.61 37.08,21.31 44.5,22.03C51.92,22.75 59.33,23.48 66.75,24.23C74.17,24.98 81.58,25.75 89,26.53C96.42,27.32 103.83,28.12 111.25,28.94C118.67,29.76 126.08,30.6 133.5,31.46C140.92,32.32 148.33,33.2 155.75,34.1C163.17,35 170.58,35.92 178,36.86C185.42,37.8 192.83,38.77 200.25,39.76C207.67,40.75 215.09,41.75 222.5,42.78C229.92,43.81 237.34,44.88 244.75,45.96C252.17,47.04 259.59,48.15 267,49.28C274.42,50.42 281.84,51.58 289.25,52.77C296.67,53.96 304.09,55.18 311.5,56.43C318.92,57.68 326.34,58.95 333.75,60.26C341.17,61.57 348.59,62.92 356,64.29C363.42,65.67 370.84,67.07 378.25,68.51C385.67,69.95 393.09,71.43 400.5,72.94C407.92,74.45 415.34,76 422.75,77.59C430.17,79.18 437.59,80.81 445,82.48C452.42,84.15 459.84,85.86 467.25,87.61C474.67,89.37 482.09,91.17 489.5,93.01C496.92,94.86 504.34,96.74 511.75,98.68C519.17,100.62 526.59,102.6 534,104.64C541.42,106.68 548.84,108.77 556.25,110.91C563.67,113.06 571.09,115.25 578.5,117.5C585.92,119.76 593.34,122.06 600.75,124.43C608.18,126.8 615.59,129.24 623,131.73C630.43,134.23 637.84,136.79 645.25,139.41C652.68,142.04 660.09,144.74 667.5,147.5C674.93,150.27 682.35,153.1 689.75,156.01C697.18,158.93 704.6,161.92 712,164.98C719.43,168.05 726.85,171.19 734.25,174.42C741.68,177.66 749.1,180.98 756.5,184.38C763.93,187.8 771.35,191.29 778.75,194.87C786.19,198.47 793.6,202.15 801,205.92C808.44,209.71 815.86,213.6 823.25,217.58C830.69,221.58 838.11,225.68 845.5,229.87C852.94,234.09 860.36,238.41 867.75,242.83Q875.19,247.28 890,256.5" style="vector-effect: non-scaling-stroke; fill: none; stroke: rgb(31, 119, 180); stroke-opacity: 1; stroke-width: 2px; opacity: 1;"/></g><g class="points"/><g class="text"/></g><g class="trace scatter trace95f455" style="stroke-miterlimit: 2; opacity: 1;"><g class="fills"/><g class="errorbars"/><g class="lines"><path class="js-line" d="M0,13.5Q14.76,27.29 22.25,27.55C29.59,27.81 36.89,16.62 44.5,15.6C51.74,14.63 59.29,19.82 66.75,20.72C74.12,21.61 81.65,19.98 89,21.03C96.49,22.1 103.89,24.79 111.25,27.2C118.72,29.64 125.96,34.07 133.5,35.6C140.8,37.08 148.36,36.92 155.75,36.45C163.19,35.98 170.73,31.79 178,32.75C185.57,33.75 192.65,41.04 200.25,42.87C207.5,44.61 215.18,42.47 222.5,43.87C230.02,45.31 237.23,50.6 244.75,51.56C252.07,52.49 259.58,49.9 267,49.8C274.41,49.7 281.84,51.05 289.25,50.96C296.67,50.87 304.25,47.94 311.5,49.23C319.09,50.58 326.16,57.34 333.75,59.39C341.01,61.35 348.57,61.22 356,61.58C363.41,61.94 371.32,58.87 378.25,61.58C386.33,64.74 392.42,78.94 400.5,82.1C407.43,84.81 415.34,82.48 422.75,82.1C430.18,81.72 437.98,77.75 445,79.8C452.91,82.11 459.39,93.63 467.25,97.45C474.31,100.88 482.06,102.47 489.5,102.74C496.89,103.01 504.41,98.54 511.75,99.15C519.24,99.77 526.49,105.76 534,106.65C541.33,107.52 548.95,103.63 556.25,104.65C563.79,105.71 571.48,108.85 578.5,113.23C586.42,118.17 593,133.02 600.75,133.88C607.88,134.67 615.46,121.44 623,120.95C630.3,120.48 637.78,127.46 645.25,130.28C652.62,133.06 660.29,134.31 667.5,137.78C675.15,141.46 682.06,148.68 689.75,152.09C696.93,155.27 704.6,155.94 712,158.09C719.44,160.25 727.84,159.34 734.25,165.01C744.01,173.65 748.32,200.14 756.5,214.36C763.38,226.31 771.87,246.17 778.75,245.49C786.93,244.68 791.05,202.58 801,196.15C807.38,192.03 816.28,189.18 823.25,196.15C932.61,305.51 672.52,5519.22 823.2929635237373,5670C836.87,5683.58 854.13,5683.58 867.7074229983323,5670C1017.75,5519.96 867.74,245.49 867.75,245.49C867.76,245.49 759.06,5561.26 867.7925770016677,5670Q874.75,5676.96 890,5670" style="vector-effect: non-scaling-stroke; fill: none; stroke: rgb(255, 127, 14); stroke-opacity: 1; stroke-width: 2px; opacity: 1;"/></g><g class="points"/><g class="text"/></g></g></g><g class="overplot"/><path class="xlines-above crisp" d="M0,0" style="fill: none;"/><path class="ylines-above crisp" d="M0,0" style="fill: none;"/><g class="overlines-above"/><g class="xaxislayer-above"><g class="xtick"><text text-anchor="middle" x="0" y="383" transform="translate(80,0)" style="font-family: 'Open Sans', verdana, arial, sans-serif; font-size: 12px; fill: rgb(68, 68, 68); fill-opacity: 1; white-space: pre; opacity: 1;">0</text></g><g class="xtick"><text text-anchor="middle" x="0" y="383" style="font-family: 'Open Sans', verdana, arial, sans-serif; font-size: 12px; fill: rgb(68, 68, 68); fill-opacity: 1; white-space: pre; opacity: 1;" transform="translate(169,0)">1</text></g><g class="xtick"><text text-anchor="middle" x="0" y="383" style="font-family: 'Open Sans', verdana, arial, sans-serif; font-size: 12px; fill: rgb(68, 68, 68); fill-opacity: 1; white-space: pre; opacity: 1;" transform="translate(258,0)">2</text></g><g class="xtick"><text text-anchor="middle" x="0" y="383" style="font-family: 'Open Sans', verdana, arial, sans-serif; font-size: 12px; fill: rgb(68, 68, 68); fill-opacity: 1; white-space: pre; opacity: 1;" transform="translate(347,0)">3</text></g><g class="xtick"><text text-anchor="middle" x="0" y="383" style="font-family: 'Open Sans', verdana, arial, sans-serif; font-size: 12px; fill: rgb(68, 68, 68); fill-opacity: 1; white-space: pre; opacity: 1;" transform="translate(436,0)">4</text></g><g class="xtick"><text text-anchor="middle" x="0" y="383" style="font-family: 'Open Sans', verdana, arial, sans-serif; font-size: 12px; fill: rgb(68, 68, 68); fill-opacity: 1; white-space: pre; opacity: 1;" transform="translate(525,0)">5</text></g><g class="xtick"><text text-anchor="middle" x="0" y="383" style="font-family: 'Open Sans', verdana, arial, sans-serif; font-size: 12px; fill: rgb(68, 68, 68); fill-opacity: 1; white-space: pre; opacity: 1;" transform="translate(614,0)">6</text></g><g class="xtick"><text text-anchor="middle" x="0" y="383" style="font-family: 'Open Sans', verdana, arial, sans-serif; font-size: 12px; fill: rgb(68, 68, 68); fill-opacity: 1; white-space: pre; opacity: 1;" transform="translate(703,0)">7</text></g><g class="xtick"><text text-anchor="middle" x="0" y="383" style="font-family: 'Open Sans', verdana, arial, sans-serif; font-size: 12px; fill: rgb(68, 68, 68); fill-opacity: 1; white-space: pre; opacity: 1;" transform="translate(792,0)">8</text></g><g class="xtick"><text text-anchor="middle" x="0" y="383" style="font-family: 'Open Sans', verdana, arial, sans-serif; font-size: 12px; fill: rgb(68, 68, 68); fill-opacity: 1; white-space: pre; opacity: 1;" transform="translate(881,0)">9</text></g><g class="xtick"><text text-anchor="middle" x="0" y="383" style="font-family: 'Open Sans', verdana, arial, sans-serif; font-size: 12px; fill: rgb(68, 68, 68); fill-opacity: 1; white-space: pre; opacity: 1;" transform="translate(970,0)">10</text></g></g><g class="yaxislayer-above"><g class="ytick"><text text-anchor="end" x="79" y="5.25" transform="translate(0,345.49)" style="font-family: 'Open Sans', verdana, arial, sans-serif; font-size: 15px; fill: rgb(68, 68, 68); fill-opacity: 1; white-space: pre; opacity: 1;">10​<tspan style="font-size:70%" dy="-0.6em">−3</tspan><tspan dy="0.42em">​</tspan></text></g><g class="ytick"><text text-anchor="end" x="79" y="5.25" style="font-family: 'Open Sans', verdana, arial, sans-serif; font-size: 15px; fill: rgb(68, 68, 68); fill-opacity: 1; white-space: pre; opacity: 1;" transform="translate(0,242.07)">10​<tspan style="font-size:70%" dy="-0.6em">−2</tspan><tspan dy="0.42em">​</tspan></text></g><g class="ytick"><text text-anchor="end" x="79" y="5.25" style="font-family: 'Open Sans', verdana, arial, sans-serif; font-size: 15px; fill: rgb(68, 68, 68); fill-opacity: 1; white-space: pre; opacity: 1;" transform="translate(0,138.64)">10​<tspan style="font-size:70%" dy="-0.6em">−1</tspan><tspan dy="0.42em">​</tspan></text></g></g><g class="overaxes-above"/></g></g><g class="polarlayer"/><g class="ternarylayer"/><g class="geolayer"/><g class="funnelarealayer"/><g class="pielayer"/><g class="iciclelayer"/><g class="treemaplayer"/><g class="sunburstlayer"/><g class="glimages"/><defs id="topdefs-08584f"><g class="clips"/><clipPath id="legend08584f"><rect width="113" height="48" x="0" y="0"/></clipPath></defs><g class="layer-above"><g class="imagelayer"/><g class="shapelayer"/></g><g class="infolayer"><g class="legend" pointer-events="all" transform="translate(987.8000000000001,100)"><rect class="bg" shape-rendering="crispEdges" width="113" height="48" x="0" y="0" style="stroke: rgb(68, 68, 68); stroke-opacity: 1; fill: rgb(255, 255, 255); fill-opacity: 1; stroke-width: 0px;"/><g class="scrollbox" transform="" clip-path="url(#legend08584f)"><g class="groups"><g class="traces" transform="translate(0,14.5)" style="opacity: 1;"><text class="legendtext" text-anchor="start" x="40" y="4.680000000000001" style="font-family: 'Open Sans', verdana, arial, sans-serif; font-size: 12px; fill: rgb(68, 68, 68); fill-opacity: 1; white-space: pre;">Theoretical</text><g class="layers" style="opacity: 1;"><g class="legendfill"/><g class="legendlines"><path class="js-line" d="M5,0h30" style="fill: none; stroke: rgb(31, 119, 180); stroke-opacity: 1; stroke-width: 2px;"/></g><g class="legendsymbols"><g class="legendpoints"/></g></g><rect class="legendtoggle" x="0" y="-9.5" width="107.140625" height="19" style="fill: rgb(0, 0, 0); fill-opacity: 0;"/></g><g class="traces" transform="translate(0,33.5)" style="opacity: 1;"><text class="legendtext" text-anchor="start" x="40" y="4.680000000000001" style="font-family: 'Open Sans', verdana, arial, sans-serif; font-size: 12px; fill: rgb(68, 68, 68); fill-opacity: 1; white-space: pre;">Simulation</text><g class="layers" style="opacity: 1;"><g class="legendfill"/><g class="legendlines"><path class="js-line" d="M5,0h30" style="fill: none; stroke: rgb(255, 127, 14); stroke-opacity: 1; stroke-width: 2px;"/></g><g class="legendsymbols"><g class="legendpoints"/></g></g><rect class="legendtoggle" x="0" y="-9.5" width="107.140625" height="19" style="fill: rgb(0, 0, 0); fill-opacity: 0;"/></g></g></g><rect class="scrollbar" rx="20" ry="3" width="0" height="0" x="0" y="0" style="fill: rgb(128, 139, 164); fill-opacity: 1;"/></g><g class="g-gtitle"/><g class="g-xtitle"><text class="xtitle" x="525" y="440" text-anchor="middle" style="font-family: 'Open Sans', verdana, arial, sans-serif; font-size: 20px; fill: rgb(68, 68, 68); opacity: 1; font-weight: normal; white-space: pre;">Es/N0(dB)</text></g><g class="g-ytitle"><text class="ytitle" transform="rotate(-90,30,235)" x="30" y="235" text-anchor="middle" style="font-family: 'Open Sans', verdana, arial, sans-serif; font-size: 20px; fill: rgb(68, 68, 68); opacity: 1; font-weight: normal; white-space: pre;">SER</text></g></g></svg>