<svg class="main-svg" xmlns="http://www.w3.org/2000/svg" xmlns:xlink="http://www.w3.org/1999/xlink" width="1113" height="450" style="" viewBox="0 0 1113 450"><rect x="0" y="0" width="1113" height="450" style="fill: rgb(255, 255, 255); fill-opacity: 1;"/><defs id="defs-f9cfa0"><g class="clips"><clipPath id="clipf9cfa0xyplot" class="plotclip"><rect width="890" height="270"/></clipPath><clipPath class="axesclip" id="clipf9cfa0x"><rect x="80" y="0" width="890" height="450"/></clipPath><clipPath class="axesclip" id="clipf9cfa0y"><rect x="0" y="100" width="1113" height="270"/></clipPath><clipPath class="axesclip" id="clipf9cfa0xy"><rect x="80" y="100" width="890" height="270"/></clipPath></g><g class="gradients"/><g class="patterns"/></defs><g class="bglayer"/><g class="layer-below"><g class="imagelayer"/><g class="shapelayer"/></g><g class="cartesianlayer"><g class="subplot xy"><g class="layer-subplot"><g class="shapelayer"/><g class="imagelayer"/></g><g class="gridlayer"><g class="x"><path class="xgrid crisp" transform="translate(169,0)" d="M0,100v270" style="stroke: rgb(238, 238, 238); stroke-opacity: 1; stroke-width: 1px;"/><path class="xgrid crisp" transform="translate(258,0)" d="M0,100v270" style="stroke: rgb(238, 238, 238); stroke-opacity: 1; stroke-width: 1px;"/><path class="xgrid crisp" transform="translate(347,0)" d="M0,100v270" style="stroke: rgb(238, 238, 238); stroke-opacity: 1; stroke-width: 1px;"/><path class="xgrid crisp" transform="translate(436,0)" d="M0,100v270" style="stroke: rgb(238, 238, 238); stroke-opacity: 1; stroke-width: 1px;"/><path class="xgrid crisp" transform="translate(525,0)" d="M0,100v270" style="stroke: rgb(238, 238, 238); stroke-opacity: 1; stroke-width: 1px;"/><path class="xgrid crisp" transform="translate(614,0)" d="M0,100v270" style="stroke: rgb(238, 238, 238); stroke-opacity: 1; stroke-width: 1px;"/><path class="xgrid crisp" transform="translate(703,0)" d="M0,100v270" style="stroke: rgb(238, 238, 238); stroke-opacity: 1; stroke-width: 1px;"/><path class="xgrid crisp" transform="translate(792,0)" d="M0,100v270" style="stroke: rgb(238, 238, 238); stroke-opacity: 1; stroke-width: 1px;"/><path class="xgrid crisp" transform="translate(881,0)" d="M0,100v270" style="stroke: rgb(238, 238, 238); stroke-opacity: 1; stroke-width: 1px;"/></g><g class="y"><path class="ygrid crisp" transform="translate(0,344.13)" d="M80,0h890" style="stroke: rgb(238, 238, 238); stroke-opacity: 1; stroke-width: 1px;"/><path class="ygrid crisp" transform="translate(0,239.36)" d="M80,0h890" style="stroke: rgb(238, 238, 238); stroke-opacity: 1; stroke-width: 1px;"/><path class="ygrid crisp" transform="translate(0,134.57999999999998)" d="M80,0h890" style="stroke: rgb(238, 238, 238); stroke-opacity: 1; stroke-width: 1px;"/></g></g><g class="zerolinelayer"><path class="xzl zl crisp" transform="translate(80,0)" d="M0,100v270" style="stroke: rgb(68, 68, 68); stroke-opacity: 1; stroke-width: 1px;"/></g><path class="xlines-below"/><path class="ylines-below"/><g class="overlines-below"/><g class="xaxislayer-below"/><g class="yaxislayer-below"/><g class="overaxes-below"/><g class="plot" transform="translate(80,100)" clip-path="url(#clipf9cfa0xyplot)"><g class="scatterlayer mlayer"><g class="trace scatter trace72325f" style="stroke-miterlimit: 2; opacity: 1;"><g class="fills"/><g class="errorbars"/><g class="lines"><path class="js-line" d="M0,13.58Q14.83,14.92 22.25,15.62C29.67,16.32 37.08,17.03 44.5,17.76C51.92,18.49 59.33,19.23 66.75,19.99C74.17,20.75 81.58,21.53 89,22.32C96.42,23.12 103.83,23.93 111.25,24.76C118.67,25.59 126.08,26.44 133.5,27.31C140.92,28.18 148.33,29.08 155.75,29.99C163.17,30.9 170.58,31.83 178,32.78C185.42,33.73 192.83,34.71 200.25,35.71C207.67,36.71 215.09,37.73 222.5,38.78C229.92,39.83 237.34,40.9 244.75,42C252.17,43.1 259.59,44.22 267,45.37C274.42,46.52 281.84,47.7 289.25,48.9C296.67,50.11 304.09,51.34 311.5,52.6C318.92,53.87 326.34,55.16 333.75,56.49C341.17,57.82 348.59,59.17 356,60.56C363.42,61.95 370.84,63.38 378.25,64.84C385.67,66.3 393.09,67.8 400.5,69.33C407.92,70.87 415.34,72.44 422.75,74.05C430.17,75.66 437.59,77.31 445,79C452.42,80.69 459.84,82.42 467.25,84.2C474.67,85.98 482.09,87.79 489.5,89.66C496.92,91.53 504.34,93.44 511.75,95.4C519.17,97.36 526.59,99.38 534,101.44C541.42,103.51 548.84,105.62 556.25,107.79C563.67,109.96 571.09,112.19 578.5,114.47C585.92,116.76 593.34,119.09 600.75,121.49C608.18,123.9 615.59,126.36 623,128.89C630.43,131.42 637.84,134.01 645.25,136.67C652.68,139.34 660.1,142.06 667.5,144.86C674.93,147.67 682.35,150.53 689.75,153.48C697.18,156.44 704.6,159.47 712,162.57C719.43,165.69 726.85,168.87 734.25,172.14C741.68,175.42 749.1,178.78 756.5,182.22C763.93,185.68 771.35,189.21 778.75,192.84C786.19,196.49 793.6,200.22 801,204.04C808.44,207.89 815.86,211.82 823.25,215.85C830.69,219.9 838.11,224.05 845.5,228.3C852.94,232.58 860.36,236.95 867.75,241.43Q875.19,245.94 890,255.28" style="vector-effect: non-scaling-stroke; fill: none; stroke: rgb(31, 119, 180); stroke-opacity: 1; stroke-width: 2px; opacity: 1;"/></g><g class="points"/><g class="text"/></g><g class="trace scatter traceacc799" style="stroke-miterlimit: 2; opacity: 1;"><g class="fills"/><g class="errorbars"/><g class="lines"><path class="js-line" d="M0,13.5Q14.83,14.88 22.25,15.61C29.67,16.34 37.08,17.16 44.5,17.88C51.91,18.6 59.34,19.16 66.75,19.91C74.17,20.66 81.58,21.57 89,22.38C96.42,23.19 103.83,23.96 111.25,24.77C118.67,25.58 126.09,26.39 133.5,27.26C140.92,28.13 148.33,29.06 155.75,29.98C163.17,30.9 170.58,31.87 178,32.79C185.42,33.7 192.84,34.48 200.25,35.47C207.67,36.47 215.08,37.68 222.5,38.76C229.92,39.83 237.34,40.78 244.75,41.92C252.17,43.06 259.58,44.39 267,45.59C274.41,46.79 281.83,47.92 289.25,49.1C296.67,50.29 304.09,51.44 311.5,52.7C318.92,53.96 326.33,55.41 333.75,56.67C341.16,57.93 348.6,58.92 356,60.26C363.43,61.6 370.84,63.21 378.25,64.71C385.67,66.21 393.09,67.7 400.5,69.28C407.92,70.86 415.34,72.52 422.75,74.17C430.17,75.83 437.58,77.57 445,79.21C452.41,80.85 459.85,82.26 467.25,84.02C474.69,85.79 482.08,87.93 489.5,89.81C496.91,91.68 504.35,93.31 511.75,95.27C519.18,97.24 526.59,99.48 534,101.61C541.42,103.74 548.83,105.92 556.25,108.07C563.67,110.23 571.1,112.25 578.5,114.54C585.94,116.84 593.33,119.44 600.75,121.83C608.16,124.22 615.61,126.38 623,128.87C630.44,131.37 637.86,133.98 645.25,136.79C652.7,139.62 660.05,143 667.5,145.79C674.88,148.55 682.35,150.76 689.75,153.43C697.19,156.11 704.62,158.84 712,161.85C719.46,164.89 726.86,168.23 734.25,171.59C741.69,174.97 749.11,178.43 756.5,182.06C763.95,185.72 771.31,189.8 778.75,193.48C786.14,197.14 793.6,200.47 801,204.09C808.43,207.72 815.86,211.41 823.25,215.24C830.69,219.1 838.12,223.02 845.5,227.16C852.96,231.35 860.45,235.45 867.75,240.25Q875.29,245.2 890,256.5" style="vector-effect: non-scaling-stroke; fill: none; stroke: rgb(255, 127, 14); stroke-opacity: 1; stroke-width: 2px; opacity: 1;"/></g><g class="points"/><g class="text"/></g></g></g><g class="overplot"/><path class="xlines-above crisp" d="M0,0" style="fill: none;"/><path class="ylines-above crisp" d="M0,0" style="fill: none;"/><g class="overlines-above"/><g class="xaxislayer-above"><g class="xtick"><text text-anchor="middle" x="0" y="383" transform="translate(80,0)" style="font-family: 'Open Sans', verdana, arial, sans-serif; font-size: 12px; fill: rgb(68, 68, 68); fill-opacity: 1; white-space: pre; opacity: 1;">0</text></g><g class="xtick"><text text-anchor="middle" x="0" y="383" style="font-family: 'Open Sans', verdana, arial, sans-serif; font-size: 12px; fill: rgb(68, 68, 68); fill-opacity: 1; white-space: pre; opacity: 1;" transform="translate(169,0)">1</text></g><g class="xtick"><text text-anchor="middle" x="0" y="383" style="font-family: 'Open Sans', verdana, arial, sans-serif; font-size: 12px; fill: rgb(68, 68, 68); fill-opacity: 1; white-space: pre; opacity: 1;" transform="translate(258,0)">2</text></g><g class="xtick"><text text-anchor="middle" x="0" y="383" style="font-family: 'Open Sans', verdana, arial, sans-serif; font-size: 12px; fill: rgb(68, 68, 68); fill-opacity: 1; white-space: pre; opacity: 1;" transform="translate(347,0)">3</text></g><g class="xtick"><text text-anchor="middle" x="0" y="383" style="font-family: 'Open Sans', verdana, arial, sans-serif; font-size: 12px; fill: rgb(68, 68, 68); fill-opacity: 1; white-space: pre; opacity: 1;" transform="translate(436,0)">4</text></g><g class="xtick"><text text-anchor="middle" x="0" y="383" style="font-family: 'Open Sans', verdana, arial, sans-serif; font-size: 12px; fill: rgb(68, 68, 68); fill-opacity: 1; white-space: pre; opacity: 1;" transform="translate(525,0)">5</text></g><g class="xtick"><text text-anchor="middle" x="0" y="383" style="font-family: 'Open Sans', verdana, arial, sans-serif; font-size: 12px; fill: rgb(68, 68, 68); fill-opacity: 1; white-space: pre; opacity: 1;" transform="translate(614,0)">6</text></g><g class="xtick"><text text-anchor="middle" x="0" y="383" style="font-family: 'Open Sans', verdana, arial, sans-serif; font-size: 12px; fill: rgb(68, 68, 68); fill-opacity: 1; white-space: pre; opacity: 1;" transform="translate(703,0)">7</text></g><g class="xtick"><text text-anchor="middle" x="0" y="383" style="font-family: 'Open Sans', verdana, arial, sans-serif; font-size: 12px; fill: rgb(68, 68, 68); fill-opacity: 1; white-space: pre; opacity: 1;" transform="translate(792,0)">8</text></g><g class="xtick"><text text-anchor="middle" x="0" y="383" style="font-family: 'Open Sans', verdana, arial, sans-serif; font-size: 12px; fill: rgb(68, 68, 68); fill-opacity: 1; white-space: pre; opacity: 1;" transform="translate(881,0)">9</text></g><g class="xtick"><text text-anchor="middle" x="0" y="383" style="font-family: 'Open Sans', verdana, arial, sans-serif; font-size: 12px; fill: rgb(68, 68, 68); fill-opacity: 1; white-space: pre; opacity: 1;" transform="translate(970,0)">10</text></g></g><g class="yaxislayer-above"><g class="ytick"><text text-anchor="end" x="79" y="5.25" transform="translate(0,344.13)" style="font-family: 'Open Sans', verdana, arial, sans-serif; font-size: 15px; fill: rgb(68, 68, 68); fill-opacity: 1; white-space: pre; opacity: 1;">10​<tspan style="font-size:70%" dy="-0.6em">−3</tspan><tspan dy="0.42em">​</tspan></text></g><g class="ytick"><text text-anchor="end" x="79" y="5.25" style="font-family: 'Open Sans', verdana, arial, sans-serif; font-size: 15px; fill: rgb(68, 68, 68); fill-opacity: 1; white-space: pre; opacity: 1;" transform="translate(0,239.36)">10​<tspan style="font-size:70%" dy="-0.6em">−2</tspan><tspan dy="0.42em">​</tspan></text></g><g class="ytick"><text text-anchor="end" x="79" y="5.25" style="font-family: 'Open Sans', verdana, arial, sans-serif; font-size: 15px; fill: rgb(68, 68, 68); fill-opacity: 1; white-space: pre; opacity: 1;" transform="translate(0,134.57999999999998)">10​<tspan style="font-size:70%" dy="-0.6em">−1</tspan><tspan dy="0.42em">​</tspan></text></g></g><g class="overaxes-above"/></g></g><g class="polarlayer"/><g class="ternarylayer"/><g class="geolayer"/><g class="funnelarealayer"/><g class="pielayer"/><g class="iciclelayer"/><g class="treemaplayer"/><g class="sunburstlayer"/><g class="glimages"/><defs id="topdefs-f9cfa0"><g class="clips"/><clipPath id="legendf9cfa0"><rect width="113" height="48" x="0" y="0"/></clipPath></defs><g class="layer-above"><g class="imagelayer"/><g class="shapelayer"/></g><g class="infolayer"><g class="legend" pointer-events="all" transform="translate(987.8000000000001,100)"><rect class="bg" shape-rendering="crispEdges" width="113" height="48" x="0" y="0" style="stroke: rgb(68, 68, 68); stroke-opacity: 1; fill: rgb(255, 255, 255); fill-opacity: 1; stroke-width: 0px;"/><g class="scrollbox" transform="" clip-path="url(#legendf9cfa0)"><g class="groups"><g class="traces" transform="translate(0,14.5)" style="opacity: 1;"><text class="legendtext" text-anchor="start" x="40" y="4.680000000000001" style="font-family: 'Open Sans', verdana, arial, sans-serif; font-size: 12px; fill: rgb(68, 68, 68); fill-opacity: 1; white-space: pre;">Theoretical</text><g class="layers" style="opacity: 1;"><g class="legendfill"/><g class="legendlines"><path class="js-line" d="M5,0h30" style="fill: none; stroke: rgb(31, 119, 180); stroke-opacity: 1; stroke-width: 2px;"/></g><g class="legendsymbols"><g class="legendpoints"/></g></g><rect class="legendtoggle" x="0" y="-9.5" width="107.140625" height="19" style="fill: rgb(0, 0, 0); fill-opacity: 0;"/></g><g class="traces" transform="translate(0,33.5)" style="opacity: 1;"><text class="legendtext" text-anchor="start" x="40" y="4.680000000000001" style="font-family: 'Open Sans', verdana, arial, sans-serif; font-size: 12px; fill: rgb(68, 68, 68); fill-opacity: 1; white-space: pre;">Simulation</text><g class="layers" style="opacity: 1;"><g class="legendfill"/><g class="legendlines"><path class="js-line" d="M5,0h30" style="fill: none; stroke: rgb(255, 127, 14); stroke-opacity: 1; stroke-width: 2px;"/></g><g class="legendsymbols"><g class="legendpoints"/></g></g><rect class="legendtoggle" x="0" y="-9.5" width="107.140625" height="19" style="fill: rgb(0, 0, 0); fill-opacity: 0;"/></g></g></g><rect class="scrollbar" rx="20" ry="3" width="0" height="0" x="0" y="0" style="fill: rgb(128, 139, 164); fill-opacity: 1;"/></g><g class="g-gtitle"/><g class="g-xtitle"><text class="xtitle" x="525" y="440" text-anchor="middle" style="font-family: 'Open Sans', verdana, arial, sans-serif; font-size: 20px; fill: rgb(68, 68, 68); opacity: 1; font-weight: normal; white-space: pre;">Es/N0(dB)</text></g><g class="g-ytitle"><text class="ytitle" transform="rotate(-90,30,235)" x="30" y="235" text-anchor="middle" style="font-family: 'Open Sans', verdana, arial, sans-serif; font-size: 20px; fill: rgb(68, 68, 68); opacity: 1; font-weight: normal; white-space: pre;">SER</text></g></g></svg>