<svg class="main-svg" xmlns="http://www.w3.org/2000/svg" xmlns:xlink="http://www.w3.org/1999/xlink" width="1113" height="450" style="" viewBox="0 0 1113 450"><rect x="0" y="0" width="1113" height="450" style="fill: rgb(255, 255, 255); fill-opacity: 1;"/><defs id="defs-d39323"><g class="clips"><clipPath id="clipd39323xyplot" class="plotclip"><rect width="890" height="270"/></clipPath><clipPath class="axesclip" id="clipd39323x"><rect x="80" y="0" width="890" height="450"/></clipPath><clipPath class="axesclip" id="clipd39323y"><rect x="0" y="100" width="1113" height="270"/></clipPath><clipPath class="axesclip" id="clipd39323xy"><rect x="80" y="100" width="890" height="270"/></clipPath></g><g class="gradients"/><g class="patterns"/></defs><g class="bglayer"/><g class="layer-below"><g class="imagelayer"/><g class="shapelayer"/></g><g class="cartesianlayer"><g class="subplot xy"><g class="layer-subplot"><g class="shapelayer"/><g class="imagelayer"/></g><g class="gridlayer"><g class="x"><path class="xgrid crisp" transform="translate(169,0)" d="M0,100v270" style="stroke: rgb(238, 238, 238); stroke-opacity: 1; stroke-width: 1px;"/><path class="xgrid crisp" transform="translate(258,0)" d="M0,100v270" style="stroke: rgb(238, 238, 238); stroke-opacity: 1; stroke-width: 1px;"/><path class="xgrid crisp" transform="translate(347,0)" d="M0,100v270" style="stroke: rgb(238, 238, 238); stroke-opacity: 1; stroke-width: 1px;"/><path class="xgrid crisp" transform="translate(436,0)" d="M0,100v270" style="stroke: rgb(238, 238, 238); stroke-opacity: 1; stroke-width: 1px;"/><path class="xgrid crisp" transform="translate(525,0)" d="M0,100v270" style="stroke: rgb(238, 238, 238); stroke-opacity: 1; stroke-width: 1px;"/><path class="xgrid crisp" transform="translate(614,0)" d="M0,100v270" style="stroke: rgb(238, 238, 238); stroke-opacity: 1; stroke-width: 1px;"/><path class="xgrid crisp" transform="translate(703,0)" d="M0,100v270" style="stroke: rgb(238, 238, 238); stroke-opacity: 1; stroke-width: 1px;"/><path class="xgrid crisp" transform="translate(792,0)" d="M0,100v270" style="stroke: rgb(238, 238, 238); stroke-opacity: 1; stroke-width: 1px;"/><path class="xgrid crisp" transform="translate(881,0)" d="M0,100v270" style="stroke: rgb(238, 238, 238); stroke-opacity: 1; stroke-width: 1px;"/></g><g class="y"/></g><g class="zerolinelayer"><path class="xzl zl crisp" transform="translate(80,0)" d="M0,100v270" style="stroke: rgb(68, 68, 68); stroke-opacity: 1; stroke-width: 1px;"/></g><path class="xlines-below"/><path class="ylines-below"/><g class="overlines-below"/><g class="xaxislayer-below"/><g class="yaxislayer-below"/><g class="overaxes-below"/><g class="plot" transform="translate(80,100)" clip-path="url(#clipd39323xyplot)"><g class="scatterlayer mlayer"><g class="trace scatter traced7432d" style="stroke-miterlimit: 2; opacity: 1;"><g class="fills"/><g class="errorbars"/><g class="lines"><path class="js-line" d="M0,15.32Q14.83,17.25 22.25,18.23C29.67,19.22 37.08,20.21 44.5,21.23C51.92,22.25 59.33,23.29 66.75,24.34C74.17,25.39 81.58,26.46 89,27.54C96.42,28.63 103.83,29.73 111.25,30.85C118.67,31.97 126.08,33.11 133.5,34.27C140.92,35.43 148.33,36.6 155.75,37.8C163.17,39 170.58,40.22 178,41.45C185.42,42.69 192.84,43.93 200.25,45.21C207.67,46.49 215.09,47.79 222.5,49.11C229.92,50.43 237.34,51.77 244.75,53.13C252.17,54.49 259.59,55.88 267,57.29C274.42,58.7 281.84,60.13 289.25,61.59C296.67,63.05 304.09,64.53 311.5,66.04C318.92,67.55 326.34,69.07 333.75,70.63C341.17,72.19 348.59,73.77 356,75.38C363.42,76.99 370.84,78.63 378.25,80.3C385.67,81.97 393.09,83.66 400.5,85.38C407.92,87.1 415.34,88.86 422.75,90.64C430.17,92.42 437.59,94.23 445,96.07C452.42,97.91 459.84,99.79 467.25,101.7C474.67,103.61 482.09,105.55 489.5,107.52C496.92,109.5 504.34,111.51 511.75,113.55C519.17,115.6 526.59,117.68 534,119.79C541.42,121.91 548.84,124.05 556.25,126.24C563.67,128.43 571.09,130.66 578.5,132.93C585.92,135.2 593.34,137.5 600.75,139.85C608.17,142.2 615.59,144.59 623,147.02C630.42,149.46 637.84,151.93 645.25,154.45C652.67,156.97 660.09,159.53 667.5,162.14C674.92,164.75 682.34,167.42 689.75,170.12C697.17,172.83 704.59,175.58 712,178.38C719.43,181.19 726.84,184.05 734.25,186.95C741.68,189.86 749.09,192.82 756.5,195.83C763.93,198.85 771.34,201.91 778.75,205.03C786.18,208.16 793.59,211.34 801,214.58C808.43,217.83 815.84,221.13 823.25,224.49C830.68,227.86 838.1,231.29 845.5,234.77C852.93,238.27 860.35,241.82 867.75,245.43Q875.18,249.06 890,256.5" style="vector-effect: non-scaling-stroke; fill: none; stroke: rgb(31, 119, 180); stroke-opacity: 1; stroke-width: 2px; opacity: 1;"/></g><g class="points"/><g class="text"/></g><g class="trace scatter traceb9b489" style="stroke-miterlimit: 2; opacity: 1;"><g class="fills"/><g class="errorbars"/><g class="lines"><path class="js-line" d="M0,13.5Q14.94,14.28 22.25,16.04C29.78,17.85 36.96,23.06 44.5,24.37C51.8,25.64 59.4,23.13 66.75,24.08C74.24,25.05 81.54,29.93 89,30.27C96.38,30.6 103.84,26.13 111.25,26.2C118.67,26.27 126.2,28.46 133.5,30.72C141.04,33.06 148.18,39 155.75,40.15C163.03,41.25 170.61,37.52 178,37.91C185.45,38.3 192.86,40.76 200.25,42.55C207.7,44.36 215.01,47.55 222.5,48.72C229.85,49.87 237.39,48.47 244.75,49.58C252.23,50.71 259.62,53.26 267,55.52C274.46,57.8 281.76,62.63 289.25,63.21C296.59,63.78 304.44,57.48 311.5,59.2C319.36,61.11 325.88,74.33 333.75,76.31C340.8,78.09 348.56,73.18 356,72.68C363.39,72.18 371,71.62 378.25,73.28C385.84,75.02 393,80.41 400.5,83.29C407.84,86.11 415.29,88.39 422.75,90.45C430.12,92.49 437.73,93 445,95.61C452.58,98.34 459.66,105.75 467.25,106.71C474.51,107.63 482.08,101.96 489.5,101.93C496.91,101.9 504.47,104.12 511.75,106.51C519.31,109 526.56,113.47 534,116.77C541.39,120.04 548.67,124.71 556.25,126.23C563.52,127.69 571.17,124.98 578.5,126.09C586.01,127.23 593.65,129.4 600.75,133.13C608.55,137.23 615.1,148 623,150.43C630.03,152.59 638.06,147.37 645.25,148.99C652.93,150.73 659.87,158.44 667.5,161.41C674.73,164.23 682.44,164.27 689.75,166.71C697.28,169.23 704.53,173.44 712,176.41C719.37,179.34 726.72,182.84 734.25,184.44C741.56,186 749.5,183.27 756.5,186.07C764.45,189.25 770.99,199.59 778.75,204.34C785.88,208.71 793.7,210.32 801,214.06C808.54,217.93 815.72,223.34 823.25,227.27C830.56,231.09 838.15,233.71 845.5,237.39C852.99,241.14 860.12,246.74 867.75,249.58Q874.98,252.27 890,254.37" style="vector-effect: non-scaling-stroke; fill: none; stroke: rgb(255, 127, 14); stroke-opacity: 1; stroke-width: 2px; opacity: 1;"/></g><g class="points"/><g class="text"/></g></g></g><g class="overplot"/><path class="xlines-above crisp" d="M0,0" style="fill: none;"/><path class="ylines-above crisp" d="M0,0" style="fill: none;"/><g class="overlines-above"/><g class="xaxislayer-above"><g class="xtick"><text text-anchor="middle" x="0" y="383" transform="translate(80,0)" style="font-family: 'Open Sans', verdana, arial, sans-serif; font-size: 12px; fill: rgb(68, 68, 68); fill-opacity: 1; white-space: pre; opacity: 1;">0</text></g><g class="xtick"><text text-anchor="middle" x="0" y="383" style="font-family: 'Open Sans', verdana, arial, sans-serif; font-size: 12px; fill: rgb(68, 68, 68); fill-opacity: 1; white-space: pre; opacity: 1;" transform="translate(169,0)">1</text></g><g class="xtick"><text text-anchor="middle" x="0" y="383" style="font-family: 'Open Sans', verdana, arial, sans-serif; font-size: 12px; fill: rgb(68, 68, 68); fill-opacity: 1; white-space: pre; opacity: 1;" transform="translate(258,0)">2</text></g><g class="xtick"><text text-anchor="middle" x="0" y="383" style="font-family: 'Open Sans', verdana, arial, sans-serif; font-size: 12px; fill: rgb(68, 68, 68); fill-opacity: 1; white-space: pre; opacity: 1;" transform="translate(347,0)">3</text></g><g class="xtick"><text text-anchor="middle" x="0" y="383" style="font-family: 'Open Sans', verdana, arial, sans-serif; font-size: 12px; fill: rgb(68, 68, 68); fill-opacity: 1; white-space: pre; opacity: 1;" transform="translate(436,0)">4</text></g><g class="xtick"><text text-anchor="middle" x="0" y="383" style="font-family: 'Open Sans', verdana, arial, sans-serif; font-size: 12px; fill: rgb(68, 68, 68); fill-opacity: 1; white-space: pre; opacity: 1;" transform="translate(525,0)">5</text></g><g class="xtick"><text text-anchor="middle" x="0" y="383" style="font-family: 'Open Sans', verdana, arial, sans-serif; font-size: 12px; fill: rgb(68, 68, 68); fill-opacity: 1; white-space: pre; opacity: 1;" transform="translate(614,0)">6</text></g><g class="xtick"><text text-anchor="middle" x="0" y="383" style="font-family: 'Open Sans', verdana, arial, sans-serif; font-size: 12px; fill: rgb(68, 68, 68); fill-opacity: 1; white-space: pre; opacity: 1;" transform="translate(703,0)">7</text></g><g class="xtick"><text text-anchor="middle" x="0" y="383" style="font-family: 'Open Sans', verdana, arial, sans-serif; font-size: 12px; fill: rgb(68, 68, 68); fill-opacity: 1; white-space: pre; opacity: 1;" transform="translate(792,0)">8</text></g><g class="xtick"><text text-anchor="middle" x="0" y="383" style="font-family: 'Open Sans', verdana, arial, sans-serif; font-size: 12px; fill: rgb(68, 68, 68); fill-opacity: 1; white-space: pre; opacity: 1;" transform="translate(881,0)">9</text></g><g class="xtick"><text text-anchor="middle" x="0" y="383" style="font-family: 'Open Sans', verdana, arial, sans-serif; font-size: 12px; fill: rgb(68, 68, 68); fill-opacity: 1; white-space: pre; opacity: 1;" transform="translate(970,0)">10</text></g></g><g class="yaxislayer-above"/><g class="overaxes-above"/></g></g><g class="polarlayer"/><g class="ternarylayer"/><g class="geolayer"/><g class="funnelarealayer"/><g class="pielayer"/><g class="iciclelayer"/><g class="treemaplayer"/><g class="sunburstlayer"/><g class="glimages"/><defs id="topdefs-d39323"><g class="clips"/><clipPath id="legendd39323"><rect width="113" height="48" x="0" y="0"/></clipPath></defs><g class="layer-above"><g class="imagelayer"/><g class="shapelayer"/></g><g class="infolayer"><g class="legend" pointer-events="all" transform="translate(987.8000000000001,100)"><rect class="bg" shape-rendering="crispEdges" width="113" height="48" x="0" y="0" style="stroke: rgb(68, 68, 68); stroke-opacity: 1; fill: rgb(255, 255, 255); fill-opacity: 1; stroke-width: 0px;"/><g class="scrollbox" transform="" clip-path="url(#legendd39323)"><g class="groups"><g class="traces" transform="translate(0,14.5)" style="opacity: 1;"><text class="legendtext" text-anchor="start" x="40" y="4.680000000000001" style="font-family: 'Open Sans', verdana, arial, sans-serif; font-size: 12px; fill: rgb(68, 68, 68); fill-opacity: 1; white-space: pre;">Theoretical</text><g class="layers" style="opacity: 1;"><g class="legendfill"/><g class="legendlines"><path class="js-line" d="M5,0h30" style="fill: none; stroke: rgb(31, 119, 180); stroke-opacity: 1; stroke-width: 2px;"/></g><g class="legendsymbols"><g class="legendpoints"/></g></g><rect class="legendtoggle" x="0" y="-9.5" width="107.140625" height="19" style="fill: rgb(0, 0, 0); fill-opacity: 0;"/></g><g class="traces" transform="translate(0,33.5)" style="opacity: 1;"><text class="legendtext" text-anchor="start" x="40" y="4.680000000000001" style="font-family: 'Open Sans', verdana, arial, sans-serif; font-size: 12px; fill: rgb(68, 68, 68); fill-opacity: 1; white-space: pre;">Simulation</text><g class="layers" style="opacity: 1;"><g class="legendfill"/><g class="legendlines"><path class="js-line" d="M5,0h30" style="fill: none; stroke: rgb(255, 127, 14); stroke-opacity: 1; stroke-width: 2px;"/></g><g class="legendsymbols"><g class="legendpoints"/></g></g><rect class="legendtoggle" x="0" y="-9.5" width="107.140625" height="19" style="fill: rgb(0, 0, 0); fill-opacity: 0;"/></g></g></g><rect class="scrollbar" rx="20" ry="3" width="0" height="0" x="0" y="0" style="fill: rgb(128, 139, 164); fill-opacity: 1;"/></g><g class="g-gtitle"/><g class="g-xtitle"><text class="xtitle" x="525" y="440" text-anchor="middle" style="font-family: 'Open Sans', verdana, arial, sans-serif; font-size: 20px; fill: rgb(68, 68, 68); opacity: 1; font-weight: normal; white-space: pre;">Es/N0(dB)</text></g><g class="g-ytitle"><text class="ytitle" transform="rotate(-90,30,235)" x="30" y="235" text-anchor="middle" style="font-family: 'Open Sans', verdana, arial, sans-serif; font-size: 20px; fill: rgb(68, 68, 68); opacity: 1; font-weight: normal; white-space: pre;">SER</text></g></g></svg>