<svg class="main-svg" xmlns="http://www.w3.org/2000/svg" xmlns:xlink="http://www.w3.org/1999/xlink" width="1113" height="450" style="" viewBox="0 0 1113 450"><rect x="0" y="0" width="1113" height="450" style="fill: rgb(255, 255, 255); fill-opacity: 1;"/><defs id="defs-35ca6b"><g class="clips"><clipPath id="clip35ca6bxyplot" class="plotclip"><rect width="890" height="270"/></clipPath><clipPath class="axesclip" id="clip35ca6bx"><rect x="80" y="0" width="890" height="450"/></clipPath><clipPath class="axesclip" id="clip35ca6by"><rect x="0" y="100" width="1113" height="270"/></clipPath><clipPath class="axesclip" id="clip35ca6bxy"><rect x="80" y="100" width="890" height="270"/></clipPath></g><g class="gradients"/><g class="patterns"/></defs><g class="bglayer"/><g class="layer-below"><g class="imagelayer"/><g class="shapelayer"/></g><g class="cartesianlayer"><g class="subplot xy"><g class="layer-subplot"><g class="shapelayer"/><g class="imagelayer"/></g><g class="gridlayer"><g class="x"><path class="xgrid crisp" transform="translate(169,0)" d="M0,100v270" style="stroke: rgb(238, 238, 238); stroke-opacity: 1; stroke-width: 1px;"/><path class="xgrid crisp" transform="translate(258,0)" d="M0,100v270" style="stroke: rgb(238, 238, 238); stroke-opacity: 1; stroke-width: 1px;"/><path class="xgrid crisp" transform="translate(347,0)" d="M0,100v270" style="stroke: rgb(238, 238, 238); stroke-opacity: 1; stroke-width: 1px;"/><path class="xgrid crisp" transform="translate(436,0)" d="M0,100v270" style="stroke: rgb(238, 238, 238); stroke-opacity: 1; stroke-width: 1px;"/><path class="xgrid crisp" transform="translate(525,0)" d="M0,100v270" style="stroke: rgb(238, 238, 238); stroke-opacity: 1; stroke-width: 1px;"/><path class="xgrid crisp" transform="translate(614,0)" d="M0,100v270" style="stroke: rgb(238, 238, 238); stroke-opacity: 1; stroke-width: 1px;"/><path class="xgrid crisp" transform="translate(703,0)" d="M0,100v270" style="stroke: rgb(238, 238, 238); stroke-opacity: 1; stroke-width: 1px;"/><path class="xgrid crisp" transform="translate(792,0)" d="M0,100v270" style="stroke: rgb(238, 238, 238); stroke-opacity: 1; stroke-width: 1px;"/><path class="xgrid crisp" transform="translate(881,0)" d="M0,100v270" style="stroke: rgb(238, 238, 238); stroke-opacity: 1; stroke-width: 1px;"/></g><g class="y"/></g><g class="zerolinelayer"><path class="xzl zl crisp" transform="translate(80,0)" d="M0,100v270" style="stroke: rgb(68, 68, 68); stroke-opacity: 1; stroke-width: 1px;"/></g><path class="xlines-below"/><path class="ylines-below"/><g class="overlines-below"/><g class="xaxislayer-below"/><g class="yaxislayer-below"/><g class="overaxes-below"/><g class="plot" transform="translate(80,100)" clip-path="url(#clip35ca6bxyplot)"><g class="scatterlayer mlayer"><g class="trace scatter traceab8630" style="stroke-miterlimit: 2; opacity: 1;"><g class="fills"/><g class="errorbars"/><g class="lines"><path class="js-line" d="M0,13.5Q14.83,15.27 22.25,16.18C29.67,17.09 37.08,18.02 44.5,18.96C51.92,19.9 59.33,20.86 66.75,21.84C74.17,22.82 81.58,23.81 89,24.82C96.42,25.83 103.83,26.85 111.25,27.9C118.67,28.95 126.08,30.02 133.5,31.1C140.92,32.19 148.33,33.29 155.75,34.41C163.17,35.53 170.58,36.68 178,37.84C185.42,39 192.84,40.18 200.25,41.39C207.67,42.6 215.08,43.83 222.5,45.08C229.92,46.33 237.34,47.6 244.75,48.89C252.17,50.19 259.59,51.51 267,52.85C274.42,54.2 281.84,55.57 289.25,56.96C296.67,58.36 304.09,59.78 311.5,61.22C318.92,62.67 326.34,64.13 333.75,65.63C341.17,67.13 348.59,68.66 356,70.22C363.42,71.78 370.84,73.36 378.25,74.97C385.67,76.59 393.09,78.23 400.5,79.91C407.92,81.59 415.34,83.29 422.75,85.03C430.17,86.77 437.59,88.54 445,90.35C452.42,92.16 459.84,94 467.25,95.88C474.67,97.76 482.09,99.67 489.5,101.62C496.92,103.57 504.34,105.56 511.75,107.59C519.17,109.62 526.59,111.68 534,113.79C541.42,115.9 548.84,118.04 556.25,120.23C563.67,122.42 571.09,124.65 578.5,126.93C585.92,129.21 593.34,131.53 600.75,133.9C608.17,136.27 615.59,138.69 623,141.15C630.42,143.62 637.84,146.13 645.25,148.69C652.67,151.26 660.09,153.87 667.5,156.54C674.93,159.21 682.34,161.93 689.75,164.71C697.18,167.49 704.59,170.33 712,173.22C719.43,176.12 726.84,179.06 734.25,182.07C741.68,185.09 749.09,188.16 756.5,191.3C763.93,194.45 771.35,197.65 778.75,200.92C786.18,204.2 793.6,207.54 801,210.94C808.43,214.36 815.85,217.83 823.25,221.38C830.68,224.94 838.1,228.58 845.5,232.28C852.93,236 860.35,239.78 867.75,243.64Q875.18,247.52 890,255.49" style="vector-effect: non-scaling-stroke; fill: none; stroke: rgb(31, 119, 180); stroke-opacity: 1; stroke-width: 2px; opacity: 1;"/></g><g class="points"/><g class="text"/></g><g class="trace scatter trace1f096a" style="stroke-miterlimit: 2; opacity: 1;"><g class="fills"/><g class="errorbars"/><g class="lines"><path class="js-line" d="M0,14.82Q14.82,17.39 22.25,18.46C29.66,19.52 37.07,20.54 44.5,21.21C51.91,21.88 59.37,21.46 66.75,22.47C74.21,23.49 81.54,26.25 89,27.35C96.38,28.44 103.85,28.25 111.25,29.08C118.68,29.91 126.08,31.25 133.5,32.34C140.92,33.42 148.34,34.4 155.75,35.59C163.18,36.78 170.57,38.37 178,39.49C185.4,40.61 192.84,41.3 200.25,42.33C207.67,43.36 215.09,44.42 222.5,45.65C229.93,46.88 237.33,48.45 244.75,49.73C252.16,51.01 259.62,51.79 267,53.32C274.45,54.87 281.79,57.57 289.25,58.99C296.62,60.39 304.08,60.87 311.5,61.83C318.92,62.79 326.39,63.27 333.75,64.77C341.22,66.29 348.57,69.02 356,70.94C363.4,72.85 370.8,74.81 378.25,76.28C385.64,77.74 393.11,78.28 400.5,79.76C407.95,81.25 415.31,83.6 422.75,85.2C430.14,86.79 437.62,87.64 445,89.31C452.45,90.99 459.88,92.98 467.25,95.27C474.71,97.58 482.01,101.08 489.5,103.13C496.84,105.14 504.35,105.87 511.75,107.5C519.19,109.14 526.58,111.17 534,112.94C541.41,114.71 548.92,115.8 556.25,118.12C563.76,120.5 571.06,124.27 578.5,127.14C585.89,129.99 593.29,132.88 600.75,135.28C608.12,137.65 615.61,139.19 623,141.46C630.45,143.75 637.82,146.56 645.25,149C652.65,151.43 660.07,153.78 667.5,156.06C674.91,158.33 682.43,159.89 689.75,162.65C697.27,165.48 704.6,169.41 712,172.93C719.44,176.47 726.71,180.89 734.25,183.82C741.55,186.66 749.19,187.61 756.5,190.38C764.03,193.23 771.3,197.49 778.75,200.79C786.13,204.06 793.63,206.76 801,210.08C808.46,213.44 815.85,217.14 823.25,220.82C830.69,224.52 838.06,228.5 845.5,232.21C852.9,235.9 860.43,239.02 867.75,243.01Q875.26,247.1 890,256.5" style="vector-effect: non-scaling-stroke; fill: none; stroke: rgb(255, 127, 14); stroke-opacity: 1; stroke-width: 2px; opacity: 1;"/></g><g class="points"/><g class="text"/></g></g></g><g class="overplot"/><path class="xlines-above crisp" d="M0,0" style="fill: none;"/><path class="ylines-above crisp" d="M0,0" style="fill: none;"/><g class="overlines-above"/><g class="xaxislayer-above"><g class="xtick"><text text-anchor="middle" x="0" y="383" transform="translate(80,0)" style="font-family: 'Open Sans', verdana, arial, sans-serif; font-size: 12px; fill: rgb(68, 68, 68); fill-opacity: 1; white-space: pre; opacity: 1;">0</text></g><g class="xtick"><text text-anchor="middle" x="0" y="383" style="font-family: 'Open Sans', verdana, arial, sans-serif; font-size: 12px; fill: rgb(68, 68, 68); fill-opacity: 1; white-space: pre; opacity: 1;" transform="translate(169,0)">1</text></g><g class="xtick"><text text-anchor="middle" x="0" y="383" style="font-family: 'Open Sans', verdana, arial, sans-serif; font-size: 12px; fill: rgb(68, 68, 68); fill-opacity: 1; white-space: pre; opacity: 1;" transform="translate(258,0)">2</text></g><g class="xtick"><text text-anchor="middle" x="0" y="383" style="font-family: 'Open Sans', verdana, arial, sans-serif; font-size: 12px; fill: rgb(68, 68, 68); fill-opacity: 1; white-space: pre; opacity: 1;" transform="translate(347,0)">3</text></g><g class="xtick"><text text-anchor="middle" x="0" y="383" style="font-family: 'Open Sans', verdana, arial, sans-serif; font-size: 12px; fill: rgb(68, 68, 68); fill-opacity: 1; white-space: pre; opacity: 1;" transform="translate(436,0)">4</text></g><g class="xtick"><text text-anchor="middle" x="0" y="383" style="font-family: 'Open Sans', verdana, arial, sans-serif; font-size: 12px; fill: rgb(68, 68, 68); fill-opacity: 1; white-space: pre; opacity: 1;" transform="translate(525,0)">5</text></g><g class="xtick"><text text-anchor="middle" x="0" y="383" style="font-family: 'Open Sans', verdana, arial, sans-serif; font-size: 12px; fill: rgb(68, 68, 68); fill-opacity: 1; white-space: pre; opacity: 1;" transform="translate(614,0)">6</text></g><g class="xtick"><text text-anchor="middle" x="0" y="383" style="font-family: 'Open Sans', verdana, arial, sans-serif; font-size: 12px; fill: rgb(68, 68, 68); fill-opacity: 1; white-space: pre; opacity: 1;" transform="translate(703,0)">7</text></g><g class="xtick"><text text-anchor="middle" x="0" y="383" style="font-family: 'Open Sans', verdana, arial, sans-serif; font-size: 12px; fill: rgb(68, 68, 68); fill-opacity: 1; white-space: pre; opacity: 1;" transform="translate(792,0)">8</text></g><g class="xtick"><text text-anchor="middle" x="0" y="383" style="font-family: 'Open Sans', verdana, arial, sans-serif; font-size: 12px; fill: rgb(68, 68, 68); fill-opacity: 1; white-space: pre; opacity: 1;" transform="translate(881,0)">9</text></g><g class="xtick"><text text-anchor="middle" x="0" y="383" style="font-family: 'Open Sans', verdana, arial, sans-serif; font-size: 12px; fill: rgb(68, 68, 68); fill-opacity: 1; white-space: pre; opacity: 1;" transform="translate(970,0)">10</text></g></g><g class="yaxislayer-above"/><g class="overaxes-above"/></g></g><g class="polarlayer"/><g class="ternarylayer"/><g class="geolayer"/><g class="funnelarealayer"/><g class="pielayer"/><g class="iciclelayer"/><g class="treemaplayer"/><g class="sunburstlayer"/><g class="glimages"/><defs id="topdefs-35ca6b"><g class="clips"/><clipPath id="legend35ca6b"><rect width="113" height="48" x="0" y="0"/></clipPath></defs><g class="layer-above"><g class="imagelayer"/><g class="shapelayer"/></g><g class="infolayer"><g class="legend" pointer-events="all" transform="translate(987.8000000000001,100)"><rect class="bg" shape-rendering="crispEdges" width="113" height="48" x="0" y="0" style="stroke: rgb(68, 68, 68); stroke-opacity: 1; fill: rgb(255, 255, 255); fill-opacity: 1; stroke-width: 0px;"/><g class="scrollbox" transform="" clip-path="url(#legend35ca6b)"><g class="groups"><g class="traces" transform="translate(0,14.5)" style="opacity: 1;"><text class="legendtext" text-anchor="start" x="40" y="4.680000000000001" style="font-family: 'Open Sans', verdana, arial, sans-serif; font-size: 12px; fill: rgb(68, 68, 68); fill-opacity: 1; white-space: pre;">Theoretical</text><g class="layers" style="opacity: 1;"><g class="legendfill"/><g class="legendlines"><path class="js-line" d="M5,0h30" style="fill: none; stroke: rgb(31, 119, 180); stroke-opacity: 1; stroke-width: 2px;"/></g><g class="legendsymbols"><g class="legendpoints"/></g></g><rect class="legendtoggle" x="0" y="-9.5" width="107.140625" height="19" style="fill: rgb(0, 0, 0); fill-opacity: 0;"/></g><g class="traces" transform="translate(0,33.5)" style="opacity: 1;"><text class="legendtext" text-anchor="start" x="40" y="4.680000000000001" style="font-family: 'Open Sans', verdana, arial, sans-serif; font-size: 12px; fill: rgb(68, 68, 68); fill-opacity: 1; white-space: pre;">Simulation</text><g class="layers" style="opacity: 1;"><g class="legendfill"/><g class="legendlines"><path class="js-line" d="M5,0h30" style="fill: none; stroke: rgb(255, 127, 14); stroke-opacity: 1; stroke-width: 2px;"/></g><g class="legendsymbols"><g class="legendpoints"/></g></g><rect class="legendtoggle" x="0" y="-9.5" width="107.140625" height="19" style="fill: rgb(0, 0, 0); fill-opacity: 0;"/></g></g></g><rect class="scrollbar" rx="20" ry="3" width="0" height="0" x="0" y="0" style="fill: rgb(128, 139, 164); fill-opacity: 1;"/></g><g class="g-gtitle"/><g class="g-xtitle"><text class="xtitle" x="525" y="440" text-anchor="middle" style="font-family: 'Open Sans', verdana, arial, sans-serif; font-size: 20px; fill: rgb(68, 68, 68); opacity: 1; font-weight: normal; white-space: pre;">Es/N0(dB)</text></g><g class="g-ytitle"><text class="ytitle" transform="rotate(-90,30,235)" x="30" y="235" text-anchor="middle" style="font-family: 'Open Sans', verdana, arial, sans-serif; font-size: 20px; fill: rgb(68, 68, 68); opacity: 1; font-weight: normal; white-space: pre;">SER</text></g></g></svg>