<svg class="main-svg" xmlns="http://www.w3.org/2000/svg" xmlns:xlink="http://www.w3.org/1999/xlink" width="1113" height="450" style="" viewBox="0 0 1113 450"><rect x="0" y="0" width="1113" height="450" style="fill: rgb(255, 255, 255); fill-opacity: 1;"/><defs id="defs-bc3405"><g class="clips"><clipPath id="clipbc3405xyplot" class="plotclip"><rect width="890" height="270"/></clipPath><clipPath class="axesclip" id="clipbc3405x"><rect x="80" y="0" width="890" height="450"/></clipPath><clipPath class="axesclip" id="clipbc3405y"><rect x="0" y="100" width="1113" height="270"/></clipPath><clipPath class="axesclip" id="clipbc3405xy"><rect x="80" y="100" width="890" height="270"/></clipPath></g><g class="gradients"/><g class="patterns"/></defs><g class="bglayer"/><g class="layer-below"><g class="imagelayer"/><g class="shapelayer"/></g><g class="cartesianlayer"><g class="subplot xy"><g class="layer-subplot"><g class="shapelayer"/><g class="imagelayer"/></g><g class="gridlayer"><g class="x"><path class="xgrid crisp" transform="translate(169,0)" d="M0,100v270" style="stroke: rgb(238, 238, 238); stroke-opacity: 1; stroke-width: 1px;"/><path class="xgrid crisp" transform="translate(258,0)" d="M0,100v270" style="stroke: rgb(238, 238, 238); stroke-opacity: 1; stroke-width: 1px;"/><path class="xgrid crisp" transform="translate(347,0)" d="M0,100v270" style="stroke: rgb(238, 238, 238); stroke-opacity: 1; stroke-width: 1px;"/><path class="xgrid crisp" transform="translate(436,0)" d="M0,100v270" style="stroke: rgb(238, 238, 238); stroke-opacity: 1; stroke-width: 1px;"/><path class="xgrid crisp" transform="translate(525,0)" d="M0,100v270" style="stroke: rgb(238, 238, 238); stroke-opacity: 1; stroke-width: 1px;"/><path class="xgrid crisp" transform="translate(614,0)" d="M0,100v270" style="stroke: rgb(238, 238, 238); stroke-opacity: 1; stroke-width: 1px;"/><path class="xgrid crisp" transform="translate(703,0)" d="M0,100v270" style="stroke: rgb(238, 238, 238); stroke-opacity: 1; stroke-width: 1px;"/><path class="xgrid crisp" transform="translate(792,0)" d="M0,100v270" style="stroke: rgb(238, 238, 238); stroke-opacity: 1; stroke-width: 1px;"/><path class="xgrid crisp" transform="translate(881,0)" d="M0,100v270" style="stroke: rgb(238, 238, 238); stroke-opacity: 1; stroke-width: 1px;"/></g><g class="y"><path class="ygrid crisp" transform="translate(0,255.82)" d="M80,0h890" style="stroke: rgb(238, 238, 238); stroke-opacity: 1; stroke-width: 1px;"/></g></g><g class="zerolinelayer"><path class="xzl zl crisp" transform="translate(80,0)" d="M0,100v270" style="stroke: rgb(68, 68, 68); stroke-opacity: 1; stroke-width: 1px;"/></g><path class="xlines-below"/><path class="ylines-below"/><g class="overlines-below"/><g class="xaxislayer-below"/><g class="yaxislayer-below"/><g class="overaxes-below"/><g class="plot" transform="translate(80,100)" clip-path="url(#clipbc3405xyplot)"><g class="scatterlayer mlayer"><g class="trace scatter trace63a109" style="stroke-miterlimit: 2; opacity: 1;"><g class="fills"/><g class="errorbars"/><g class="lines"><path class="js-line" d="M0,13.5Q14.83,14.79 22.25,15.46C29.67,16.13 37.08,16.8 44.5,17.5C51.92,18.2 59.33,18.92 66.75,19.65C74.17,20.39 81.58,21.14 89,21.91C96.42,22.68 103.83,23.46 111.25,24.27C118.67,25.08 126.08,25.91 133.5,26.76C140.92,27.61 148.33,28.47 155.75,29.36C163.17,30.25 170.58,31.16 178,32.09C185.42,33.03 192.83,33.99 200.25,34.97C207.67,35.95 215.09,36.95 222.5,37.98C229.92,39.01 237.34,40.07 244.75,41.15C252.17,42.23 259.59,43.34 267,44.48C274.42,45.62 281.84,46.78 289.25,47.97C296.67,49.17 304.09,50.39 311.5,51.65C318.92,52.91 326.34,54.19 333.75,55.51C341.17,56.83 348.59,58.19 356,59.58C363.42,60.97 370.84,62.39 378.25,63.85C385.67,65.31 393.09,66.8 400.5,68.34C407.92,69.88 415.34,71.45 422.75,73.07C430.17,74.69 437.59,76.34 445,78.04C452.42,79.74 459.84,81.48 467.25,83.27C474.67,85.06 482.09,86.9 489.5,88.78C496.92,90.66 504.34,92.59 511.75,94.57C519.17,96.55 526.59,98.59 534,100.67C541.42,102.76 548.84,104.9 556.25,107.09C563.67,109.29 571.09,111.54 578.5,113.85C585.92,116.16 593.34,118.53 600.75,120.96C608.18,123.4 615.59,125.89 623,128.45C630.43,131.02 637.84,133.64 645.25,136.34C652.68,139.04 660.1,141.81 667.5,144.65C674.93,147.5 682.35,150.41 689.75,153.4C697.18,156.4 704.6,159.47 712,162.62C719.43,165.78 726.85,169.02 734.25,172.33C741.68,175.66 749.1,179.06 756.5,182.55C763.93,186.06 771.35,189.65 778.75,193.33C786.19,197.03 793.6,200.81 801,204.68C808.44,208.57 815.86,212.55 823.25,216.63C830.69,220.73 838.11,224.93 845.5,229.23C852.94,233.56 860.36,237.98 867.75,242.51Q875.19,247.07 890,256.5" style="vector-effect: non-scaling-stroke; fill: none; stroke: rgb(31, 119, 180); stroke-opacity: 1; stroke-width: 2px; opacity: 1;"/></g><g class="points"/><g class="text"/></g><g class="trace scatter tracece330f" style="stroke-miterlimit: 2; opacity: 1;"><g class="fills"/><g class="errorbars"/><g class="lines"><path class="js-line" d="M0,13.75Q14.83,14.94 22.25,15.57C29.67,16.2 37.08,16.86 44.5,17.54C51.92,18.22 59.33,18.95 66.75,19.67C74.17,20.39 81.59,21.06 89,21.84C96.42,22.62 103.83,23.62 111.25,24.36C118.66,25.1 126.09,25.52 133.5,26.28C140.92,27.04 148.34,27.95 155.75,28.92C163.17,29.9 170.57,31.24 178,32.13C185.41,33.01 192.86,33.22 200.25,34.24C207.69,35.27 215.06,37.23 222.5,38.29C229.9,39.35 237.35,39.56 244.75,40.6C252.19,41.65 259.57,43.44 267,44.58C274.4,45.71 281.85,46.28 289.25,47.41C296.68,48.54 304.08,50.08 311.5,51.35C318.91,52.62 326.35,53.61 333.75,55.02C341.18,56.43 348.57,58.34 356,59.81C363.4,61.28 370.85,62.37 378.25,63.83C385.68,65.3 393.1,66.9 400.5,68.61C407.93,70.32 415.29,72.68 422.75,74.09C430.13,75.49 437.65,75.48 445,77.08C452.48,78.71 459.8,81.85 467.25,83.84C474.63,85.82 482.07,87.38 489.5,89.01C496.91,90.63 504.39,91.65 511.75,93.6C519.22,95.58 526.55,98.63 534,100.84C541.39,103.04 548.84,104.76 556.25,106.83C563.68,108.9 571.1,111.03 578.5,113.26C585.93,115.5 593.39,117.57 600.75,120.26C608.23,123 615.51,126.91 623,129.58C630.35,132.2 637.88,133.66 645.25,136.16C652.72,138.69 660.13,141.6 667.5,144.68C674.96,147.8 682.26,151.79 689.75,154.77C697.1,157.7 704.66,159.47 712,162.46C719.5,165.52 726.77,169.8 734.25,172.97C741.6,176.09 749.2,178 756.5,181.37C764.04,184.86 771.28,189.8 778.75,193.68C786.12,197.51 793.61,200.79 801,204.5C808.44,208.23 815.85,212.11 823.25,216C830.68,219.9 838.24,223.31 845.5,227.88C853.09,232.66 860.17,239.4 867.75,244.24Q875.02,248.88 890,256.48" style="vector-effect: non-scaling-stroke; fill: none; stroke: rgb(255, 127, 14); stroke-opacity: 1; stroke-width: 2px; opacity: 1;"/></g><g class="points"/><g class="text"/></g></g></g><g class="overplot"/><path class="xlines-above crisp" d="M0,0" style="fill: none;"/><path class="ylines-above crisp" d="M0,0" style="fill: none;"/><g class="overlines-above"/><g class="xaxislayer-above"><g class="xtick"><text text-anchor="middle" x="0" y="383" transform="translate(80,0)" style="font-family: 'Open Sans', verdana, arial, sans-serif; font-size: 12px; fill: rgb(68, 68, 68); fill-opacity: 1; white-space: pre; opacity: 1;">0</text></g><g class="xtick"><text text-anchor="middle" x="0" y="383" style="font-family: 'Open Sans', verdana, arial, sans-serif; font-size: 12px; fill: rgb(68, 68, 68); fill-opacity: 1; white-space: pre; opacity: 1;" transform="translate(169,0)">1</text></g><g class="xtick"><text text-anchor="middle" x="0" y="383" style="font-family: 'Open Sans', verdana, arial, sans-serif; font-size: 12px; fill: rgb(68, 68, 68); fill-opacity: 1; white-space: pre; opacity: 1;" transform="translate(258,0)">2</text></g><g class="xtick"><text text-anchor="middle" x="0" y="383" style="font-family: 'Open Sans', verdana, arial, sans-serif; font-size: 12px; fill: rgb(68, 68, 68); fill-opacity: 1; white-space: pre; opacity: 1;" transform="translate(347,0)">3</text></g><g class="xtick"><text text-anchor="middle" x="0" y="383" style="font-family: 'Open Sans', verdana, arial, sans-serif; font-size: 12px; fill: rgb(68, 68, 68); fill-opacity: 1; white-space: pre; opacity: 1;" transform="translate(436,0)">4</text></g><g class="xtick"><text text-anchor="middle" x="0" y="383" style="font-family: 'Open Sans', verdana, arial, sans-serif; font-size: 12px; fill: rgb(68, 68, 68); fill-opacity: 1; white-space: pre; opacity: 1;" transform="translate(525,0)">5</text></g><g class="xtick"><text text-anchor="middle" x="0" y="383" style="font-family: 'Open Sans', verdana, arial, sans-serif; font-size: 12px; fill: rgb(68, 68, 68); fill-opacity: 1; white-space: pre; opacity: 1;" transform="translate(614,0)">6</text></g><g class="xtick"><text text-anchor="middle" x="0" y="383" style="font-family: 'Open Sans', verdana, arial, sans-serif; font-size: 12px; fill: rgb(68, 68, 68); fill-opacity: 1; white-space: pre; opacity: 1;" transform="translate(703,0)">7</text></g><g class="xtick"><text text-anchor="middle" x="0" y="383" style="font-family: 'Open Sans', verdana, arial, sans-serif; font-size: 12px; fill: rgb(68, 68, 68); fill-opacity: 1; white-space: pre; opacity: 1;" transform="translate(792,0)">8</text></g><g class="xtick"><text text-anchor="middle" x="0" y="383" style="font-family: 'Open Sans', verdana, arial, sans-serif; font-size: 12px; fill: rgb(68, 68, 68); fill-opacity: 1; white-space: pre; opacity: 1;" transform="translate(881,0)">9</text></g><g class="xtick"><text text-anchor="middle" x="0" y="383" style="font-family: 'Open Sans', verdana, arial, sans-serif; font-size: 12px; fill: rgb(68, 68, 68); fill-opacity: 1; white-space: pre; opacity: 1;" transform="translate(970,0)">10</text></g></g><g class="yaxislayer-above"><g class="ytick"><text text-anchor="end" x="79" y="5.25" transform="translate(0,255.82)" style="font-family: 'Open Sans', verdana, arial, sans-serif; font-size: 15px; fill: rgb(68, 68, 68); fill-opacity: 1; white-space: pre; opacity: 1;">10​<tspan style="font-size:70%" dy="-0.6em">−1</tspan><tspan dy="0.42em">​</tspan></text></g></g><g class="overaxes-above"/></g></g><g class="polarlayer"/><g class="ternarylayer"/><g class="geolayer"/><g class="funnelarealayer"/><g class="pielayer"/><g class="iciclelayer"/><g class="treemaplayer"/><g class="sunburstlayer"/><g class="glimages"/><defs id="topdefs-bc3405"><g class="clips"/><clipPath id="legendbc3405"><rect width="113" height="48" x="0" y="0"/></clipPath></defs><g class="layer-above"><g class="imagelayer"/><g class="shapelayer"/></g><g class="infolayer"><g class="legend" pointer-events="all" transform="translate(987.8000000000001,100)"><rect class="bg" shape-rendering="crispEdges" width="113" height="48" x="0" y="0" style="stroke: rgb(68, 68, 68); stroke-opacity: 1; fill: rgb(255, 255, 255); fill-opacity: 1; stroke-width: 0px;"/><g class="scrollbox" transform="" clip-path="url(#legendbc3405)"><g class="groups"><g class="traces" transform="translate(0,14.5)" style="opacity: 1;"><text class="legendtext" text-anchor="start" x="40" y="4.680000000000001" style="font-family: 'Open Sans', verdana, arial, sans-serif; font-size: 12px; fill: rgb(68, 68, 68); fill-opacity: 1; white-space: pre;">Theoretical</text><g class="layers" style="opacity: 1;"><g class="legendfill"/><g class="legendlines"><path class="js-line" d="M5,0h30" style="fill: none; stroke: rgb(31, 119, 180); stroke-opacity: 1; stroke-width: 2px;"/></g><g class="legendsymbols"><g class="legendpoints"/></g></g><rect class="legendtoggle" x="0" y="-9.5" width="107.140625" height="19" style="fill: rgb(0, 0, 0); fill-opacity: 0;"/></g><g class="traces" transform="translate(0,33.5)" style="opacity: 1;"><text class="legendtext" text-anchor="start" x="40" y="4.680000000000001" style="font-family: 'Open Sans', verdana, arial, sans-serif; font-size: 12px; fill: rgb(68, 68, 68); fill-opacity: 1; white-space: pre;">Simulation</text><g class="layers" style="opacity: 1;"><g class="legendfill"/><g class="legendlines"><path class="js-line" d="M5,0h30" style="fill: none; stroke: rgb(255, 127, 14); stroke-opacity: 1; stroke-width: 2px;"/></g><g class="legendsymbols"><g class="legendpoints"/></g></g><rect class="legendtoggle" x="0" y="-9.5" width="107.140625" height="19" style="fill: rgb(0, 0, 0); fill-opacity: 0;"/></g></g></g><rect class="scrollbar" rx="20" ry="3" width="0" height="0" x="0" y="0" style="fill: rgb(128, 139, 164); fill-opacity: 1;"/></g><g class="g-gtitle"/><g class="g-xtitle"><text class="xtitle" x="525" y="440" text-anchor="middle" style="font-family: 'Open Sans', verdana, arial, sans-serif; font-size: 20px; fill: rgb(68, 68, 68); opacity: 1; font-weight: normal; white-space: pre;">Es/N0(dB)</text></g><g class="g-ytitle"><text class="ytitle" transform="rotate(-90,30,235)" x="30" y="235" text-anchor="middle" style="font-family: 'Open Sans', verdana, arial, sans-serif; font-size: 20px; fill: rgb(68, 68, 68); opacity: 1; font-weight: normal; white-space: pre;">SER</text></g></g></svg>