<svg class="main-svg" xmlns="http://www.w3.org/2000/svg" xmlns:xlink="http://www.w3.org/1999/xlink" width="1113" height="450" style="" viewBox="0 0 1113 450"><rect x="0" y="0" width="1113" height="450" style="fill: rgb(255, 255, 255); fill-opacity: 1;"/><defs id="defs-75920a"><g class="clips"><clipPath id="clip75920axyplot" class="plotclip"><rect width="890" height="270"/></clipPath><clipPath class="axesclip" id="clip75920ax"><rect x="80" y="0" width="890" height="450"/></clipPath><clipPath class="axesclip" id="clip75920ay"><rect x="0" y="100" width="1113" height="270"/></clipPath><clipPath class="axesclip" id="clip75920axy"><rect x="80" y="100" width="890" height="270"/></clipPath></g><g class="gradients"/><g class="patterns"/></defs><g class="bglayer"/><g class="layer-below"><g class="imagelayer"/><g class="shapelayer"/></g><g class="cartesianlayer"><g class="subplot xy"><g class="layer-subplot"><g class="shapelayer"/><g class="imagelayer"/></g><g class="gridlayer"><g class="x"><path class="xgrid crisp" transform="translate(169,0)" d="M0,100v270" style="stroke: rgb(238, 238, 238); stroke-opacity: 1; stroke-width: 1px;"/><path class="xgrid crisp" transform="translate(258,0)" d="M0,100v270" style="stroke: rgb(238, 238, 238); stroke-opacity: 1; stroke-width: 1px;"/><path class="xgrid crisp" transform="translate(347,0)" d="M0,100v270" style="stroke: rgb(238, 238, 238); stroke-opacity: 1; stroke-width: 1px;"/><path class="xgrid crisp" transform="translate(436,0)" d="M0,100v270" style="stroke: rgb(238, 238, 238); stroke-opacity: 1; stroke-width: 1px;"/><path class="xgrid crisp" transform="translate(525,0)" d="M0,100v270" style="stroke: rgb(238, 238, 238); stroke-opacity: 1; stroke-width: 1px;"/><path class="xgrid crisp" transform="translate(614,0)" d="M0,100v270" style="stroke: rgb(238, 238, 238); stroke-opacity: 1; stroke-width: 1px;"/><path class="xgrid crisp" transform="translate(703,0)" d="M0,100v270" style="stroke: rgb(238, 238, 238); stroke-opacity: 1; stroke-width: 1px;"/><path class="xgrid crisp" transform="translate(792,0)" d="M0,100v270" style="stroke: rgb(238, 238, 238); stroke-opacity: 1; stroke-width: 1px;"/><path class="xgrid crisp" transform="translate(881,0)" d="M0,100v270" style="stroke: rgb(238, 238, 238); stroke-opacity: 1; stroke-width: 1px;"/></g><g class="y"><path class="ygrid crisp" transform="translate(0,270.31)" d="M80,0h890" style="stroke: rgb(238, 238, 238); stroke-opacity: 1; stroke-width: 1px;"/><path class="ygrid crisp" transform="translate(0,163.32)" d="M80,0h890" style="stroke: rgb(238, 238, 238); stroke-opacity: 1; stroke-width: 1px;"/></g></g><g class="zerolinelayer"><path class="xzl zl crisp" transform="translate(80,0)" d="M0,100v270" style="stroke: rgb(68, 68, 68); stroke-opacity: 1; stroke-width: 1px;"/></g><path class="xlines-below"/><path class="ylines-below"/><g class="overlines-below"/><g class="xaxislayer-below"/><g class="yaxislayer-below"/><g class="overaxes-below"/><g class="plot" transform="translate(80,100)" clip-path="url(#clip75920axyplot)"><g class="scatterlayer mlayer"><g class="trace scatter trace293b5a" style="stroke-miterlimit: 2; opacity: 1;"><g class="fills"/><g class="errorbars"/><g class="lines"><path class="js-line" d="M0,13.5Q14.83,14.76 22.25,15.41C29.67,16.06 37.08,16.73 44.5,17.41C51.92,18.1 59.33,18.8 66.75,19.52C74.17,20.24 81.58,20.98 89,21.73C96.42,22.49 103.83,23.26 111.25,24.05C118.67,24.84 126.08,25.66 133.5,26.49C140.92,27.33 148.33,28.18 155.75,29.06C163.17,29.94 170.58,30.83 178,31.75C185.42,32.67 192.83,33.62 200.25,34.59C207.67,35.56 215.09,36.55 222.5,37.57C229.92,38.59 237.34,39.63 244.75,40.7C252.17,41.77 259.59,42.86 267,43.99C274.42,45.12 281.84,46.28 289.25,47.46C296.67,48.65 304.09,49.85 311.5,51.1C318.92,52.35 326.34,53.63 333.75,54.94C341.17,56.25 348.59,57.59 356,58.97C363.42,60.35 370.84,61.77 378.25,63.22C385.67,64.67 393.09,66.16 400.5,67.69C407.92,69.22 415.34,70.78 422.75,72.39C430.17,74 437.59,75.66 445,77.35C452.42,79.05 459.84,80.78 467.25,82.56C474.67,84.34 482.09,86.17 489.5,88.05C496.92,89.93 504.34,91.85 511.75,93.83C519.17,95.81 526.59,97.84 534,99.92C541.42,102.01 548.84,104.15 556.25,106.34C563.67,108.54 571.09,110.78 578.5,113.09C585.93,115.4 593.34,117.78 600.75,120.21C608.18,122.65 615.59,125.14 623,127.7C630.43,130.27 637.84,132.9 645.25,135.6C652.68,138.31 660.1,141.08 667.5,143.93C674.93,146.78 682.35,149.7 689.75,152.7C697.18,155.71 704.6,158.78 712,161.94C719.43,165.11 726.85,168.36 734.25,171.69C741.68,175.03 749.1,178.45 756.5,181.96C763.93,185.48 771.35,189.09 778.75,192.79C786.19,196.51 793.6,200.32 801,204.22C808.44,208.14 815.86,212.15 823.25,216.26C830.69,220.4 838.11,224.63 845.5,228.96C852.94,233.32 860.36,237.79 867.75,242.36Q875.19,246.97 890,256.5" style="vector-effect: non-scaling-stroke; fill: none; stroke: rgb(31, 119, 180); stroke-opacity: 1; stroke-width: 2px; opacity: 1;"/></g><g class="points"/><g class="text"/></g><g class="trace scatter trace9ea28d" style="stroke-miterlimit: 2; opacity: 1;"><g class="fills"/><g class="errorbars"/><g class="lines"><path class="js-line" d="M0,13.52Q14.83,15.52 22.25,16.48C29.66,17.44 37.11,17.99 44.5,19.27C51.95,20.56 59.32,24.03 66.75,24.21C74.15,24.39 81.56,20.69 89,20.37C96.4,20.05 103.83,21.61 111.25,22.25C118.67,22.89 126.09,23.4 133.5,24.21C140.93,25.02 148.47,25.12 155.75,27.1C163.31,29.15 170.46,35.76 178,36.52C185.3,37.26 192.95,31.31 200.25,32.05C207.79,32.82 214.97,40.79 222.5,41.48C229.81,42.15 237.32,36.7 244.75,36.52C252.15,36.34 259.67,38.4 267,40.33C274.51,42.31 282.08,44.59 289.25,48.35C296.96,52.39 303.66,61.74 311.5,64.25C318.57,66.52 326.48,65.72 333.75,64.25C341.33,62.71 349.06,53.37 356,54.84C364.06,56.55 370.19,76.86 378.25,78.58C385.19,80.06 393,71.82 400.5,69.26C407.83,66.76 415.33,63.32 422.75,63.32C430.17,63.32 437.54,67.72 445,69.26C452.37,70.78 460.07,70.02 467.25,72.54C474.94,75.24 481.84,82.57 489.5,85.53C496.7,88.31 504.56,87.43 511.75,90.26C519.43,93.28 526.29,101.06 534,103.63C541.16,106.01 548.82,105.51 556.25,105.89C563.66,106.27 571.87,102.41 578.5,105.89C587.3,110.51 592.01,134.56 600.75,138.1C607.4,140.79 616.06,131.67 623,133.67C631.06,135.99 637.14,151.46 645.25,154.68C652.16,157.43 660.72,151.56 667.5,154.68C675.9,158.55 681.61,178.92 689.75,180.68C696.65,182.17 704.58,170.31 712,170.31C719.42,170.31 726.93,176.79 734.25,180.68C741.77,184.68 749.46,195.03 756.5,194.05C764.39,192.95 770.48,173.89 778.75,170.31C785.59,167.35 794.54,166.4 801,170.31C810.49,176.06 814.65,211.21 823.25,212.89C829.95,214.2 838.59,190.85 845.5,194.05C940.23,237.97 694.67,5519.13 845.54297997452,5670Q859.14,5683.59 890,5670" style="vector-effect: non-scaling-stroke; fill: none; stroke: rgb(255, 127, 14); stroke-opacity: 1; stroke-width: 2px; opacity: 1;"/></g><g class="points"/><g class="text"/></g></g></g><g class="overplot"/><path class="xlines-above crisp" d="M0,0" style="fill: none;"/><path class="ylines-above crisp" d="M0,0" style="fill: none;"/><g class="overlines-above"/><g class="xaxislayer-above"><g class="xtick"><text text-anchor="middle" x="0" y="383" transform="translate(80,0)" style="font-family: 'Open Sans', verdana, arial, sans-serif; font-size: 12px; fill: rgb(68, 68, 68); fill-opacity: 1; white-space: pre; opacity: 1;">0</text></g><g class="xtick"><text text-anchor="middle" x="0" y="383" style="font-family: 'Open Sans', verdana, arial, sans-serif; font-size: 12px; fill: rgb(68, 68, 68); fill-opacity: 1; white-space: pre; opacity: 1;" transform="translate(169,0)">1</text></g><g class="xtick"><text text-anchor="middle" x="0" y="383" style="font-family: 'Open Sans', verdana, arial, sans-serif; font-size: 12px; fill: rgb(68, 68, 68); fill-opacity: 1; white-space: pre; opacity: 1;" transform="translate(258,0)">2</text></g><g class="xtick"><text text-anchor="middle" x="0" y="383" style="font-family: 'Open Sans', verdana, arial, sans-serif; font-size: 12px; fill: rgb(68, 68, 68); fill-opacity: 1; white-space: pre; opacity: 1;" transform="translate(347,0)">3</text></g><g class="xtick"><text text-anchor="middle" x="0" y="383" style="font-family: 'Open Sans', verdana, arial, sans-serif; font-size: 12px; fill: rgb(68, 68, 68); fill-opacity: 1; white-space: pre; opacity: 1;" transform="translate(436,0)">4</text></g><g class="xtick"><text text-anchor="middle" x="0" y="383" style="font-family: 'Open Sans', verdana, arial, sans-serif; font-size: 12px; fill: rgb(68, 68, 68); fill-opacity: 1; white-space: pre; opacity: 1;" transform="translate(525,0)">5</text></g><g class="xtick"><text text-anchor="middle" x="0" y="383" style="font-family: 'Open Sans', verdana, arial, sans-serif; font-size: 12px; fill: rgb(68, 68, 68); fill-opacity: 1; white-space: pre; opacity: 1;" transform="translate(614,0)">6</text></g><g class="xtick"><text text-anchor="middle" x="0" y="383" style="font-family: 'Open Sans', verdana, arial, sans-serif; font-size: 12px; fill: rgb(68, 68, 68); fill-opacity: 1; white-space: pre; opacity: 1;" transform="translate(703,0)">7</text></g><g class="xtick"><text text-anchor="middle" x="0" y="383" style="font-family: 'Open Sans', verdana, arial, sans-serif; font-size: 12px; fill: rgb(68, 68, 68); fill-opacity: 1; white-space: pre; opacity: 1;" transform="translate(792,0)">8</text></g><g class="xtick"><text text-anchor="middle" x="0" y="383" style="font-family: 'Open Sans', verdana, arial, sans-serif; font-size: 12px; fill: rgb(68, 68, 68); fill-opacity: 1; white-space: pre; opacity: 1;" transform="translate(881,0)">9</text></g><g class="xtick"><text text-anchor="middle" x="0" y="383" style="font-family: 'Open Sans', verdana, arial, sans-serif; font-size: 12px; fill: rgb(68, 68, 68); fill-opacity: 1; white-space: pre; opacity: 1;" transform="translate(970,0)">10</text></g></g><g class="yaxislayer-above"><g class="ytick"><text text-anchor="end" x="79" y="5.25" transform="translate(0,270.31)" style="font-family: 'Open Sans', verdana, arial, sans-serif; font-size: 15px; fill: rgb(68, 68, 68); fill-opacity: 1; white-space: pre; opacity: 1;">10​<tspan style="font-size:70%" dy="-0.6em">−2</tspan><tspan dy="0.42em">​</tspan></text></g><g class="ytick"><text text-anchor="end" x="79" y="5.25" style="font-family: 'Open Sans', verdana, arial, sans-serif; font-size: 15px; fill: rgb(68, 68, 68); fill-opacity: 1; white-space: pre; opacity: 1;" transform="translate(0,163.32)">10​<tspan style="font-size:70%" dy="-0.6em">−1</tspan><tspan dy="0.42em">​</tspan></text></g></g><g class="overaxes-above"/></g></g><g class="polarlayer"/><g class="ternarylayer"/><g class="geolayer"/><g class="funnelarealayer"/><g class="pielayer"/><g class="iciclelayer"/><g class="treemaplayer"/><g class="sunburstlayer"/><g class="glimages"/><defs id="topdefs-75920a"><g class="clips"/><clipPath id="legend75920a"><rect width="113" height="48" x="0" y="0"/></clipPath></defs><g class="layer-above"><g class="imagelayer"/><g class="shapelayer"/></g><g class="infolayer"><g class="legend" pointer-events="all" transform="translate(987.8000000000001,100)"><rect class="bg" shape-rendering="crispEdges" width="113" height="48" x="0" y="0" style="stroke: rgb(68, 68, 68); stroke-opacity: 1; fill: rgb(255, 255, 255); fill-opacity: 1; stroke-width: 0px;"/><g class="scrollbox" transform="" clip-path="url(#legend75920a)"><g class="groups"><g class="traces" transform="translate(0,14.5)" style="opacity: 1;"><text class="legendtext" text-anchor="start" x="40" y="4.680000000000001" style="font-family: 'Open Sans', verdana, arial, sans-serif; font-size: 12px; fill: rgb(68, 68, 68); fill-opacity: 1; white-space: pre;">Theoretical</text><g class="layers" style="opacity: 1;"><g class="legendfill"/><g class="legendlines"><path class="js-line" d="M5,0h30" style="fill: none; stroke: rgb(31, 119, 180); stroke-opacity: 1; stroke-width: 2px;"/></g><g class="legendsymbols"><g class="legendpoints"/></g></g><rect class="legendtoggle" x="0" y="-9.5" width="107.140625" height="19" style="fill: rgb(0, 0, 0); fill-opacity: 0;"/></g><g class="traces" transform="translate(0,33.5)" style="opacity: 1;"><text class="legendtext" text-anchor="start" x="40" y="4.680000000000001" style="font-family: 'Open Sans', verdana, arial, sans-serif; font-size: 12px; fill: rgb(68, 68, 68); fill-opacity: 1; white-space: pre;">Simulation</text><g class="layers" style="opacity: 1;"><g class="legendfill"/><g class="legendlines"><path class="js-line" d="M5,0h30" style="fill: none; stroke: rgb(255, 127, 14); stroke-opacity: 1; stroke-width: 2px;"/></g><g class="legendsymbols"><g class="legendpoints"/></g></g><rect class="legendtoggle" x="0" y="-9.5" width="107.140625" height="19" style="fill: rgb(0, 0, 0); fill-opacity: 0;"/></g></g></g><rect class="scrollbar" rx="20" ry="3" width="0" height="0" x="0" y="0" style="fill: rgb(128, 139, 164); fill-opacity: 1;"/></g><g class="g-gtitle"/><g class="g-xtitle"><text class="xtitle" x="525" y="440" text-anchor="middle" style="font-family: 'Open Sans', verdana, arial, sans-serif; font-size: 20px; fill: rgb(68, 68, 68); opacity: 1; font-weight: normal; white-space: pre;">Es/N0(dB)</text></g><g class="g-ytitle"><text class="ytitle" transform="rotate(-90,30,235)" x="30" y="235" text-anchor="middle" style="font-family: 'Open Sans', verdana, arial, sans-serif; font-size: 20px; fill: rgb(68, 68, 68); opacity: 1; font-weight: normal; white-space: pre;">SER</text></g></g></svg>