<svg class="main-svg" xmlns="http://www.w3.org/2000/svg" xmlns:xlink="http://www.w3.org/1999/xlink" width="1113" height="450" style="" viewBox="0 0 1113 450"><rect x="0" y="0" width="1113" height="450" style="fill: rgb(255, 255, 255); fill-opacity: 1;"/><defs id="defs-8ffe4b"><g class="clips"><clipPath id="clip8ffe4bxyplot" class="plotclip"><rect width="890" height="270"/></clipPath><clipPath class="axesclip" id="clip8ffe4bx"><rect x="80" y="0" width="890" height="450"/></clipPath><clipPath class="axesclip" id="clip8ffe4by"><rect x="0" y="100" width="1113" height="270"/></clipPath><clipPath class="axesclip" id="clip8ffe4bxy"><rect x="80" y="100" width="890" height="270"/></clipPath></g><g class="gradients"/><g class="patterns"/></defs><g class="bglayer"/><g class="layer-below"><g class="imagelayer"/><g class="shapelayer"/></g><g class="cartesianlayer"><g class="subplot xy"><g class="layer-subplot"><g class="shapelayer"/><g class="imagelayer"/></g><g class="gridlayer"><g class="x"><path class="xgrid crisp" transform="translate(169,0)" d="M0,100v270" style="stroke: rgb(238, 238, 238); stroke-opacity: 1; stroke-width: 1px;"/><path class="xgrid crisp" transform="translate(258,0)" d="M0,100v270" style="stroke: rgb(238, 238, 238); stroke-opacity: 1; stroke-width: 1px;"/><path class="xgrid crisp" transform="translate(347,0)" d="M0,100v270" style="stroke: rgb(238, 238, 238); stroke-opacity: 1; stroke-width: 1px;"/><path class="xgrid crisp" transform="translate(436,0)" d="M0,100v270" style="stroke: rgb(238, 238, 238); stroke-opacity: 1; stroke-width: 1px;"/><path class="xgrid crisp" transform="translate(525,0)" d="M0,100v270" style="stroke: rgb(238, 238, 238); stroke-opacity: 1; stroke-width: 1px;"/><path class="xgrid crisp" transform="translate(614,0)" d="M0,100v270" style="stroke: rgb(238, 238, 238); stroke-opacity: 1; stroke-width: 1px;"/><path class="xgrid crisp" transform="translate(703,0)" d="M0,100v270" style="stroke: rgb(238, 238, 238); stroke-opacity: 1; stroke-width: 1px;"/><path class="xgrid crisp" transform="translate(792,0)" d="M0,100v270" style="stroke: rgb(238, 238, 238); stroke-opacity: 1; stroke-width: 1px;"/><path class="xgrid crisp" transform="translate(881,0)" d="M0,100v270" style="stroke: rgb(238, 238, 238); stroke-opacity: 1; stroke-width: 1px;"/></g><g class="y"><path class="ygrid crisp" transform="translate(0,269.46000000000004)" d="M80,0h890" style="stroke: rgb(238, 238, 238); stroke-opacity: 1; stroke-width: 1px;"/><path class="ygrid crisp" transform="translate(0,163.06)" d="M80,0h890" style="stroke: rgb(238, 238, 238); stroke-opacity: 1; stroke-width: 1px;"/></g></g><g class="zerolinelayer"><path class="xzl zl crisp" transform="translate(80,0)" d="M0,100v270" style="stroke: rgb(68, 68, 68); stroke-opacity: 1; stroke-width: 1px;"/></g><path class="xlines-below"/><path class="ylines-below"/><g class="overlines-below"/><g class="xaxislayer-below"/><g class="yaxislayer-below"/><g class="overaxes-below"/><g class="plot" transform="translate(80,100)" clip-path="url(#clip8ffe4bxyplot)"><g class="scatterlayer mlayer"><g class="trace scatter trace0bfe39" style="stroke-miterlimit: 2; opacity: 1;"><g class="fills"/><g class="errorbars"/><g class="lines"><path class="js-line" d="M0,13.53Q14.83,14.78 22.25,15.43C29.67,16.08 37.08,16.74 44.5,17.42C51.92,18.1 59.33,18.81 66.75,19.52C74.17,20.24 81.58,20.96 89,21.71C96.42,22.46 103.83,23.23 111.25,24.02C118.67,24.81 126.08,25.62 133.5,26.45C140.92,27.28 148.33,28.13 155.75,29C163.17,29.87 170.58,30.76 178,31.68C185.42,32.6 192.83,33.54 200.25,34.5C207.67,35.46 215.09,36.45 222.5,37.46C229.92,38.47 237.34,39.51 244.75,40.57C252.17,41.64 259.59,42.73 267,43.85C274.42,44.97 281.84,46.11 289.25,47.29C296.67,48.47 304.09,49.68 311.5,50.92C318.92,52.16 326.34,53.43 333.75,54.73C341.17,56.03 348.59,57.37 356,58.74C363.42,60.11 370.84,61.53 378.25,62.97C385.67,64.42 393.09,65.89 400.5,67.41C407.92,68.93 415.34,70.49 422.75,72.09C430.17,73.69 437.59,75.33 445,77.01C452.42,78.7 459.84,80.43 467.25,82.2C474.67,83.98 482.09,85.79 489.5,87.66C496.92,89.53 504.34,91.45 511.75,93.41C519.17,95.38 526.59,97.39 534,99.46C541.42,101.53 548.84,103.66 556.25,105.84C563.67,108.03 571.09,110.26 578.5,112.56C585.92,114.86 593.34,117.21 600.75,119.63C608.18,122.05 615.59,124.54 623,127.09C630.43,129.64 637.84,132.26 645.25,134.94C652.68,137.63 660.1,140.39 667.5,143.22C674.93,146.06 682.35,148.96 689.75,151.94C697.18,154.93 704.6,158 712,161.14C719.43,164.29 726.85,167.52 734.25,170.83C741.68,174.15 749.1,177.55 756.5,181.04C763.93,184.54 771.35,188.13 778.75,191.81C786.19,195.51 793.6,199.29 801,203.17C808.44,207.07 815.86,211.05 823.25,215.14C830.69,219.25 838.11,223.47 845.5,227.78C852.94,232.12 860.36,236.55 867.75,241.1Q875.19,245.68 890,255.16" style="vector-effect: non-scaling-stroke; fill: none; stroke: rgb(31, 119, 180); stroke-opacity: 1; stroke-width: 2px; opacity: 1;"/></g><g class="points"/><g class="text"/></g><g class="trace scatter trace018f49" style="stroke-miterlimit: 2; opacity: 1;"><g class="fills"/><g class="errorbars"/><g class="lines"><path class="js-line" d="M0,13.5Q14.83,15.03 22.25,15.66C29.66,16.29 37.09,16.65 44.5,17.27C51.92,17.89 59.34,18.62 66.75,19.37C74.17,20.12 81.59,20.87 89,21.77C96.42,22.67 103.82,24.06 111.25,24.77C118.65,25.47 126.1,25.2 133.5,26C140.94,26.8 148.32,28.57 155.75,29.59C163.15,30.61 170.59,31.15 178,32.14C185.43,33.14 192.82,34.62 200.25,35.56C207.65,36.49 215.08,37.05 222.5,37.76C229.92,38.47 237.36,38.75 244.75,39.82C252.19,40.9 259.57,42.88 267,44.24C274.41,45.6 281.82,46.97 289.25,47.97C296.65,48.97 304.11,49.13 311.5,50.26C318.95,51.4 326.32,53.49 333.75,54.82C341.15,56.15 348.59,56.97 356,58.24C363.43,59.51 370.85,60.86 378.25,62.44C385.69,64.02 393.06,66.23 400.5,67.72C407.89,69.2 415.34,70.07 422.75,71.36C430.17,72.65 437.67,73.41 445,75.45C452.51,77.54 459.74,81.76 467.25,83.87C474.58,85.93 482.11,86.44 489.5,88.04C496.94,89.65 504.36,91.51 511.75,93.51C519.19,95.52 526.59,97.85 534,100.08C541.42,102.31 548.79,104.94 556.25,106.9C563.63,108.84 571.2,109.43 578.5,111.81C586.04,114.27 593.24,118.89 600.75,121.55C608.07,124.15 615.59,125.61 623,127.68C630.42,129.75 637.9,131.45 645.25,133.96C652.74,136.52 660.01,140.41 667.5,142.92C674.84,145.38 682.42,146.36 689.75,148.91C697.26,151.52 704.6,155.23 712,158.48C719.43,161.74 726.86,165.01 734.25,168.45C741.69,171.91 749.26,174.9 756.5,179.19C764.12,183.71 771.05,191.01 778.75,195.1C785.92,198.91 793.74,199.89 801,203.37C808.59,207.01 815.83,212.23 823.25,216.66C830.67,221.09 838.07,225.57 845.5,229.95C852.9,234.32 860.36,238.49 867.75,242.9Q875.19,247.34 890,256.5" style="vector-effect: non-scaling-stroke; fill: none; stroke: rgb(255, 127, 14); stroke-opacity: 1; stroke-width: 2px; opacity: 1;"/></g><g class="points"/><g class="text"/></g></g></g><g class="overplot"/><path class="xlines-above crisp" d="M0,0" style="fill: none;"/><path class="ylines-above crisp" d="M0,0" style="fill: none;"/><g class="overlines-above"/><g class="xaxislayer-above"><g class="xtick"><text text-anchor="middle" x="0" y="383" transform="translate(80,0)" style="font-family: 'Open Sans', verdana, arial, sans-serif; font-size: 12px; fill: rgb(68, 68, 68); fill-opacity: 1; white-space: pre; opacity: 1;">0</text></g><g class="xtick"><text text-anchor="middle" x="0" y="383" style="font-family: 'Open Sans', verdana, arial, sans-serif; font-size: 12px; fill: rgb(68, 68, 68); fill-opacity: 1; white-space: pre; opacity: 1;" transform="translate(169,0)">1</text></g><g class="xtick"><text text-anchor="middle" x="0" y="383" style="font-family: 'Open Sans', verdana, arial, sans-serif; font-size: 12px; fill: rgb(68, 68, 68); fill-opacity: 1; white-space: pre; opacity: 1;" transform="translate(258,0)">2</text></g><g class="xtick"><text text-anchor="middle" x="0" y="383" style="font-family: 'Open Sans', verdana, arial, sans-serif; font-size: 12px; fill: rgb(68, 68, 68); fill-opacity: 1; white-space: pre; opacity: 1;" transform="translate(347,0)">3</text></g><g class="xtick"><text text-anchor="middle" x="0" y="383" style="font-family: 'Open Sans', verdana, arial, sans-serif; font-size: 12px; fill: rgb(68, 68, 68); fill-opacity: 1; white-space: pre; opacity: 1;" transform="translate(436,0)">4</text></g><g class="xtick"><text text-anchor="middle" x="0" y="383" style="font-family: 'Open Sans', verdana, arial, sans-serif; font-size: 12px; fill: rgb(68, 68, 68); fill-opacity: 1; white-space: pre; opacity: 1;" transform="translate(525,0)">5</text></g><g class="xtick"><text text-anchor="middle" x="0" y="383" style="font-family: 'Open Sans', verdana, arial, sans-serif; font-size: 12px; fill: rgb(68, 68, 68); fill-opacity: 1; white-space: pre; opacity: 1;" transform="translate(614,0)">6</text></g><g class="xtick"><text text-anchor="middle" x="0" y="383" style="font-family: 'Open Sans', verdana, arial, sans-serif; font-size: 12px; fill: rgb(68, 68, 68); fill-opacity: 1; white-space: pre; opacity: 1;" transform="translate(703,0)">7</text></g><g class="xtick"><text text-anchor="middle" x="0" y="383" style="font-family: 'Open Sans', verdana, arial, sans-serif; font-size: 12px; fill: rgb(68, 68, 68); fill-opacity: 1; white-space: pre; opacity: 1;" transform="translate(792,0)">8</text></g><g class="xtick"><text text-anchor="middle" x="0" y="383" style="font-family: 'Open Sans', verdana, arial, sans-serif; font-size: 12px; fill: rgb(68, 68, 68); fill-opacity: 1; white-space: pre; opacity: 1;" transform="translate(881,0)">9</text></g><g class="xtick"><text text-anchor="middle" x="0" y="383" style="font-family: 'Open Sans', verdana, arial, sans-serif; font-size: 12px; fill: rgb(68, 68, 68); fill-opacity: 1; white-space: pre; opacity: 1;" transform="translate(970,0)">10</text></g></g><g class="yaxislayer-above"><g class="ytick"><text text-anchor="end" x="79" y="5.25" transform="translate(0,269.46000000000004)" style="font-family: 'Open Sans', verdana, arial, sans-serif; font-size: 15px; fill: rgb(68, 68, 68); fill-opacity: 1; white-space: pre; opacity: 1;">10​<tspan style="font-size:70%" dy="-0.6em">−2</tspan><tspan dy="0.42em">​</tspan></text></g><g class="ytick"><text text-anchor="end" x="79" y="5.25" style="font-family: 'Open Sans', verdana, arial, sans-serif; font-size: 15px; fill: rgb(68, 68, 68); fill-opacity: 1; white-space: pre; opacity: 1;" transform="translate(0,163.06)">10​<tspan style="font-size:70%" dy="-0.6em">−1</tspan><tspan dy="0.42em">​</tspan></text></g></g><g class="overaxes-above"/></g></g><g class="polarlayer"/><g class="ternarylayer"/><g class="geolayer"/><g class="funnelarealayer"/><g class="pielayer"/><g class="iciclelayer"/><g class="treemaplayer"/><g class="sunburstlayer"/><g class="glimages"/><defs id="topdefs-8ffe4b"><g class="clips"/><clipPath id="legend8ffe4b"><rect width="113" height="48" x="0" y="0"/></clipPath></defs><g class="layer-above"><g class="imagelayer"/><g class="shapelayer"/></g><g class="infolayer"><g class="legend" pointer-events="all" transform="translate(987.8000000000001,100)"><rect class="bg" shape-rendering="crispEdges" width="113" height="48" x="0" y="0" style="stroke: rgb(68, 68, 68); stroke-opacity: 1; fill: rgb(255, 255, 255); fill-opacity: 1; stroke-width: 0px;"/><g class="scrollbox" transform="" clip-path="url(#legend8ffe4b)"><g class="groups"><g class="traces" transform="translate(0,14.5)" style="opacity: 1;"><text class="legendtext" text-anchor="start" x="40" y="4.680000000000001" style="font-family: 'Open Sans', verdana, arial, sans-serif; font-size: 12px; fill: rgb(68, 68, 68); fill-opacity: 1; white-space: pre;">Theoretical</text><g class="layers" style="opacity: 1;"><g class="legendfill"/><g class="legendlines"><path class="js-line" d="M5,0h30" style="fill: none; stroke: rgb(31, 119, 180); stroke-opacity: 1; stroke-width: 2px;"/></g><g class="legendsymbols"><g class="legendpoints"/></g></g><rect class="legendtoggle" x="0" y="-9.5" width="107.140625" height="19" style="fill: rgb(0, 0, 0); fill-opacity: 0;"/></g><g class="traces" transform="translate(0,33.5)" style="opacity: 1;"><text class="legendtext" text-anchor="start" x="40" y="4.680000000000001" style="font-family: 'Open Sans', verdana, arial, sans-serif; font-size: 12px; fill: rgb(68, 68, 68); fill-opacity: 1; white-space: pre;">Simulation</text><g class="layers" style="opacity: 1;"><g class="legendfill"/><g class="legendlines"><path class="js-line" d="M5,0h30" style="fill: none; stroke: rgb(255, 127, 14); stroke-opacity: 1; stroke-width: 2px;"/></g><g class="legendsymbols"><g class="legendpoints"/></g></g><rect class="legendtoggle" x="0" y="-9.5" width="107.140625" height="19" style="fill: rgb(0, 0, 0); fill-opacity: 0;"/></g></g></g><rect class="scrollbar" rx="20" ry="3" width="0" height="0" x="0" y="0" style="fill: rgb(128, 139, 164); fill-opacity: 1;"/></g><g class="g-gtitle"/><g class="g-xtitle"><text class="xtitle" x="525" y="440" text-anchor="middle" style="font-family: 'Open Sans', verdana, arial, sans-serif; font-size: 20px; fill: rgb(68, 68, 68); opacity: 1; font-weight: normal; white-space: pre;">Es/N0(dB)</text></g><g class="g-ytitle"><text class="ytitle" transform="rotate(-90,30,235)" x="30" y="235" text-anchor="middle" style="font-family: 'Open Sans', verdana, arial, sans-serif; font-size: 20px; fill: rgb(68, 68, 68); opacity: 1; font-weight: normal; white-space: pre;">SER</text></g></g></svg>