<svg class="main-svg" xmlns="http://www.w3.org/2000/svg" xmlns:xlink="http://www.w3.org/1999/xlink" width="1113" height="450" style="" viewBox="0 0 1113 450"><rect x="0" y="0" width="1113" height="450" style="fill: rgb(255, 255, 255); fill-opacity: 1;"/><defs id="defs-deb111"><g class="clips"><clipPath id="clipdeb111xyplot" class="plotclip"><rect width="890" height="270"/></clipPath><clipPath class="axesclip" id="clipdeb111x"><rect x="80" y="0" width="890" height="450"/></clipPath><clipPath class="axesclip" id="clipdeb111y"><rect x="0" y="100" width="1113" height="270"/></clipPath><clipPath class="axesclip" id="clipdeb111xy"><rect x="80" y="100" width="890" height="270"/></clipPath></g><g class="gradients"/><g class="patterns"/></defs><g class="bglayer"/><g class="layer-below"><g class="imagelayer"/><g class="shapelayer"/></g><g class="cartesianlayer"><g class="subplot xy"><g class="layer-subplot"><g class="shapelayer"/><g class="imagelayer"/></g><g class="gridlayer"><g class="x"><path class="xgrid crisp" transform="translate(169,0)" d="M0,100v270" style="stroke: rgb(238, 238, 238); stroke-opacity: 1; stroke-width: 1px;"/><path class="xgrid crisp" transform="translate(258,0)" d="M0,100v270" style="stroke: rgb(238, 238, 238); stroke-opacity: 1; stroke-width: 1px;"/><path class="xgrid crisp" transform="translate(347,0)" d="M0,100v270" style="stroke: rgb(238, 238, 238); stroke-opacity: 1; stroke-width: 1px;"/><path class="xgrid crisp" transform="translate(436,0)" d="M0,100v270" style="stroke: rgb(238, 238, 238); stroke-opacity: 1; stroke-width: 1px;"/><path class="xgrid crisp" transform="translate(525,0)" d="M0,100v270" style="stroke: rgb(238, 238, 238); stroke-opacity: 1; stroke-width: 1px;"/><path class="xgrid crisp" transform="translate(614,0)" d="M0,100v270" style="stroke: rgb(238, 238, 238); stroke-opacity: 1; stroke-width: 1px;"/><path class="xgrid crisp" transform="translate(703,0)" d="M0,100v270" style="stroke: rgb(238, 238, 238); stroke-opacity: 1; stroke-width: 1px;"/><path class="xgrid crisp" transform="translate(792,0)" d="M0,100v270" style="stroke: rgb(238, 238, 238); stroke-opacity: 1; stroke-width: 1px;"/><path class="xgrid crisp" transform="translate(881,0)" d="M0,100v270" style="stroke: rgb(238, 238, 238); stroke-opacity: 1; stroke-width: 1px;"/></g><g class="y"><path class="ygrid crisp" transform="translate(0,269.34000000000003)" d="M80,0h890" style="stroke: rgb(238, 238, 238); stroke-opacity: 1; stroke-width: 1px;"/><path class="ygrid crisp" transform="translate(0,163.02)" d="M80,0h890" style="stroke: rgb(238, 238, 238); stroke-opacity: 1; stroke-width: 1px;"/></g></g><g class="zerolinelayer"><path class="xzl zl crisp" transform="translate(80,0)" d="M0,100v270" style="stroke: rgb(68, 68, 68); stroke-opacity: 1; stroke-width: 1px;"/></g><path class="xlines-below"/><path class="ylines-below"/><g class="overlines-below"/><g class="xaxislayer-below"/><g class="yaxislayer-below"/><g class="overaxes-below"/><g class="plot" transform="translate(80,100)" clip-path="url(#clipdeb111xyplot)"><g class="scatterlayer mlayer"><g class="trace scatter tracecbcc87" style="stroke-miterlimit: 2; opacity: 1;"><g class="fills"/><g class="errorbars"/><g class="lines"><path class="js-line" d="M0,13.52Q14.83,14.77 22.25,15.42C29.67,16.07 37.08,16.73 44.5,17.41C51.92,18.09 59.33,18.8 66.75,19.51C74.17,20.23 81.58,20.95 89,21.7C96.42,22.45 103.83,23.22 111.25,24.01C118.67,24.8 126.08,25.61 133.5,26.44C140.92,27.27 148.33,28.11 155.75,28.98C163.17,29.85 170.58,30.74 178,31.66C185.42,32.58 192.83,33.52 200.25,34.48C207.67,35.44 215.09,36.43 222.5,37.44C229.92,38.45 237.34,39.49 244.75,40.55C252.17,41.61 259.59,42.7 267,43.82C274.42,44.94 281.84,46.08 289.25,47.26C296.67,48.44 304.09,49.65 311.5,50.89C318.92,52.13 326.34,53.4 333.75,54.7C341.17,56 348.59,57.34 356,58.71C363.42,60.08 370.84,61.49 378.25,62.93C385.67,64.37 393.09,65.85 400.5,67.37C407.92,68.89 415.34,70.44 422.75,72.04C430.17,73.64 437.59,75.28 445,76.96C452.42,78.65 459.84,80.38 467.25,82.15C474.67,83.92 482.09,85.73 489.5,87.6C496.92,89.47 504.34,91.39 511.75,93.35C519.17,95.32 526.59,97.33 534,99.4C541.42,101.47 548.84,103.59 556.25,105.77C563.67,107.95 571.09,110.19 578.5,112.48C585.93,114.78 593.34,117.13 600.75,119.55C608.18,121.97 615.59,124.45 623,127C630.43,129.55 637.84,132.17 645.25,134.85C652.68,137.54 660.1,140.29 667.5,143.12C674.93,145.96 682.35,148.86 689.75,151.84C697.18,154.83 704.6,157.88 712,161.02C719.43,164.17 726.85,167.4 734.25,170.71C741.68,174.03 749.1,177.42 756.5,180.91C763.94,184.41 771.35,188 778.75,191.68C786.19,195.38 793.6,199.16 801,203.03C808.44,206.93 815.86,210.91 823.25,214.99C830.69,219.1 838.11,223.31 845.5,227.62C852.94,231.96 860.36,236.39 867.75,240.93Q875.19,245.51 890,254.98" style="vector-effect: non-scaling-stroke; fill: none; stroke: rgb(31, 119, 180); stroke-opacity: 1; stroke-width: 2px; opacity: 1;"/></g><g class="points"/><g class="text"/></g><g class="trace scatter tracea4ca19" style="stroke-miterlimit: 2; opacity: 1;"><g class="fills"/><g class="errorbars"/><g class="lines"><path class="js-line" d="M0,13.5Q14.84,14.56 22.25,15.25C29.67,15.94 37.08,16.94 44.5,17.65C51.91,18.36 59.34,18.8 66.75,19.49C74.17,20.18 81.58,21.01 89,21.79C96.42,22.57 103.83,23.38 111.25,24.17C118.67,24.96 126.08,25.73 133.5,26.52C140.92,27.31 148.34,28.06 155.75,28.89C163.17,29.72 170.59,30.52 178,31.49C185.42,32.46 192.83,33.71 200.25,34.72C207.66,35.73 215.08,36.6 222.5,37.57C229.92,38.54 237.34,39.5 244.75,40.55C252.17,41.6 259.58,42.79 267,43.87C274.41,44.95 281.84,45.86 289.25,47.05C296.68,48.24 304.08,49.74 311.5,51C318.91,52.26 326.34,53.38 333.75,54.63C341.17,55.88 348.59,57.11 356,58.52C363.43,59.94 370.83,61.66 378.25,63.12C385.66,64.57 393.1,65.74 400.5,67.25C407.93,68.77 415.33,70.59 422.75,72.23C430.16,73.87 437.59,75.39 445,77.07C452.42,78.75 459.83,80.56 467.25,82.31C474.67,84.06 482.1,85.67 489.5,87.59C496.94,89.52 504.31,91.96 511.75,93.86C519.14,95.75 526.62,97.01 534,98.97C541.45,100.95 548.83,103.45 556.25,105.7C563.67,107.95 571.09,110.17 578.5,112.46C585.92,114.76 593.35,117.01 600.75,119.46C608.18,121.92 615.59,124.58 623,127.18C630.42,129.78 637.84,132.39 645.25,135.05C652.67,137.71 660.09,140.42 667.5,143.15C674.92,145.89 682.36,148.53 689.75,151.47C697.2,154.43 704.62,157.57 712,160.86C719.45,164.18 726.8,168.01 734.25,171.31C741.63,174.58 749.13,177.25 756.5,180.57C763.96,183.93 771.32,187.8 778.75,191.35C786.16,194.89 793.7,197.86 801,201.84C808.54,205.95 815.73,211.52 823.25,215.72C830.57,219.81 838.18,222.67 845.5,226.78C853.02,231 860.4,235.88 867.75,240.78Q875.23,245.77 890,256.5" style="vector-effect: non-scaling-stroke; fill: none; stroke: rgb(255, 127, 14); stroke-opacity: 1; stroke-width: 2px; opacity: 1;"/></g><g class="points"/><g class="text"/></g></g></g><g class="overplot"/><path class="xlines-above crisp" d="M0,0" style="fill: none;"/><path class="ylines-above crisp" d="M0,0" style="fill: none;"/><g class="overlines-above"/><g class="xaxislayer-above"><g class="xtick"><text text-anchor="middle" x="0" y="383" transform="translate(80,0)" style="font-family: 'Open Sans', verdana, arial, sans-serif; font-size: 12px; fill: rgb(68, 68, 68); fill-opacity: 1; white-space: pre; opacity: 1;">0</text></g><g class="xtick"><text text-anchor="middle" x="0" y="383" style="font-family: 'Open Sans', verdana, arial, sans-serif; font-size: 12px; fill: rgb(68, 68, 68); fill-opacity: 1; white-space: pre; opacity: 1;" transform="translate(169,0)">1</text></g><g class="xtick"><text text-anchor="middle" x="0" y="383" style="font-family: 'Open Sans', verdana, arial, sans-serif; font-size: 12px; fill: rgb(68, 68, 68); fill-opacity: 1; white-space: pre; opacity: 1;" transform="translate(258,0)">2</text></g><g class="xtick"><text text-anchor="middle" x="0" y="383" style="font-family: 'Open Sans', verdana, arial, sans-serif; font-size: 12px; fill: rgb(68, 68, 68); fill-opacity: 1; white-space: pre; opacity: 1;" transform="translate(347,0)">3</text></g><g class="xtick"><text text-anchor="middle" x="0" y="383" style="font-family: 'Open Sans', verdana, arial, sans-serif; font-size: 12px; fill: rgb(68, 68, 68); fill-opacity: 1; white-space: pre; opacity: 1;" transform="translate(436,0)">4</text></g><g class="xtick"><text text-anchor="middle" x="0" y="383" style="font-family: 'Open Sans', verdana, arial, sans-serif; font-size: 12px; fill: rgb(68, 68, 68); fill-opacity: 1; white-space: pre; opacity: 1;" transform="translate(525,0)">5</text></g><g class="xtick"><text text-anchor="middle" x="0" y="383" style="font-family: 'Open Sans', verdana, arial, sans-serif; font-size: 12px; fill: rgb(68, 68, 68); fill-opacity: 1; white-space: pre; opacity: 1;" transform="translate(614,0)">6</text></g><g class="xtick"><text text-anchor="middle" x="0" y="383" style="font-family: 'Open Sans', verdana, arial, sans-serif; font-size: 12px; fill: rgb(68, 68, 68); fill-opacity: 1; white-space: pre; opacity: 1;" transform="translate(703,0)">7</text></g><g class="xtick"><text text-anchor="middle" x="0" y="383" style="font-family: 'Open Sans', verdana, arial, sans-serif; font-size: 12px; fill: rgb(68, 68, 68); fill-opacity: 1; white-space: pre; opacity: 1;" transform="translate(792,0)">8</text></g><g class="xtick"><text text-anchor="middle" x="0" y="383" style="font-family: 'Open Sans', verdana, arial, sans-serif; font-size: 12px; fill: rgb(68, 68, 68); fill-opacity: 1; white-space: pre; opacity: 1;" transform="translate(881,0)">9</text></g><g class="xtick"><text text-anchor="middle" x="0" y="383" style="font-family: 'Open Sans', verdana, arial, sans-serif; font-size: 12px; fill: rgb(68, 68, 68); fill-opacity: 1; white-space: pre; opacity: 1;" transform="translate(970,0)">10</text></g></g><g class="yaxislayer-above"><g class="ytick"><text text-anchor="end" x="79" y="5.25" transform="translate(0,269.34000000000003)" style="font-family: 'Open Sans', verdana, arial, sans-serif; font-size: 15px; fill: rgb(68, 68, 68); fill-opacity: 1; white-space: pre; opacity: 1;">10​<tspan style="font-size:70%" dy="-0.6em">−2</tspan><tspan dy="0.42em">​</tspan></text></g><g class="ytick"><text text-anchor="end" x="79" y="5.25" style="font-family: 'Open Sans', verdana, arial, sans-serif; font-size: 15px; fill: rgb(68, 68, 68); fill-opacity: 1; white-space: pre; opacity: 1;" transform="translate(0,163.02)">10​<tspan style="font-size:70%" dy="-0.6em">−1</tspan><tspan dy="0.42em">​</tspan></text></g></g><g class="overaxes-above"/></g></g><g class="polarlayer"/><g class="ternarylayer"/><g class="geolayer"/><g class="funnelarealayer"/><g class="pielayer"/><g class="iciclelayer"/><g class="treemaplayer"/><g class="sunburstlayer"/><g class="glimages"/><defs id="topdefs-deb111"><g class="clips"/><clipPath id="legenddeb111"><rect width="113" height="48" x="0" y="0"/></clipPath></defs><g class="layer-above"><g class="imagelayer"/><g class="shapelayer"/></g><g class="infolayer"><g class="legend" pointer-events="all" transform="translate(987.8000000000001,100)"><rect class="bg" shape-rendering="crispEdges" width="113" height="48" x="0" y="0" style="stroke: rgb(68, 68, 68); stroke-opacity: 1; fill: rgb(255, 255, 255); fill-opacity: 1; stroke-width: 0px;"/><g class="scrollbox" transform="" clip-path="url(#legenddeb111)"><g class="groups"><g class="traces" transform="translate(0,14.5)" style="opacity: 1;"><text class="legendtext" text-anchor="start" x="40" y="4.680000000000001" style="font-family: 'Open Sans', verdana, arial, sans-serif; font-size: 12px; fill: rgb(68, 68, 68); fill-opacity: 1; white-space: pre;">Theoretical</text><g class="layers" style="opacity: 1;"><g class="legendfill"/><g class="legendlines"><path class="js-line" d="M5,0h30" style="fill: none; stroke: rgb(31, 119, 180); stroke-opacity: 1; stroke-width: 2px;"/></g><g class="legendsymbols"><g class="legendpoints"/></g></g><rect class="legendtoggle" x="0" y="-9.5" width="107.140625" height="19" style="fill: rgb(0, 0, 0); fill-opacity: 0;"/></g><g class="traces" transform="translate(0,33.5)" style="opacity: 1;"><text class="legendtext" text-anchor="start" x="40" y="4.680000000000001" style="font-family: 'Open Sans', verdana, arial, sans-serif; font-size: 12px; fill: rgb(68, 68, 68); fill-opacity: 1; white-space: pre;">Simulation</text><g class="layers" style="opacity: 1;"><g class="legendfill"/><g class="legendlines"><path class="js-line" d="M5,0h30" style="fill: none; stroke: rgb(255, 127, 14); stroke-opacity: 1; stroke-width: 2px;"/></g><g class="legendsymbols"><g class="legendpoints"/></g></g><rect class="legendtoggle" x="0" y="-9.5" width="107.140625" height="19" style="fill: rgb(0, 0, 0); fill-opacity: 0;"/></g></g></g><rect class="scrollbar" rx="20" ry="3" width="0" height="0" x="0" y="0" style="fill: rgb(128, 139, 164); fill-opacity: 1;"/></g><g class="g-gtitle"/><g class="g-xtitle"><text class="xtitle" x="525" y="440" text-anchor="middle" style="font-family: 'Open Sans', verdana, arial, sans-serif; font-size: 20px; fill: rgb(68, 68, 68); opacity: 1; font-weight: normal; white-space: pre;">Es/N0(dB)</text></g><g class="g-ytitle"><text class="ytitle" transform="rotate(-90,30,235)" x="30" y="235" text-anchor="middle" style="font-family: 'Open Sans', verdana, arial, sans-serif; font-size: 20px; fill: rgb(68, 68, 68); opacity: 1; font-weight: normal; white-space: pre;">SER</text></g></g></svg>