<svg class="main-svg" xmlns="http://www.w3.org/2000/svg" xmlns:xlink="http://www.w3.org/1999/xlink" width="1113" height="450" style="" viewBox="0 0 1113 450"><rect x="0" y="0" width="1113" height="450" style="fill: rgb(255, 255, 255); fill-opacity: 1;"/><defs id="defs-8cb55f"><g class="clips"><clipPath id="clip8cb55fxyplot" class="plotclip"><rect width="890" height="270"/></clipPath><clipPath class="axesclip" id="clip8cb55fx"><rect x="80" y="0" width="890" height="450"/></clipPath><clipPath class="axesclip" id="clip8cb55fy"><rect x="0" y="100" width="1113" height="270"/></clipPath><clipPath class="axesclip" id="clip8cb55fxy"><rect x="80" y="100" width="890" height="270"/></clipPath></g><g class="gradients"/><g class="patterns"/></defs><g class="bglayer"/><g class="layer-below"><g class="imagelayer"/><g class="shapelayer"/></g><g class="cartesianlayer"><g class="subplot xy"><g class="layer-subplot"><g class="shapelayer"/><g class="imagelayer"/></g><g class="gridlayer"><g class="x"><path class="xgrid crisp" transform="translate(169,0)" d="M0,100v270" style="stroke: rgb(238, 238, 238); stroke-opacity: 1; stroke-width: 1px;"/><path class="xgrid crisp" transform="translate(258,0)" d="M0,100v270" style="stroke: rgb(238, 238, 238); stroke-opacity: 1; stroke-width: 1px;"/><path class="xgrid crisp" transform="translate(347,0)" d="M0,100v270" style="stroke: rgb(238, 238, 238); stroke-opacity: 1; stroke-width: 1px;"/><path class="xgrid crisp" transform="translate(436,0)" d="M0,100v270" style="stroke: rgb(238, 238, 238); stroke-opacity: 1; stroke-width: 1px;"/><path class="xgrid crisp" transform="translate(525,0)" d="M0,100v270" style="stroke: rgb(238, 238, 238); stroke-opacity: 1; stroke-width: 1px;"/><path class="xgrid crisp" transform="translate(614,0)" d="M0,100v270" style="stroke: rgb(238, 238, 238); stroke-opacity: 1; stroke-width: 1px;"/><path class="xgrid crisp" transform="translate(703,0)" d="M0,100v270" style="stroke: rgb(238, 238, 238); stroke-opacity: 1; stroke-width: 1px;"/><path class="xgrid crisp" transform="translate(792,0)" d="M0,100v270" style="stroke: rgb(238, 238, 238); stroke-opacity: 1; stroke-width: 1px;"/><path class="xgrid crisp" transform="translate(881,0)" d="M0,100v270" style="stroke: rgb(238, 238, 238); stroke-opacity: 1; stroke-width: 1px;"/></g><g class="y"/></g><g class="zerolinelayer"><path class="xzl zl crisp" transform="translate(80,0)" d="M0,100v270" style="stroke: rgb(68, 68, 68); stroke-opacity: 1; stroke-width: 1px;"/></g><path class="xlines-below"/><path class="ylines-below"/><g class="overlines-below"/><g class="xaxislayer-below"/><g class="yaxislayer-below"/><g class="overaxes-below"/><g class="plot" transform="translate(80,100)" clip-path="url(#clip8cb55fxyplot)"><g class="scatterlayer mlayer"><g class="trace scatter trace49efe7" style="stroke-miterlimit: 2; opacity: 1;"><g class="fills"/><g class="errorbars"/><g class="lines"><path class="js-line" d="M0,13.5Q14.83,14.97 22.25,15.73C29.67,16.49 37.08,17.26 44.5,18.05C51.92,18.84 59.33,19.65 66.75,20.47C74.17,21.3 81.58,22.14 89,23C96.42,23.86 103.83,24.74 111.25,25.63C118.67,26.53 126.08,27.44 133.5,28.37C140.92,29.3 148.33,30.26 155.75,31.23C163.17,32.21 170.58,33.2 178,34.22C185.42,35.24 192.83,36.28 200.25,37.34C207.67,38.4 215.09,39.49 222.5,40.6C229.92,41.71 237.34,42.84 244.75,44C252.17,45.16 259.59,46.34 267,47.55C274.42,48.76 281.84,50 289.25,51.27C296.67,52.54 304.09,53.83 311.5,55.15C318.92,56.47 326.34,57.82 333.75,59.2C341.17,60.58 348.59,61.99 356,63.44C363.42,64.89 370.84,66.37 378.25,67.88C385.67,69.39 393.09,70.94 400.5,72.52C407.92,74.1 415.34,75.72 422.75,77.38C430.17,79.04 437.59,80.74 445,82.47C452.42,84.21 459.84,85.97 467.25,87.79C474.67,89.61 482.09,91.47 489.5,93.37C496.92,95.27 504.34,97.22 511.75,99.21C519.17,101.2 526.59,103.24 534,105.33C541.42,107.42 548.84,109.56 556.25,111.75C563.67,113.94 571.09,116.18 578.5,118.47C585.92,120.77 593.34,123.11 600.75,125.52C608.18,127.93 615.59,130.4 623,132.92C630.43,135.45 637.84,138.03 645.25,140.68C652.68,143.33 660.09,146.04 667.5,148.82C674.93,151.61 682.35,154.45 689.75,157.37C697.18,160.29 704.6,163.28 712,166.34C719.43,169.41 726.85,172.55 734.25,175.76C741.68,178.99 749.1,182.29 756.5,185.66C763.93,189.05 771.35,192.51 778.75,196.05C786.18,199.61 793.6,203.25 801,206.97C808.44,210.71 815.85,214.53 823.25,218.44C830.69,222.37 838.1,226.39 845.5,230.5C852.94,234.63 860.36,238.85 867.75,243.17Q875.19,247.52 890,256.5" style="vector-effect: non-scaling-stroke; fill: none; stroke: rgb(31, 119, 180); stroke-opacity: 1; stroke-width: 2px; opacity: 1;"/></g><g class="points"/><g class="text"/></g><g class="trace scatter tracef6264e" style="stroke-miterlimit: 2; opacity: 1;"><g class="fills"/><g class="errorbars"/><g class="lines"><path class="js-line" d="M0,14.7Q14.84,15.73 22.25,16.34C29.67,16.96 37.08,17.73 44.5,18.39C51.92,19.05 59.34,19.53 66.75,20.28C74.17,21.04 81.59,21.88 89,22.92C96.43,23.96 103.81,25.66 111.25,26.53C118.65,27.4 126.1,27.34 133.5,28.14C140.93,28.94 148.33,30.4 155.75,31.33C163.16,32.26 170.61,32.63 178,33.74C185.44,34.86 192.81,36.89 200.25,38.02C207.64,39.14 215.1,39.45 222.5,40.52C229.93,41.6 237.33,43.22 244.75,44.48C252.16,45.74 259.58,46.88 267,48.06C274.42,49.24 281.84,50.31 289.25,51.58C296.68,52.86 304.08,54.39 311.5,55.71C318.91,57.02 326.34,58.15 333.75,59.47C341.17,60.79 348.59,62.17 356,63.64C363.42,65.11 370.83,66.79 378.25,68.27C385.66,69.75 393.13,70.71 400.5,72.51C407.96,74.33 415.29,77.32 422.75,79.15C430.12,80.96 437.6,81.9 445,83.47C452.43,85.05 459.82,87.02 467.25,88.61C474.65,90.2 482.1,91.4 489.5,93.01C496.93,94.63 504.36,96.33 511.75,98.29C519.19,100.26 526.56,102.79 534,104.81C541.4,106.82 548.85,108.42 556.25,110.38C563.68,112.35 571.2,113.88 578.5,116.6C586.04,119.4 593.2,124.4 600.75,127.07C608.04,129.65 615.63,130.4 623,132.53C630.46,134.69 637.89,137.14 645.25,139.96C652.73,142.83 660.01,146.85 667.5,149.63C674.84,152.35 682.4,153.86 689.75,156.52C697.23,159.23 704.59,162.63 712,165.77C719.43,168.92 726.88,171.99 734.25,175.4C741.71,178.85 748.99,183.23 756.5,186.39C763.82,189.47 771.47,190.93 778.75,194.22C786.32,197.64 793.59,202.5 801,206.68C808.42,210.87 815.79,215.3 823.25,219.34C830.62,223.33 838.12,226.81 845.5,230.77C852.95,234.76 860.26,239.37 867.75,243.2Q875.1,246.96 890,253.6" style="vector-effect: non-scaling-stroke; fill: none; stroke: rgb(255, 127, 14); stroke-opacity: 1; stroke-width: 2px; opacity: 1;"/></g><g class="points"/><g class="text"/></g></g></g><g class="overplot"/><path class="xlines-above crisp" d="M0,0" style="fill: none;"/><path class="ylines-above crisp" d="M0,0" style="fill: none;"/><g class="overlines-above"/><g class="xaxislayer-above"><g class="xtick"><text text-anchor="middle" x="0" y="383" transform="translate(80,0)" style="font-family: 'Open Sans', verdana, arial, sans-serif; font-size: 12px; fill: rgb(68, 68, 68); fill-opacity: 1; white-space: pre; opacity: 1;">0</text></g><g class="xtick"><text text-anchor="middle" x="0" y="383" style="font-family: 'Open Sans', verdana, arial, sans-serif; font-size: 12px; fill: rgb(68, 68, 68); fill-opacity: 1; white-space: pre; opacity: 1;" transform="translate(169,0)">1</text></g><g class="xtick"><text text-anchor="middle" x="0" y="383" style="font-family: 'Open Sans', verdana, arial, sans-serif; font-size: 12px; fill: rgb(68, 68, 68); fill-opacity: 1; white-space: pre; opacity: 1;" transform="translate(258,0)">2</text></g><g class="xtick"><text text-anchor="middle" x="0" y="383" style="font-family: 'Open Sans', verdana, arial, sans-serif; font-size: 12px; fill: rgb(68, 68, 68); fill-opacity: 1; white-space: pre; opacity: 1;" transform="translate(347,0)">3</text></g><g class="xtick"><text text-anchor="middle" x="0" y="383" style="font-family: 'Open Sans', verdana, arial, sans-serif; font-size: 12px; fill: rgb(68, 68, 68); fill-opacity: 1; white-space: pre; opacity: 1;" transform="translate(436,0)">4</text></g><g class="xtick"><text text-anchor="middle" x="0" y="383" style="font-family: 'Open Sans', verdana, arial, sans-serif; font-size: 12px; fill: rgb(68, 68, 68); fill-opacity: 1; white-space: pre; opacity: 1;" transform="translate(525,0)">5</text></g><g class="xtick"><text text-anchor="middle" x="0" y="383" style="font-family: 'Open Sans', verdana, arial, sans-serif; font-size: 12px; fill: rgb(68, 68, 68); fill-opacity: 1; white-space: pre; opacity: 1;" transform="translate(614,0)">6</text></g><g class="xtick"><text text-anchor="middle" x="0" y="383" style="font-family: 'Open Sans', verdana, arial, sans-serif; font-size: 12px; fill: rgb(68, 68, 68); fill-opacity: 1; white-space: pre; opacity: 1;" transform="translate(703,0)">7</text></g><g class="xtick"><text text-anchor="middle" x="0" y="383" style="font-family: 'Open Sans', verdana, arial, sans-serif; font-size: 12px; fill: rgb(68, 68, 68); fill-opacity: 1; white-space: pre; opacity: 1;" transform="translate(792,0)">8</text></g><g class="xtick"><text text-anchor="middle" x="0" y="383" style="font-family: 'Open Sans', verdana, arial, sans-serif; font-size: 12px; fill: rgb(68, 68, 68); fill-opacity: 1; white-space: pre; opacity: 1;" transform="translate(881,0)">9</text></g><g class="xtick"><text text-anchor="middle" x="0" y="383" style="font-family: 'Open Sans', verdana, arial, sans-serif; font-size: 12px; fill: rgb(68, 68, 68); fill-opacity: 1; white-space: pre; opacity: 1;" transform="translate(970,0)">10</text></g></g><g class="yaxislayer-above"/><g class="overaxes-above"/></g></g><g class="polarlayer"/><g class="ternarylayer"/><g class="geolayer"/><g class="funnelarealayer"/><g class="pielayer"/><g class="iciclelayer"/><g class="treemaplayer"/><g class="sunburstlayer"/><g class="glimages"/><defs id="topdefs-8cb55f"><g class="clips"/><clipPath id="legend8cb55f"><rect width="113" height="48" x="0" y="0"/></clipPath></defs><g class="layer-above"><g class="imagelayer"/><g class="shapelayer"/></g><g class="infolayer"><g class="legend" pointer-events="all" transform="translate(987.8000000000001,100)"><rect class="bg" shape-rendering="crispEdges" width="113" height="48" x="0" y="0" style="stroke: rgb(68, 68, 68); stroke-opacity: 1; fill: rgb(255, 255, 255); fill-opacity: 1; stroke-width: 0px;"/><g class="scrollbox" transform="" clip-path="url(#legend8cb55f)"><g class="groups"><g class="traces" transform="translate(0,14.5)" style="opacity: 1;"><text class="legendtext" text-anchor="start" x="40" y="4.680000000000001" style="font-family: 'Open Sans', verdana, arial, sans-serif; font-size: 12px; fill: rgb(68, 68, 68); fill-opacity: 1; white-space: pre;">Theoretical</text><g class="layers" style="opacity: 1;"><g class="legendfill"/><g class="legendlines"><path class="js-line" d="M5,0h30" style="fill: none; stroke: rgb(31, 119, 180); stroke-opacity: 1; stroke-width: 2px;"/></g><g class="legendsymbols"><g class="legendpoints"/></g></g><rect class="legendtoggle" x="0" y="-9.5" width="107.140625" height="19" style="fill: rgb(0, 0, 0); fill-opacity: 0;"/></g><g class="traces" transform="translate(0,33.5)" style="opacity: 1;"><text class="legendtext" text-anchor="start" x="40" y="4.680000000000001" style="font-family: 'Open Sans', verdana, arial, sans-serif; font-size: 12px; fill: rgb(68, 68, 68); fill-opacity: 1; white-space: pre;">Simulation</text><g class="layers" style="opacity: 1;"><g class="legendfill"/><g class="legendlines"><path class="js-line" d="M5,0h30" style="fill: none; stroke: rgb(255, 127, 14); stroke-opacity: 1; stroke-width: 2px;"/></g><g class="legendsymbols"><g class="legendpoints"/></g></g><rect class="legendtoggle" x="0" y="-9.5" width="107.140625" height="19" style="fill: rgb(0, 0, 0); fill-opacity: 0;"/></g></g></g><rect class="scrollbar" rx="20" ry="3" width="0" height="0" x="0" y="0" style="fill: rgb(128, 139, 164); fill-opacity: 1;"/></g><g class="g-gtitle"/><g class="g-xtitle"><text class="xtitle" x="525" y="440" text-anchor="middle" style="font-family: 'Open Sans', verdana, arial, sans-serif; font-size: 20px; fill: rgb(68, 68, 68); opacity: 1; font-weight: normal; white-space: pre;">Es/N0(dB)</text></g><g class="g-ytitle"><text class="ytitle" transform="rotate(-90,30,235)" x="30" y="235" text-anchor="middle" style="font-family: 'Open Sans', verdana, arial, sans-serif; font-size: 20px; fill: rgb(68, 68, 68); opacity: 1; font-weight: normal; white-space: pre;">SER</text></g></g></svg>