<svg class="main-svg" xmlns="http://www.w3.org/2000/svg" xmlns:xlink="http://www.w3.org/1999/xlink" width="1113" height="450" style="" viewBox="0 0 1113 450"><rect x="0" y="0" width="1113" height="450" style="fill: rgb(255, 255, 255); fill-opacity: 1;"/><defs id="defs-8d5935"><g class="clips"><clipPath id="clip8d5935xyplot" class="plotclip"><rect width="890" height="270"/></clipPath><clipPath class="axesclip" id="clip8d5935x"><rect x="80" y="0" width="890" height="450"/></clipPath><clipPath class="axesclip" id="clip8d5935y"><rect x="0" y="100" width="1113" height="270"/></clipPath><clipPath class="axesclip" id="clip8d5935xy"><rect x="80" y="100" width="890" height="270"/></clipPath></g><g class="gradients"/><g class="patterns"/></defs><g class="bglayer"/><g class="layer-below"><g class="imagelayer"/><g class="shapelayer"/></g><g class="cartesianlayer"><g class="subplot xy"><g class="layer-subplot"><g class="shapelayer"/><g class="imagelayer"/></g><g class="gridlayer"><g class="x"><path class="xgrid crisp" transform="translate(169,0)" d="M0,100v270" style="stroke: rgb(238, 238, 238); stroke-opacity: 1; stroke-width: 1px;"/><path class="xgrid crisp" transform="translate(258,0)" d="M0,100v270" style="stroke: rgb(238, 238, 238); stroke-opacity: 1; stroke-width: 1px;"/><path class="xgrid crisp" transform="translate(347,0)" d="M0,100v270" style="stroke: rgb(238, 238, 238); stroke-opacity: 1; stroke-width: 1px;"/><path class="xgrid crisp" transform="translate(436,0)" d="M0,100v270" style="stroke: rgb(238, 238, 238); stroke-opacity: 1; stroke-width: 1px;"/><path class="xgrid crisp" transform="translate(525,0)" d="M0,100v270" style="stroke: rgb(238, 238, 238); stroke-opacity: 1; stroke-width: 1px;"/><path class="xgrid crisp" transform="translate(614,0)" d="M0,100v270" style="stroke: rgb(238, 238, 238); stroke-opacity: 1; stroke-width: 1px;"/><path class="xgrid crisp" transform="translate(703,0)" d="M0,100v270" style="stroke: rgb(238, 238, 238); stroke-opacity: 1; stroke-width: 1px;"/><path class="xgrid crisp" transform="translate(792,0)" d="M0,100v270" style="stroke: rgb(238, 238, 238); stroke-opacity: 1; stroke-width: 1px;"/><path class="xgrid crisp" transform="translate(881,0)" d="M0,100v270" style="stroke: rgb(238, 238, 238); stroke-opacity: 1; stroke-width: 1px;"/></g><g class="y"/></g><g class="zerolinelayer"><path class="xzl zl crisp" transform="translate(80,0)" d="M0,100v270" style="stroke: rgb(68, 68, 68); stroke-opacity: 1; stroke-width: 1px;"/></g><path class="xlines-below"/><path class="ylines-below"/><g class="overlines-below"/><g class="xaxislayer-below"/><g class="yaxislayer-below"/><g class="overaxes-below"/><g class="plot" transform="translate(80,100)" clip-path="url(#clip8d5935xyplot)"><g class="scatterlayer mlayer"><g class="trace scatter tracef45669" style="stroke-miterlimit: 2; opacity: 1;"><g class="fills"/><g class="errorbars"/><g class="lines"><path class="js-line" d="M0,13.5Q14.83,15.54 22.25,16.58C29.67,17.62 37.08,18.68 44.5,19.76C51.92,20.84 59.33,21.93 66.75,23.04C74.17,24.15 81.58,25.28 89,26.42C96.42,27.56 103.83,28.72 111.25,29.9C118.67,31.08 126.08,32.28 133.5,33.5C140.92,34.72 148.33,35.95 155.75,37.2C163.17,38.45 170.59,39.73 178,41.02C185.42,42.31 192.84,43.63 200.25,44.96C207.67,46.29 215.09,47.65 222.5,49.02C229.92,50.4 237.34,51.79 244.75,53.21C252.17,54.63 259.59,56.07 267,57.53C274.42,58.99 281.84,60.47 289.25,61.98C296.67,63.49 304.09,65.02 311.5,66.58C318.92,68.14 326.34,69.72 333.75,71.32C341.17,72.93 348.59,74.56 356,76.21C363.42,77.87 370.84,79.54 378.25,81.25C385.67,82.96 393.09,84.7 400.5,86.46C407.92,88.22 415.34,90.01 422.75,91.83C430.17,93.65 437.59,95.49 445,97.37C452.42,99.25 459.84,101.15 467.25,103.09C474.67,105.03 482.09,106.99 489.5,108.99C496.92,110.99 504.34,113.02 511.75,115.08C519.17,117.14 526.59,119.24 534,121.37C541.42,123.5 548.84,125.66 556.25,127.86C563.67,130.06 571.09,132.29 578.5,134.56C585.92,136.83 593.34,139.14 600.75,141.48C608.17,143.83 615.59,146.21 623,148.63C630.42,151.05 637.84,153.5 645.25,156C652.67,158.5 660.09,161.04 667.5,163.62C674.92,166.2 682.34,168.83 689.75,171.49C697.17,174.16 704.59,176.87 712,179.62C719.42,182.38 726.84,185.17 734.25,188.01C741.67,190.86 749.09,193.75 756.5,196.69C763.92,199.63 771.34,202.62 778.75,205.65C786.18,208.69 793.59,211.78 801,214.91C808.43,218.05 815.84,221.24 823.25,224.48C830.68,227.73 838.09,231.02 845.5,234.37C852.93,237.73 860.34,241.14 867.75,244.6Q875.18,248.07 890,255.17" style="vector-effect: non-scaling-stroke; fill: none; stroke: rgb(31, 119, 180); stroke-opacity: 1; stroke-width: 2px; opacity: 1;"/></g><g class="points"/><g class="text"/></g><g class="trace scatter tracedf19a9" style="stroke-miterlimit: 2; opacity: 1;"><g class="fills"/><g class="errorbars"/><g class="lines"><path class="js-line" d="M0,16.54Q14.86,17.2 22.25,18.13C29.69,19.07 37.05,21.32 44.5,22.15C51.89,22.97 59.37,22.2 66.75,23.09C74.2,23.98 81.59,26.02 89,27.52C96.42,29.02 103.82,30.72 111.25,32.11C118.65,33.49 126.08,34.65 133.5,35.82C140.91,36.99 148.36,37.74 155.75,39.11C163.19,40.49 170.54,43.15 178,44.06C185.37,44.96 192.96,43.13 200.25,44.6C207.8,46.12 214.95,51.94 222.5,53.33C229.79,54.67 237.35,52.6 244.75,53.1C252.19,53.61 259.65,54.68 267,56.38C274.49,58.11 281.79,61.4 289.25,63.46C296.63,65.5 304.07,67.13 311.5,68.72C318.9,70.31 326.31,71.83 333.75,73C341.15,74.16 348.62,74.42 356,75.7C363.45,76.99 370.84,78.96 378.25,80.73C385.68,82.51 393.12,84.23 400.5,86.36C407.95,88.51 415.26,91.88 422.75,93.61C430.09,95.3 437.64,95.14 445,96.69C452.47,98.27 459.83,100.93 467.25,103.05C474.67,105.18 482.03,107.83 489.5,109.44C496.86,111.03 504.51,110.42 511.75,112.69C519.36,115.08 526.39,121.42 534,123.79C541.24,126.04 548.88,125.42 556.25,126.92C563.71,128.44 571.2,130.19 578.5,132.87C586.04,135.64 593.23,140.47 600.75,143.39C608.07,146.23 615.58,148 623,150.23C630.41,152.45 637.8,154.88 645.25,156.73C652.63,158.56 660.29,158.59 667.5,161.31C675.15,164.19 682.1,171.09 689.75,173.98C696.96,176.7 704.62,176.73 712,178.58C719.46,180.44 727.07,181.81 734.25,185.13C741.94,188.69 748.85,195.92 756.5,199.73C763.71,203.32 771.3,205.29 778.75,207.71C786.13,210.1 793.73,211.21 801,214.17C808.58,217.26 815.82,222.17 823.25,226.06C830.65,229.93 837.87,235.1 845.5,237.45C852.73,239.68 860.68,237.43 867.75,240.24Q875.59,243.35 890,256.5" style="vector-effect: non-scaling-stroke; fill: none; stroke: rgb(255, 127, 14); stroke-opacity: 1; stroke-width: 2px; opacity: 1;"/></g><g class="points"/><g class="text"/></g></g></g><g class="overplot"/><path class="xlines-above crisp" d="M0,0" style="fill: none;"/><path class="ylines-above crisp" d="M0,0" style="fill: none;"/><g class="overlines-above"/><g class="xaxislayer-above"><g class="xtick"><text text-anchor="middle" x="0" y="383" transform="translate(80,0)" style="font-family: 'Open Sans', verdana, arial, sans-serif; font-size: 12px; fill: rgb(68, 68, 68); fill-opacity: 1; white-space: pre; opacity: 1;">0</text></g><g class="xtick"><text text-anchor="middle" x="0" y="383" style="font-family: 'Open Sans', verdana, arial, sans-serif; font-size: 12px; fill: rgb(68, 68, 68); fill-opacity: 1; white-space: pre; opacity: 1;" transform="translate(169,0)">1</text></g><g class="xtick"><text text-anchor="middle" x="0" y="383" style="font-family: 'Open Sans', verdana, arial, sans-serif; font-size: 12px; fill: rgb(68, 68, 68); fill-opacity: 1; white-space: pre; opacity: 1;" transform="translate(258,0)">2</text></g><g class="xtick"><text text-anchor="middle" x="0" y="383" style="font-family: 'Open Sans', verdana, arial, sans-serif; font-size: 12px; fill: rgb(68, 68, 68); fill-opacity: 1; white-space: pre; opacity: 1;" transform="translate(347,0)">3</text></g><g class="xtick"><text text-anchor="middle" x="0" y="383" style="font-family: 'Open Sans', verdana, arial, sans-serif; font-size: 12px; fill: rgb(68, 68, 68); fill-opacity: 1; white-space: pre; opacity: 1;" transform="translate(436,0)">4</text></g><g class="xtick"><text text-anchor="middle" x="0" y="383" style="font-family: 'Open Sans', verdana, arial, sans-serif; font-size: 12px; fill: rgb(68, 68, 68); fill-opacity: 1; white-space: pre; opacity: 1;" transform="translate(525,0)">5</text></g><g class="xtick"><text text-anchor="middle" x="0" y="383" style="font-family: 'Open Sans', verdana, arial, sans-serif; font-size: 12px; fill: rgb(68, 68, 68); fill-opacity: 1; white-space: pre; opacity: 1;" transform="translate(614,0)">6</text></g><g class="xtick"><text text-anchor="middle" x="0" y="383" style="font-family: 'Open Sans', verdana, arial, sans-serif; font-size: 12px; fill: rgb(68, 68, 68); fill-opacity: 1; white-space: pre; opacity: 1;" transform="translate(703,0)">7</text></g><g class="xtick"><text text-anchor="middle" x="0" y="383" style="font-family: 'Open Sans', verdana, arial, sans-serif; font-size: 12px; fill: rgb(68, 68, 68); fill-opacity: 1; white-space: pre; opacity: 1;" transform="translate(792,0)">8</text></g><g class="xtick"><text text-anchor="middle" x="0" y="383" style="font-family: 'Open Sans', verdana, arial, sans-serif; font-size: 12px; fill: rgb(68, 68, 68); fill-opacity: 1; white-space: pre; opacity: 1;" transform="translate(881,0)">9</text></g><g class="xtick"><text text-anchor="middle" x="0" y="383" style="font-family: 'Open Sans', verdana, arial, sans-serif; font-size: 12px; fill: rgb(68, 68, 68); fill-opacity: 1; white-space: pre; opacity: 1;" transform="translate(970,0)">10</text></g></g><g class="yaxislayer-above"/><g class="overaxes-above"/></g></g><g class="polarlayer"/><g class="ternarylayer"/><g class="geolayer"/><g class="funnelarealayer"/><g class="pielayer"/><g class="iciclelayer"/><g class="treemaplayer"/><g class="sunburstlayer"/><g class="glimages"/><defs id="topdefs-8d5935"><g class="clips"/><clipPath id="legend8d5935"><rect width="113" height="48" x="0" y="0"/></clipPath></defs><g class="layer-above"><g class="imagelayer"/><g class="shapelayer"/></g><g class="infolayer"><g class="legend" pointer-events="all" transform="translate(987.8000000000001,100)"><rect class="bg" shape-rendering="crispEdges" width="113" height="48" x="0" y="0" style="stroke: rgb(68, 68, 68); stroke-opacity: 1; fill: rgb(255, 255, 255); fill-opacity: 1; stroke-width: 0px;"/><g class="scrollbox" transform="" clip-path="url(#legend8d5935)"><g class="groups"><g class="traces" transform="translate(0,14.5)" style="opacity: 1;"><text class="legendtext" text-anchor="start" x="40" y="4.680000000000001" style="font-family: 'Open Sans', verdana, arial, sans-serif; font-size: 12px; fill: rgb(68, 68, 68); fill-opacity: 1; white-space: pre;">Theoretical</text><g class="layers" style="opacity: 1;"><g class="legendfill"/><g class="legendlines"><path class="js-line" d="M5,0h30" style="fill: none; stroke: rgb(31, 119, 180); stroke-opacity: 1; stroke-width: 2px;"/></g><g class="legendsymbols"><g class="legendpoints"/></g></g><rect class="legendtoggle" x="0" y="-9.5" width="107.140625" height="19" style="fill: rgb(0, 0, 0); fill-opacity: 0;"/></g><g class="traces" transform="translate(0,33.5)" style="opacity: 1;"><text class="legendtext" text-anchor="start" x="40" y="4.680000000000001" style="font-family: 'Open Sans', verdana, arial, sans-serif; font-size: 12px; fill: rgb(68, 68, 68); fill-opacity: 1; white-space: pre;">Simulation</text><g class="layers" style="opacity: 1;"><g class="legendfill"/><g class="legendlines"><path class="js-line" d="M5,0h30" style="fill: none; stroke: rgb(255, 127, 14); stroke-opacity: 1; stroke-width: 2px;"/></g><g class="legendsymbols"><g class="legendpoints"/></g></g><rect class="legendtoggle" x="0" y="-9.5" width="107.140625" height="19" style="fill: rgb(0, 0, 0); fill-opacity: 0;"/></g></g></g><rect class="scrollbar" rx="20" ry="3" width="0" height="0" x="0" y="0" style="fill: rgb(128, 139, 164); fill-opacity: 1;"/></g><g class="g-gtitle"/><g class="g-xtitle"><text class="xtitle" x="525" y="440" text-anchor="middle" style="font-family: 'Open Sans', verdana, arial, sans-serif; font-size: 20px; fill: rgb(68, 68, 68); opacity: 1; font-weight: normal; white-space: pre;">Es/N0(dB)</text></g><g class="g-ytitle"><text class="ytitle" transform="rotate(-90,30,235)" x="30" y="235" text-anchor="middle" style="font-family: 'Open Sans', verdana, arial, sans-serif; font-size: 20px; fill: rgb(68, 68, 68); opacity: 1; font-weight: normal; white-space: pre;">SER</text></g></g></svg>