<svg class="main-svg" xmlns="http://www.w3.org/2000/svg" xmlns:xlink="http://www.w3.org/1999/xlink" width="1113" height="450" style="" viewBox="0 0 1113 450"><rect x="0" y="0" width="1113" height="450" style="fill: rgb(255, 255, 255); fill-opacity: 1;"/><defs id="defs-e9863e"><g class="clips"><clipPath id="clipe9863exyplot" class="plotclip"><rect width="890" height="270"/></clipPath><clipPath class="axesclip" id="clipe9863ex"><rect x="80" y="0" width="890" height="450"/></clipPath><clipPath class="axesclip" id="clipe9863ey"><rect x="0" y="100" width="1113" height="270"/></clipPath><clipPath class="axesclip" id="clipe9863exy"><rect x="80" y="100" width="890" height="270"/></clipPath></g><g class="gradients"/><g class="patterns"/></defs><g class="bglayer"/><g class="layer-below"><g class="imagelayer"/><g class="shapelayer"/></g><g class="cartesianlayer"><g class="subplot xy"><g class="layer-subplot"><g class="shapelayer"/><g class="imagelayer"/></g><g class="gridlayer"><g class="x"><path class="xgrid crisp" transform="translate(169,0)" d="M0,100v270" style="stroke: rgb(238, 238, 238); stroke-opacity: 1; stroke-width: 1px;"/><path class="xgrid crisp" transform="translate(258,0)" d="M0,100v270" style="stroke: rgb(238, 238, 238); stroke-opacity: 1; stroke-width: 1px;"/><path class="xgrid crisp" transform="translate(347,0)" d="M0,100v270" style="stroke: rgb(238, 238, 238); stroke-opacity: 1; stroke-width: 1px;"/><path class="xgrid crisp" transform="translate(436,0)" d="M0,100v270" style="stroke: rgb(238, 238, 238); stroke-opacity: 1; stroke-width: 1px;"/><path class="xgrid crisp" transform="translate(525,0)" d="M0,100v270" style="stroke: rgb(238, 238, 238); stroke-opacity: 1; stroke-width: 1px;"/><path class="xgrid crisp" transform="translate(614,0)" d="M0,100v270" style="stroke: rgb(238, 238, 238); stroke-opacity: 1; stroke-width: 1px;"/><path class="xgrid crisp" transform="translate(703,0)" d="M0,100v270" style="stroke: rgb(238, 238, 238); stroke-opacity: 1; stroke-width: 1px;"/><path class="xgrid crisp" transform="translate(792,0)" d="M0,100v270" style="stroke: rgb(238, 238, 238); stroke-opacity: 1; stroke-width: 1px;"/><path class="xgrid crisp" transform="translate(881,0)" d="M0,100v270" style="stroke: rgb(238, 238, 238); stroke-opacity: 1; stroke-width: 1px;"/></g><g class="y"/></g><g class="zerolinelayer"><path class="xzl zl crisp" transform="translate(80,0)" d="M0,100v270" style="stroke: rgb(68, 68, 68); stroke-opacity: 1; stroke-width: 1px;"/></g><path class="xlines-below"/><path class="ylines-below"/><g class="overlines-below"/><g class="xaxislayer-below"/><g class="yaxislayer-below"/><g class="overaxes-below"/><g class="plot" transform="translate(80,100)" clip-path="url(#clipe9863exyplot)"><g class="scatterlayer mlayer"><g class="trace scatter traceaff10c" style="stroke-miterlimit: 2; opacity: 1;"><g class="fills"/><g class="errorbars"/><g class="lines"><path class="js-line" d="M0,13.5Q14.83,15.2 22.25,16.07C29.67,16.94 37.08,17.83 44.5,18.73C51.92,19.64 59.33,20.56 66.75,21.5C74.17,22.44 81.58,23.39 89,24.36C96.42,25.33 103.83,26.32 111.25,27.33C118.67,28.34 126.08,29.37 133.5,30.42C140.92,31.47 148.33,32.53 155.75,33.61C163.17,34.7 170.58,35.8 178,36.93C185.42,38.06 192.84,39.21 200.25,40.38C207.67,41.55 215.09,42.75 222.5,43.96C229.92,45.18 237.34,46.41 244.75,47.67C252.17,48.93 259.59,50.22 267,51.53C274.42,52.84 281.84,54.18 289.25,55.54C296.67,56.9 304.09,58.29 311.5,59.71C318.92,61.13 326.34,62.57 333.75,64.04C341.17,65.51 348.59,67.01 356,68.54C363.42,70.07 370.84,71.63 378.25,73.22C385.67,74.81 393.09,76.44 400.5,78.09C407.92,79.75 415.34,81.43 422.75,83.15C430.17,84.87 437.59,86.63 445,88.42C452.42,90.21 459.84,92.04 467.25,93.9C474.67,95.77 482.09,97.67 489.5,99.61C496.92,101.55 504.34,103.53 511.75,105.55C519.17,107.57 526.59,109.64 534,111.74C541.42,113.85 548.84,116 556.25,118.19C563.67,120.39 571.09,122.63 578.5,124.91C585.92,127.2 593.34,129.53 600.75,131.91C608.17,134.3 615.59,136.73 623,139.21C630.42,141.7 637.84,144.23 645.25,146.82C652.68,149.41 660.09,152.06 667.5,154.76C674.93,157.47 682.34,160.22 689.75,163.04C697.18,165.87 704.59,168.75 712,171.69C719.43,174.64 726.85,177.64 734.25,180.71C741.68,183.79 749.1,186.93 756.5,190.13C763.93,193.34 771.35,196.61 778.75,199.96C786.18,203.32 793.6,206.74 801,210.24C808.43,213.75 815.85,217.33 823.25,220.98C830.68,224.65 838.1,228.38 845.5,232.2C852.93,236.03 860.35,239.94 867.75,243.93Q875.19,247.94 890,256.2" style="vector-effect: non-scaling-stroke; fill: none; stroke: rgb(31, 119, 180); stroke-opacity: 1; stroke-width: 2px; opacity: 1;"/></g><g class="points"/><g class="text"/></g><g class="trace scatter tracee9d00b" style="stroke-miterlimit: 2; opacity: 1;"><g class="fills"/><g class="errorbars"/><g class="lines"><path class="js-line" d="M0,13.79Q14.87,14.66 22.25,15.78C29.7,16.91 37.07,19.13 44.5,20.56C51.9,21.99 59.31,23.7 66.75,24.37C74.14,25.03 81.61,23.95 89,24.58C96.44,25.21 103.86,26.72 111.25,28.17C118.69,29.63 126.03,32.37 133.5,33.34C140.87,34.3 148.36,33.24 155.75,34C163.2,34.77 170.56,37.08 178,37.97C185.39,38.85 192.89,38.15 200.25,39.34C207.73,40.55 215.06,43.53 222.5,45.26C229.89,46.98 237.31,48.44 244.75,49.69C252.15,50.93 259.59,51.66 267,52.73C274.42,53.8 281.85,54.83 289.25,56.13C296.68,57.43 304.11,58.81 311.5,60.52C318.94,62.24 326.3,64.8 333.75,66.44C341.13,68.06 348.58,69.04 356,70.33C363.42,71.62 370.83,72.98 378.25,74.17C385.66,75.36 393.15,75.76 400.5,77.47C407.99,79.21 415.26,82.92 422.75,84.6C430.09,86.25 437.76,85.36 445,87.56C452.61,89.87 459.63,96.39 467.25,98.52C474.48,100.54 482.11,99.41 489.5,100.45C496.95,101.5 504.46,102.51 511.75,104.83C519.31,107.24 526.47,112.16 534,114.82C541.31,117.4 548.82,118.8 556.25,120.68C563.66,122.56 571.11,124.09 578.5,126.11C585.94,128.15 593.36,130.42 600.75,132.86C608.2,135.32 615.68,137.67 623,140.81C630.52,144.03 637.64,149.51 645.25,152.03C652.49,154.43 660.14,154.16 667.5,155.9C674.97,157.67 682.38,160.11 689.75,162.61C697.21,165.14 704.65,167.86 712,171.03C719.49,174.26 726.85,178.17 734.25,181.84C741.68,185.52 749.01,189.67 756.5,193.08C763.85,196.42 771.34,199.09 778.75,202.12C786.17,205.15 793.72,207.59 801,211.24C808.56,215.03 815.65,220.98 823.25,224.58C830.5,228.02 838.35,228.77 845.5,232.58C853.23,236.69 860.01,244.87 867.75,248.91Q874.89,252.64 890,256.5" style="vector-effect: non-scaling-stroke; fill: none; stroke: rgb(255, 127, 14); stroke-opacity: 1; stroke-width: 2px; opacity: 1;"/></g><g class="points"/><g class="text"/></g></g></g><g class="overplot"/><path class="xlines-above crisp" d="M0,0" style="fill: none;"/><path class="ylines-above crisp" d="M0,0" style="fill: none;"/><g class="overlines-above"/><g class="xaxislayer-above"><g class="xtick"><text text-anchor="middle" x="0" y="383" transform="translate(80,0)" style="font-family: 'Open Sans', verdana, arial, sans-serif; font-size: 12px; fill: rgb(68, 68, 68); fill-opacity: 1; white-space: pre; opacity: 1;">0</text></g><g class="xtick"><text text-anchor="middle" x="0" y="383" style="font-family: 'Open Sans', verdana, arial, sans-serif; font-size: 12px; fill: rgb(68, 68, 68); fill-opacity: 1; white-space: pre; opacity: 1;" transform="translate(169,0)">1</text></g><g class="xtick"><text text-anchor="middle" x="0" y="383" style="font-family: 'Open Sans', verdana, arial, sans-serif; font-size: 12px; fill: rgb(68, 68, 68); fill-opacity: 1; white-space: pre; opacity: 1;" transform="translate(258,0)">2</text></g><g class="xtick"><text text-anchor="middle" x="0" y="383" style="font-family: 'Open Sans', verdana, arial, sans-serif; font-size: 12px; fill: rgb(68, 68, 68); fill-opacity: 1; white-space: pre; opacity: 1;" transform="translate(347,0)">3</text></g><g class="xtick"><text text-anchor="middle" x="0" y="383" style="font-family: 'Open Sans', verdana, arial, sans-serif; font-size: 12px; fill: rgb(68, 68, 68); fill-opacity: 1; white-space: pre; opacity: 1;" transform="translate(436,0)">4</text></g><g class="xtick"><text text-anchor="middle" x="0" y="383" style="font-family: 'Open Sans', verdana, arial, sans-serif; font-size: 12px; fill: rgb(68, 68, 68); fill-opacity: 1; white-space: pre; opacity: 1;" transform="translate(525,0)">5</text></g><g class="xtick"><text text-anchor="middle" x="0" y="383" style="font-family: 'Open Sans', verdana, arial, sans-serif; font-size: 12px; fill: rgb(68, 68, 68); fill-opacity: 1; white-space: pre; opacity: 1;" transform="translate(614,0)">6</text></g><g class="xtick"><text text-anchor="middle" x="0" y="383" style="font-family: 'Open Sans', verdana, arial, sans-serif; font-size: 12px; fill: rgb(68, 68, 68); fill-opacity: 1; white-space: pre; opacity: 1;" transform="translate(703,0)">7</text></g><g class="xtick"><text text-anchor="middle" x="0" y="383" style="font-family: 'Open Sans', verdana, arial, sans-serif; font-size: 12px; fill: rgb(68, 68, 68); fill-opacity: 1; white-space: pre; opacity: 1;" transform="translate(792,0)">8</text></g><g class="xtick"><text text-anchor="middle" x="0" y="383" style="font-family: 'Open Sans', verdana, arial, sans-serif; font-size: 12px; fill: rgb(68, 68, 68); fill-opacity: 1; white-space: pre; opacity: 1;" transform="translate(881,0)">9</text></g><g class="xtick"><text text-anchor="middle" x="0" y="383" style="font-family: 'Open Sans', verdana, arial, sans-serif; font-size: 12px; fill: rgb(68, 68, 68); fill-opacity: 1; white-space: pre; opacity: 1;" transform="translate(970,0)">10</text></g></g><g class="yaxislayer-above"/><g class="overaxes-above"/></g></g><g class="polarlayer"/><g class="ternarylayer"/><g class="geolayer"/><g class="funnelarealayer"/><g class="pielayer"/><g class="iciclelayer"/><g class="treemaplayer"/><g class="sunburstlayer"/><g class="glimages"/><defs id="topdefs-e9863e"><g class="clips"/><clipPath id="legende9863e"><rect width="113" height="48" x="0" y="0"/></clipPath></defs><g class="layer-above"><g class="imagelayer"/><g class="shapelayer"/></g><g class="infolayer"><g class="legend" pointer-events="all" transform="translate(987.8000000000001,100)"><rect class="bg" shape-rendering="crispEdges" width="113" height="48" x="0" y="0" style="stroke: rgb(68, 68, 68); stroke-opacity: 1; fill: rgb(255, 255, 255); fill-opacity: 1; stroke-width: 0px;"/><g class="scrollbox" transform="" clip-path="url(#legende9863e)"><g class="groups"><g class="traces" transform="translate(0,14.5)" style="opacity: 1;"><text class="legendtext" text-anchor="start" x="40" y="4.680000000000001" style="font-family: 'Open Sans', verdana, arial, sans-serif; font-size: 12px; fill: rgb(68, 68, 68); fill-opacity: 1; white-space: pre;">Theoretical</text><g class="layers" style="opacity: 1;"><g class="legendfill"/><g class="legendlines"><path class="js-line" d="M5,0h30" style="fill: none; stroke: rgb(31, 119, 180); stroke-opacity: 1; stroke-width: 2px;"/></g><g class="legendsymbols"><g class="legendpoints"/></g></g><rect class="legendtoggle" x="0" y="-9.5" width="107.140625" height="19" style="fill: rgb(0, 0, 0); fill-opacity: 0;"/></g><g class="traces" transform="translate(0,33.5)" style="opacity: 1;"><text class="legendtext" text-anchor="start" x="40" y="4.680000000000001" style="font-family: 'Open Sans', verdana, arial, sans-serif; font-size: 12px; fill: rgb(68, 68, 68); fill-opacity: 1; white-space: pre;">Simulation</text><g class="layers" style="opacity: 1;"><g class="legendfill"/><g class="legendlines"><path class="js-line" d="M5,0h30" style="fill: none; stroke: rgb(255, 127, 14); stroke-opacity: 1; stroke-width: 2px;"/></g><g class="legendsymbols"><g class="legendpoints"/></g></g><rect class="legendtoggle" x="0" y="-9.5" width="107.140625" height="19" style="fill: rgb(0, 0, 0); fill-opacity: 0;"/></g></g></g><rect class="scrollbar" rx="20" ry="3" width="0" height="0" x="0" y="0" style="fill: rgb(128, 139, 164); fill-opacity: 1;"/></g><g class="g-gtitle"/><g class="g-xtitle"><text class="xtitle" x="525" y="440" text-anchor="middle" style="font-family: 'Open Sans', verdana, arial, sans-serif; font-size: 20px; fill: rgb(68, 68, 68); opacity: 1; font-weight: normal; white-space: pre;">Es/N0(dB)</text></g><g class="g-ytitle"><text class="ytitle" transform="rotate(-90,30,235)" x="30" y="235" text-anchor="middle" style="font-family: 'Open Sans', verdana, arial, sans-serif; font-size: 20px; fill: rgb(68, 68, 68); opacity: 1; font-weight: normal; white-space: pre;">SER</text></g></g></svg>